#N canvas 0 0 450 300 10;
#X obj 70 930 inlet~;
#X obj 130 930 inlet~;
#X obj 10 930 inlet;
#X obj 190 930 r \$0-read;
#X obj 190 960 faust-control \$0;
#X obj 190 990 s \$0-write;
#X obj 10 990 r \$0-in;
#X obj 10 1020 op~;
#X obj 10 1050 s \$0-out;
#X obj 70 1080 outlet~;
#X obj 130 1080 outlet~;
#X obj 10 1080 outlet;
#X connect 2 0 4 0;
#X connect 3 0 4 0;
#X connect 4 0 5 0;
#X connect 7 0 8 0;
#X connect 2 0 11 0;
#X connect 6 0 7 0;
#X connect 0 0 7 1;
#X connect 1 0 7 2;
#X connect 7 1 9 0;
#X connect 7 2 10 0;
#X obj 10 30 hsl 128 15 0 5 0 0 \$0-op/amp \$0-op/amp amp -2 -6 0 10 -262144 -1 -1 0 1;
#X obj 160 30 nbx 5 14 0 5 0 0 \$0-op/amp \$0-op/amp empty 0 -6 0 10 -262144 -1 -1 256;
#X obj 10 60 hsl 128 15 0 1 0 0 \$0-op/amp-envelope/aL \$0-op/amp-envelope/aL aL -2 -6 0 10 -262144 -1 -1 0 1;
#X obj 160 60 nbx 5 14 0 1 0 0 \$0-op/amp-envelope/aL \$0-op/amp-envelope/aL empty 0 -6 0 10 -262144 -1 -1 256;
#X obj 10 90 hsl 128 15 0.001 12 0 0 \$0-op/amp-envelope/aR \$0-op/amp-envelope/aR aR -2 -6 0 10 -262144 -1 -1 0 1;
#X obj 160 90 nbx 5 14 0.001 12 0 0 \$0-op/amp-envelope/aR \$0-op/amp-envelope/aR empty 0 -6 0 10 -262144 -1 -1 256;
#X obj 10 120 hsl 128 15 0 1 0 0 \$0-op/amp-envelope/dL \$0-op/amp-envelope/dL dL -2 -6 0 10 -262144 -1 -1 0 1;
#X obj 160 120 nbx 5 14 0 1 0 0 \$0-op/amp-envelope/dL \$0-op/amp-envelope/dL empty 0 -6 0 10 -262144 -1 -1 256;
#X obj 10 150 hsl 128 15 0.001 12 0 0 \$0-op/amp-envelope/dR \$0-op/amp-envelope/dR dR -2 -6 0 10 -262144 -1 -1 0 1;
#X obj 160 150 nbx 5 14 0.001 12 0 0 \$0-op/amp-envelope/dR \$0-op/amp-envelope/dR empty 0 -6 0 10 -262144 -1 -1 256;
#X obj 10 180 bng 15 250 50 0 \$0-op/amp-envelope/gate \$0-op/amp-envelope/gate gate 0 -6 0 10 -262144 -1 -1;
#X obj 10 210 hsl 128 15 0 1 0 0 \$0-op/amp-envelope/rL \$0-op/amp-envelope/rL rL -2 -6 0 10 -262144 -1 -1 0 1;
#X obj 160 210 nbx 5 14 0 1 0 0 \$0-op/amp-envelope/rL \$0-op/amp-envelope/rL empty 0 -6 0 10 -262144 -1 -1 256;
#X obj 10 240 hsl 128 15 0.001 12 0 0 \$0-op/amp-envelope/rR \$0-op/amp-envelope/rR rR -2 -6 0 10 -262144 -1 -1 0 1;
#X obj 160 240 nbx 5 14 0.001 12 0 0 \$0-op/amp-envelope/rR \$0-op/amp-envelope/rR empty 0 -6 0 10 -262144 -1 -1 256;
#X obj 10 270 hsl 128 15 0 1 0 0 \$0-op/amp-envelope/sL \$0-op/amp-envelope/sL sL -2 -6 0 10 -262144 -1 -1 0 1;
#X obj 160 270 nbx 5 14 0 1 0 0 \$0-op/amp-envelope/sL \$0-op/amp-envelope/sL empty 0 -6 0 10 -262144 -1 -1 256;
#X obj 10 300 hsl 128 15 0.001 12 0 0 \$0-op/amp-envelope/sR \$0-op/amp-envelope/sR sR -2 -6 0 10 -262144 -1 -1 0 1;
#X obj 160 300 nbx 5 14 0.001 12 0 0 \$0-op/amp-envelope/sR \$0-op/amp-envelope/sR empty 0 -6 0 10 -262144 -1 -1 256;
#X obj 10 330 hsl 128 15 0 18 0 0 \$0-op/fb \$0-op/fb fb -2 -6 0 10 -262144 -1 -1 0 1;
#X obj 160 330 nbx 5 14 0 18 0 0 \$0-op/fb \$0-op/fb empty 0 -6 0 10 -262144 -1 -1 256;
#X obj 10 360 hsl 128 15 20 2000 0 0 \$0-op/freq \$0-op/freq freq -2 -6 0 10 -262144 -1 -1 0 1;
#X obj 160 360 nbx 5 14 20 2000 0 0 \$0-op/freq \$0-op/freq empty 0 -6 0 10 -262144 -1 -1 256;
#X obj 10 390 hsl 128 15 0 1 0 0 \$0-op/freq-envelope/aL \$0-op/freq-envelope/aL aL -2 -6 0 10 -262144 -1 -1 0 1;
#X obj 160 390 nbx 5 14 0 1 0 0 \$0-op/freq-envelope/aL \$0-op/freq-envelope/aL empty 0 -6 0 10 -262144 -1 -1 256;
#X obj 10 420 hsl 128 15 0.001 12 0 0 \$0-op/freq-envelope/aR \$0-op/freq-envelope/aR aR -2 -6 0 10 -262144 -1 -1 0 1;
#X obj 160 420 nbx 5 14 0.001 12 0 0 \$0-op/freq-envelope/aR \$0-op/freq-envelope/aR empty 0 -6 0 10 -262144 -1 -1 256;
#X obj 10 450 hsl 128 15 0 1 0 0 \$0-op/freq-envelope/dL \$0-op/freq-envelope/dL dL -2 -6 0 10 -262144 -1 -1 0 1;
#X obj 160 450 nbx 5 14 0 1 0 0 \$0-op/freq-envelope/dL \$0-op/freq-envelope/dL empty 0 -6 0 10 -262144 -1 -1 256;
#X obj 10 480 hsl 128 15 0.001 12 0 0 \$0-op/freq-envelope/dR \$0-op/freq-envelope/dR dR -2 -6 0 10 -262144 -1 -1 0 1;
#X obj 160 480 nbx 5 14 0.001 12 0 0 \$0-op/freq-envelope/dR \$0-op/freq-envelope/dR empty 0 -6 0 10 -262144 -1 -1 256;
#X obj 10 510 hsl 128 15 -48 48 0 0 \$0-op/freq-envelope/freq-center \$0-op/freq-envelope/freq-center freq-center -2 -6 0 10 -262144 -1 -1 0 1;
#X obj 160 510 nbx 5 14 -48 48 0 0 \$0-op/freq-envelope/freq-center \$0-op/freq-envelope/freq-center empty 0 -6 0 10 -262144 -1 -1 256;
#X obj 10 540 hsl 128 15 0 48 0 0 \$0-op/freq-envelope/freq-depth \$0-op/freq-envelope/freq-depth freq-depth -2 -6 0 10 -262144 -1 -1 0 1;
#X obj 160 540 nbx 5 14 0 48 0 0 \$0-op/freq-envelope/freq-depth \$0-op/freq-envelope/freq-depth empty 0 -6 0 10 -262144 -1 -1 256;
#X obj 10 570 bng 15 250 50 0 \$0-op/freq-envelope/gate \$0-op/freq-envelope/gate gate 0 -6 0 10 -262144 -1 -1;
#X obj 10 600 hsl 128 15 0 1 0 0 \$0-op/freq-envelope/rL \$0-op/freq-envelope/rL rL -2 -6 0 10 -262144 -1 -1 0 1;
#X obj 160 600 nbx 5 14 0 1 0 0 \$0-op/freq-envelope/rL \$0-op/freq-envelope/rL empty 0 -6 0 10 -262144 -1 -1 256;
#X obj 10 630 hsl 128 15 0.001 12 0 0 \$0-op/freq-envelope/rR \$0-op/freq-envelope/rR rR -2 -6 0 10 -262144 -1 -1 0 1;
#X obj 160 630 nbx 5 14 0.001 12 0 0 \$0-op/freq-envelope/rR \$0-op/freq-envelope/rR empty 0 -6 0 10 -262144 -1 -1 256;
#X obj 10 660 hsl 128 15 0 1 0 0 \$0-op/freq-envelope/sL \$0-op/freq-envelope/sL sL -2 -6 0 10 -262144 -1 -1 0 1;
#X obj 160 660 nbx 5 14 0 1 0 0 \$0-op/freq-envelope/sL \$0-op/freq-envelope/sL empty 0 -6 0 10 -262144 -1 -1 256;
#X obj 10 690 hsl 128 15 0.001 12 0 0 \$0-op/freq-envelope/sR \$0-op/freq-envelope/sR sR -2 -6 0 10 -262144 -1 -1 0 1;
#X obj 160 690 nbx 5 14 0.001 12 0 0 \$0-op/freq-envelope/sR \$0-op/freq-envelope/sR empty 0 -6 0 10 -262144 -1 -1 256;
#X obj 10 720 hsl 128 15 0.001 12 0 0 \$0-op/index \$0-op/index index -2 -6 0 10 -262144 -1 -1 0 1;
#X obj 160 720 nbx 5 14 0.001 12 0 0 \$0-op/index \$0-op/index empty 0 -6 0 10 -262144 -1 -1 256;
#X obj 10 750 hsl 128 15 0 1 0 0 \$0-op/lfo-amt \$0-op/lfo-amt lfo-amt -2 -6 0 10 -262144 -1 -1 0 1;
#X obj 160 750 nbx 5 14 0 1 0 0 \$0-op/lfo-amt \$0-op/lfo-amt empty 0 -6 0 10 -262144 -1 -1 256;
#X obj 10 780 hsl 128 15 0 1 0 0 \$0-op/lfo-phase \$0-op/lfo-phase lfo-phase -2 -6 0 10 -262144 -1 -1 0 1;
#X obj 160 780 nbx 5 14 0 1 0 0 \$0-op/lfo-phase \$0-op/lfo-phase empty 0 -6 0 10 -262144 -1 -1 256;
#X obj 10 810 hsl 128 15 -1000 1000 0 0 \$0-op/offset \$0-op/offset offset -2 -6 0 10 -262144 -1 -1 0 1;
#X obj 160 810 nbx 5 14 -1000 1000 0 0 \$0-op/offset \$0-op/offset empty 0 -6 0 10 -262144 -1 -1 256;
#X obj 10 840 hsl 128 15 0 1 0 0 \$0-op/pan \$0-op/pan pan -2 -6 0 10 -262144 -1 -1 0 1;
#X obj 160 840 nbx 5 14 0 1 0 0 \$0-op/pan \$0-op/pan empty 0 -6 0 10 -262144 -1 -1 256;
#X obj 197 3 bng 15 250 50 1 \$0-init \$0-ignore empty 0 -6 0 10 -262144 -1 -1;
#X obj 217 3 tgl 15 1 \$0-active \$0-active empty 0 -6 0 10 -262144 -1 -1 1 1;
#X obj 450 10 r \$0-init;
#X obj 738 10 s \$0-in;
#X obj 882 10 s \$0-read;
#X obj 1026 10 r \$0-write;
#X msg 450 30 1;
#X obj 450 50 s \$0-active;
#X connect 72 0 73 0;
#X obj 738 30 r \$0-active;
#X msg 738 50 active \$1;
#X connect 74 0 75 0;
#X connect 75 0 69 0;
#X obj 1026 30 route active;
#X obj 1026 50 s \$0-active;
#X connect 71 0 76 0;
#X connect 76 0 77 0;
#X msg 450 70 0.5;
#X obj 450 90 s \$0-op/amp;
#X connect 68 0 78 0;
#X connect 78 0 79 0;
#X obj 738 70 r \$0-op/amp;
#X msg 738 90 /op/amp \$1;
#X connect 80 0 81 0;
#X connect 81 0 69 0;
#X obj 1026 70 route /op/amp;
#X obj 1026 90 s \$0-op/amp;
#X connect 76 1 82 0;
#X connect 82 0 83 0;
#X msg 450 110 0.9;
#X obj 450 130 s \$0-op/amp-envelope/aL;
#X connect 68 0 84 0;
#X connect 84 0 85 0;
#X obj 738 110 r \$0-op/amp-envelope/aL;
#X msg 738 130 /op/amp-envelope/aL \$1;
#X connect 86 0 87 0;
#X connect 87 0 69 0;
#X obj 1026 110 route /op/amp-envelope/aL;
#X obj 1026 130 s \$0-op/amp-envelope/aL;
#X connect 82 1 88 0;
#X connect 88 0 89 0;
#X msg 450 150 0.006;
#X obj 450 170 s \$0-op/amp-envelope/aR;
#X connect 68 0 90 0;
#X connect 90 0 91 0;
#X obj 738 150 r \$0-op/amp-envelope/aR;
#X msg 738 170 /op/amp-envelope/aR \$1;
#X connect 92 0 93 0;
#X connect 93 0 69 0;
#X obj 1026 150 route /op/amp-envelope/aR;
#X obj 1026 170 s \$0-op/amp-envelope/aR;
#X connect 88 1 94 0;
#X connect 94 0 95 0;
#X msg 450 190 0.1;
#X obj 450 210 s \$0-op/amp-envelope/dL;
#X connect 68 0 96 0;
#X connect 96 0 97 0;
#X obj 738 190 r \$0-op/amp-envelope/dL;
#X msg 738 210 /op/amp-envelope/dL \$1;
#X connect 98 0 99 0;
#X connect 99 0 69 0;
#X obj 1026 190 route /op/amp-envelope/dL;
#X obj 1026 210 s \$0-op/amp-envelope/dL;
#X connect 94 1 100 0;
#X connect 100 0 101 0;
#X msg 450 230 1;
#X obj 450 250 s \$0-op/amp-envelope/dR;
#X connect 68 0 102 0;
#X connect 102 0 103 0;
#X obj 738 230 r \$0-op/amp-envelope/dR;
#X msg 738 250 /op/amp-envelope/dR \$1;
#X connect 104 0 105 0;
#X connect 105 0 69 0;
#X obj 1026 230 route /op/amp-envelope/dR;
#X obj 1026 250 s \$0-op/amp-envelope/dR;
#X connect 100 1 106 0;
#X connect 106 0 107 0;
#X msg 450 270 0;
#X obj 450 290 faust-s \$0-op/amp-envelope/gate;
#X connect 68 0 108 0;
#X connect 108 0 109 0;
#X obj 738 270 r \$0-op/amp-envelope/gate;
#X obj 738 290 faust-r /op/amp-envelope/gate;
#X connect 110 0 111 0;
#X connect 111 0 69 0;
#X obj 1026 270 route /op/amp-envelope/gate;
#X obj 1026 290 faust-s \$0-op/amp-envelope/gate;
#X connect 106 1 112 0;
#X connect 112 0 113 0;
#X msg 450 310 0;
#X obj 450 330 s \$0-op/amp-envelope/rL;
#X connect 68 0 114 0;
#X connect 114 0 115 0;
#X obj 738 310 r \$0-op/amp-envelope/rL;
#X msg 738 330 /op/amp-envelope/rL \$1;
#X connect 116 0 117 0;
#X connect 117 0 69 0;
#X obj 1026 310 route /op/amp-envelope/rL;
#X obj 1026 330 s \$0-op/amp-envelope/rL;
#X connect 112 1 118 0;
#X connect 118 0 119 0;
#X msg 450 350 0.1;
#X obj 450 370 s \$0-op/amp-envelope/rR;
#X connect 68 0 120 0;
#X connect 120 0 121 0;
#X obj 738 350 r \$0-op/amp-envelope/rR;
#X msg 738 370 /op/amp-envelope/rR \$1;
#X connect 122 0 123 0;
#X connect 123 0 69 0;
#X obj 1026 350 route /op/amp-envelope/rR;
#X obj 1026 370 s \$0-op/amp-envelope/rR;
#X connect 118 1 124 0;
#X connect 124 0 125 0;
#X msg 450 390 0.5;
#X obj 450 410 s \$0-op/amp-envelope/sL;
#X connect 68 0 126 0;
#X connect 126 0 127 0;
#X obj 738 390 r \$0-op/amp-envelope/sL;
#X msg 738 410 /op/amp-envelope/sL \$1;
#X connect 128 0 129 0;
#X connect 129 0 69 0;
#X obj 1026 390 route /op/amp-envelope/sL;
#X obj 1026 410 s \$0-op/amp-envelope/sL;
#X connect 124 1 130 0;
#X connect 130 0 131 0;
#X msg 450 430 1;
#X obj 450 450 s \$0-op/amp-envelope/sR;
#X connect 68 0 132 0;
#X connect 132 0 133 0;
#X obj 738 430 r \$0-op/amp-envelope/sR;
#X msg 738 450 /op/amp-envelope/sR \$1;
#X connect 134 0 135 0;
#X connect 135 0 69 0;
#X obj 1026 430 route /op/amp-envelope/sR;
#X obj 1026 450 s \$0-op/amp-envelope/sR;
#X connect 130 1 136 0;
#X connect 136 0 137 0;
#X msg 450 470 0;
#X obj 450 490 s \$0-op/fb;
#X connect 68 0 138 0;
#X connect 138 0 139 0;
#X obj 738 470 r \$0-op/fb;
#X msg 738 490 /op/fb \$1;
#X connect 140 0 141 0;
#X connect 141 0 69 0;
#X obj 1026 470 route /op/fb;
#X obj 1026 490 s \$0-op/fb;
#X connect 136 1 142 0;
#X connect 142 0 143 0;
#X msg 450 510 440;
#X obj 450 530 s \$0-op/freq;
#X connect 68 0 144 0;
#X connect 144 0 145 0;
#X obj 738 510 r \$0-op/freq;
#X msg 738 530 /op/freq \$1;
#X connect 146 0 147 0;
#X connect 147 0 69 0;
#X obj 1026 510 route /op/freq;
#X obj 1026 530 s \$0-op/freq;
#X connect 142 1 148 0;
#X connect 148 0 149 0;
#X msg 450 550 0.9;
#X obj 450 570 s \$0-op/freq-envelope/aL;
#X connect 68 0 150 0;
#X connect 150 0 151 0;
#X obj 738 550 r \$0-op/freq-envelope/aL;
#X msg 738 570 /op/freq-envelope/aL \$1;
#X connect 152 0 153 0;
#X connect 153 0 69 0;
#X obj 1026 550 route /op/freq-envelope/aL;
#X obj 1026 570 s \$0-op/freq-envelope/aL;
#X connect 148 1 154 0;
#X connect 154 0 155 0;
#X msg 450 590 0.006;
#X obj 450 610 s \$0-op/freq-envelope/aR;
#X connect 68 0 156 0;
#X connect 156 0 157 0;
#X obj 738 590 r \$0-op/freq-envelope/aR;
#X msg 738 610 /op/freq-envelope/aR \$1;
#X connect 158 0 159 0;
#X connect 159 0 69 0;
#X obj 1026 590 route /op/freq-envelope/aR;
#X obj 1026 610 s \$0-op/freq-envelope/aR;
#X connect 154 1 160 0;
#X connect 160 0 161 0;
#X msg 450 630 0.1;
#X obj 450 650 s \$0-op/freq-envelope/dL;
#X connect 68 0 162 0;
#X connect 162 0 163 0;
#X obj 738 630 r \$0-op/freq-envelope/dL;
#X msg 738 650 /op/freq-envelope/dL \$1;
#X connect 164 0 165 0;
#X connect 165 0 69 0;
#X obj 1026 630 route /op/freq-envelope/dL;
#X obj 1026 650 s \$0-op/freq-envelope/dL;
#X connect 160 1 166 0;
#X connect 166 0 167 0;
#X msg 450 670 1;
#X obj 450 690 s \$0-op/freq-envelope/dR;
#X connect 68 0 168 0;
#X connect 168 0 169 0;
#X obj 738 670 r \$0-op/freq-envelope/dR;
#X msg 738 690 /op/freq-envelope/dR \$1;
#X connect 170 0 171 0;
#X connect 171 0 69 0;
#X obj 1026 670 route /op/freq-envelope/dR;
#X obj 1026 690 s \$0-op/freq-envelope/dR;
#X connect 166 1 172 0;
#X connect 172 0 173 0;
#X msg 450 710 0;
#X obj 450 730 s \$0-op/freq-envelope/freq-center;
#X connect 68 0 174 0;
#X connect 174 0 175 0;
#X obj 738 710 r \$0-op/freq-envelope/freq-center;
#X msg 738 730 /op/freq-envelope/freq-center \$1;
#X connect 176 0 177 0;
#X connect 177 0 69 0;
#X obj 1026 710 route /op/freq-envelope/freq-center;
#X obj 1026 730 s \$0-op/freq-envelope/freq-center;
#X connect 172 1 178 0;
#X connect 178 0 179 0;
#X msg 450 750 0;
#X obj 450 770 s \$0-op/freq-envelope/freq-depth;
#X connect 68 0 180 0;
#X connect 180 0 181 0;
#X obj 738 750 r \$0-op/freq-envelope/freq-depth;
#X msg 738 770 /op/freq-envelope/freq-depth \$1;
#X connect 182 0 183 0;
#X connect 183 0 69 0;
#X obj 1026 750 route /op/freq-envelope/freq-depth;
#X obj 1026 770 s \$0-op/freq-envelope/freq-depth;
#X connect 178 1 184 0;
#X connect 184 0 185 0;
#X msg 450 790 0;
#X obj 450 810 faust-s \$0-op/freq-envelope/gate;
#X connect 68 0 186 0;
#X connect 186 0 187 0;
#X obj 738 790 r \$0-op/freq-envelope/gate;
#X obj 738 810 faust-r /op/freq-envelope/gate;
#X connect 188 0 189 0;
#X connect 189 0 69 0;
#X obj 1026 790 route /op/freq-envelope/gate;
#X obj 1026 810 faust-s \$0-op/freq-envelope/gate;
#X connect 184 1 190 0;
#X connect 190 0 191 0;
#X msg 450 830 0;
#X obj 450 850 s \$0-op/freq-envelope/rL;
#X connect 68 0 192 0;
#X connect 192 0 193 0;
#X obj 738 830 r \$0-op/freq-envelope/rL;
#X msg 738 850 /op/freq-envelope/rL \$1;
#X connect 194 0 195 0;
#X connect 195 0 69 0;
#X obj 1026 830 route /op/freq-envelope/rL;
#X obj 1026 850 s \$0-op/freq-envelope/rL;
#X connect 190 1 196 0;
#X connect 196 0 197 0;
#X msg 450 870 0.1;
#X obj 450 890 s \$0-op/freq-envelope/rR;
#X connect 68 0 198 0;
#X connect 198 0 199 0;
#X obj 738 870 r \$0-op/freq-envelope/rR;
#X msg 738 890 /op/freq-envelope/rR \$1;
#X connect 200 0 201 0;
#X connect 201 0 69 0;
#X obj 1026 870 route /op/freq-envelope/rR;
#X obj 1026 890 s \$0-op/freq-envelope/rR;
#X connect 196 1 202 0;
#X connect 202 0 203 0;
#X msg 450 910 0.5;
#X obj 450 930 s \$0-op/freq-envelope/sL;
#X connect 68 0 204 0;
#X connect 204 0 205 0;
#X obj 738 910 r \$0-op/freq-envelope/sL;
#X msg 738 930 /op/freq-envelope/sL \$1;
#X connect 206 0 207 0;
#X connect 207 0 69 0;
#X obj 1026 910 route /op/freq-envelope/sL;
#X obj 1026 930 s \$0-op/freq-envelope/sL;
#X connect 202 1 208 0;
#X connect 208 0 209 0;
#X msg 450 950 1;
#X obj 450 970 s \$0-op/freq-envelope/sR;
#X connect 68 0 210 0;
#X connect 210 0 211 0;
#X obj 738 950 r \$0-op/freq-envelope/sR;
#X msg 738 970 /op/freq-envelope/sR \$1;
#X connect 212 0 213 0;
#X connect 213 0 69 0;
#X obj 1026 950 route /op/freq-envelope/sR;
#X obj 1026 970 s \$0-op/freq-envelope/sR;
#X connect 208 1 214 0;
#X connect 214 0 215 0;
#X msg 450 990 1;
#X obj 450 1010 s \$0-op/index;
#X connect 68 0 216 0;
#X connect 216 0 217 0;
#X obj 738 990 r \$0-op/index;
#X msg 738 1010 /op/index \$1;
#X connect 218 0 219 0;
#X connect 219 0 69 0;
#X obj 1026 990 route /op/index;
#X obj 1026 1010 s \$0-op/index;
#X connect 214 1 220 0;
#X connect 220 0 221 0;
#X msg 450 1030 0;
#X obj 450 1050 s \$0-op/lfo-amt;
#X connect 68 0 222 0;
#X connect 222 0 223 0;
#X obj 738 1030 r \$0-op/lfo-amt;
#X msg 738 1050 /op/lfo-amt \$1;
#X connect 224 0 225 0;
#X connect 225 0 69 0;
#X obj 1026 1030 route /op/lfo-amt;
#X obj 1026 1050 s \$0-op/lfo-amt;
#X connect 220 1 226 0;
#X connect 226 0 227 0;
#X msg 450 1070 0;
#X obj 450 1090 s \$0-op/lfo-phase;
#X connect 68 0 228 0;
#X connect 228 0 229 0;
#X obj 738 1070 r \$0-op/lfo-phase;
#X msg 738 1090 /op/lfo-phase \$1;
#X connect 230 0 231 0;
#X connect 231 0 69 0;
#X obj 1026 1070 route /op/lfo-phase;
#X obj 1026 1090 s \$0-op/lfo-phase;
#X connect 226 1 232 0;
#X connect 232 0 233 0;
#X msg 450 1110 0;
#X obj 450 1130 s \$0-op/offset;
#X connect 68 0 234 0;
#X connect 234 0 235 0;
#X obj 738 1110 r \$0-op/offset;
#X msg 738 1130 /op/offset \$1;
#X connect 236 0 237 0;
#X connect 237 0 69 0;
#X obj 1026 1110 route /op/offset;
#X obj 1026 1130 s \$0-op/offset;
#X connect 232 1 238 0;
#X connect 238 0 239 0;
#X msg 450 1150 0.5;
#X obj 450 1170 s \$0-op/pan;
#X connect 68 0 240 0;
#X connect 240 0 241 0;
#X obj 738 1150 r \$0-op/pan;
#X msg 738 1170 /op/pan \$1;
#X connect 242 0 243 0;
#X connect 243 0 69 0;
#X obj 1026 1150 route /op/pan;
#X obj 1026 1170 s \$0-op/pan;
#X connect 238 1 244 0;
#X connect 244 0 245 0;
#X coords 0 -1 1 1 235 860 1 0 0;
#X text 0 880 Generated Thu Jan 29 23:55:11 2026 by faust2pd v2.16. See http://faust.grame.fr and http://purelang.bitbucket.org.;
