#N canvas 588 218 666 493 12;
#X msg 216 210 gate \$1;
#X msg 77 182 freq \$1;
#X msg 356 217 gain \$1;
#X obj 358 189 / 127;
#X obj 155 50 inlet;
#X obj 155 74 unpack;
#X obj 224 95 t a a, f 15;
#X obj 224 149 > 0;
#X obj 77 154 mtof;
#X obj 154 365 *~;
#X obj 221 419 outlet~;
#X obj 347 283 line~;
#X obj 326 127 sel 0;
#X obj 486 336 switch~;
#X obj 358 156 t a b b, f 11;
#X obj 478 267 i 1;
#X obj 467 55 inlet;
#X msg 522 138 stop;
#X obj 465 103 t b b b;
#X obj 521 270 i 0;
#X obj 468 206 i 0;
#X text 529 55 end;
#X obj 407 189 i 1;
#X obj 739 128 inlet;
#X obj 144 323 *~ 0.5;
#X msg 433 244 \$1 3;
#X obj 495 170 del 3;
#X obj 86 274 synths/organ_12_4~;
#X obj 230 366 *~;
#X obj 220 324 *~ 0.5;
#X obj 305 421 outlet~;
#X connect 0 0 27 0;
#X connect 1 0 27 0;
#X connect 2 0 27 0;
#X connect 3 0 2 0;
#X connect 4 0 5 0;
#X connect 5 0 8 0;
#X connect 5 1 6 0;
#X connect 6 0 7 0;
#X connect 6 1 12 0;
#X connect 7 0 0 0;
#X connect 8 0 1 0;
#X connect 9 0 10 0;
#X connect 11 0 9 1;
#X connect 11 0 28 1;
#X connect 12 1 14 0;
#X connect 14 0 3 0;
#X connect 14 1 22 0;
#X connect 14 2 15 0;
#X connect 14 2 17 0;
#X connect 15 0 13 0;
#X connect 16 0 18 0;
#X connect 17 0 26 0;
#X connect 18 0 20 0;
#X connect 18 1 26 0;
#X connect 18 2 17 0;
#X connect 19 0 13 0;
#X connect 20 0 25 0;
#X connect 22 0 25 0;
#X connect 23 0 27 0;
#X connect 24 0 9 0;
#X connect 25 0 11 0;
#X connect 26 0 19 0;
#X connect 27 1 24 0;
#X connect 27 2 29 0;
#X connect 28 0 30 0;
#X connect 29 0 28 0;
