#N canvas 585 222 450 511 12;
#X obj 45 29 inlet;
#X obj 45 134 until;
#X obj 45 106 max 1;
#X obj 45 73 t a b;
#X obj 87 189 + 1;
#X obj 45 188 i;
#X obj 42 279 makefilename \$1%d;
#X obj 45 212 t a a, f 33;
#X obj 42 303 outlet;
#X obj 251 293 outlet;
#X text 302 295 index;
#X text 93 303 symbol;
#X text 237 84 arg1: prepend symbol;
#X text 245 111 arg2: base index;
#X obj 104 109 i \$2;
#X connect 0 0 3 0;
#X connect 1 0 5 0;
#X connect 2 0 1 0;
#X connect 3 0 2 0;
#X connect 3 1 14 0;
#X connect 4 0 5 1;
#X connect 5 0 4 0;
#X connect 5 0 7 0;
#X connect 6 0 8 0;
#X connect 7 0 6 0;
#X connect 7 1 9 0;
#X connect 14 0 5 1;
