#N canvas 263 88 673 385 12;
#X obj 38 36 inlet~;
#X text 92 37 freq;
#X obj 38 340 outlet~;
#X obj 169 346 outlet~;
#X obj 38 289 j-pan~ 10, f 19;
#X obj 38 171 osc~;
#X obj 38 200 *~ 0.25;
#X text 96 201 glbal gain reduction;
#X obj 38 254 *~, f 12;
#X obj 38 143 *~;
#X obj 353 131 line~;
#X msg 353 106 \$1 8;
#X obj 324 260 switch~;
#X obj 417 133 line~;
#X msg 417 108 \$1 8;
#X obj 38 224 *~;
#X obj 86 65 route vel a d s r index gain pan, f 54;
#X obj 134 176 adsr~ 10 300 0.5 500, f 26;
#X obj 93 133 / 127;
#X obj 93 157 sqrt;
#X obj 123 223 *~;
#X connect 0 0 9 0;
#X connect 0 1 16 0;
#X connect 4 0 2 0;
#X connect 4 1 3 0;
#X connect 5 0 6 0;
#X connect 6 0 15 0;
#X connect 8 0 4 0;
#X connect 9 0 5 0;
#X connect 10 0 9 1;
#X connect 11 0 10 0;
#X connect 13 0 15 1;
#X connect 14 0 13 0;
#X connect 15 0 8 0;
#X connect 16 0 18 0;
#X connect 16 1 17 1;
#X connect 16 2 17 2;
#X connect 16 3 17 3;
#X connect 16 4 17 4;
#X connect 16 5 11 0;
#X connect 16 6 14 0;
#X connect 16 7 4 1;
#X connect 17 0 20 0;
#X connect 17 0 20 1;
#X connect 17 1 12 0;
#X connect 18 0 19 0;
#X connect 19 0 17 0;
#X connect 20 0 8 1;
