#N canvas 110 332 450 300 12;
#X obj 88 165 outlet~;
#X obj 238 153 outlet~;
#X obj 60 13 inlet~;
#X obj 86 123 clone -s 1 add-osc~ \$1;
#X connect 2 0 3 0;
#X connect 2 1 3 0;
#X connect 3 0 0 0;
#X connect 3 1 1 0;
