#N canvas 150 175 751 555 12;
#X obj 288 275 vline~;
#X obj 288 299 *~;
#X obj 150 345 osc~ 45;
#X obj 151 114 t b b, f 15;
#X obj 150 409 *~, f 19;
#X obj 150 369 *~ 0.7;
#X obj 150 217 vline~;
#X obj 150 241 *~;
#X obj 150 265 *~;
#X obj 150 313 +~ 45;
#X msg 151 180 1 3 \, 0 3 3;
#X obj 150 289 *~ 0;
#X msg 289 238 1 3 \, 0.5 47 3 \, 0 500 50;
#X obj 154 32 inlet;
#X obj 154 56 clip 0 127;
#X obj 154 80 / 127;
#X obj 150 433 outlet~;
#X obj 273 31 inlet;
#X connect 0 0 1 0;
#X connect 0 0 1 1;
#X connect 1 0 4 1;
#X connect 2 0 5 0;
#X connect 3 0 10 0;
#X connect 3 1 12 0;
#X connect 4 0 16 0;
#X connect 5 0 4 0;
#X connect 6 0 7 0;
#X connect 6 0 7 1;
#X connect 7 0 8 0;
#X connect 7 0 8 1;
#X connect 8 0 11 0;
#X connect 9 0 2 0;
#X connect 10 0 6 0;
#X connect 11 0 9 0;
#X connect 12 0 0 0;
#X connect 13 0 14 0;
#X connect 14 0 15 0;
#X connect 15 0 3 0;
