#N canvas 63 93 904 593 12;
#X obj 27 416 *~;
#N canvas 0 30 450 300 messages 0;
#X obj 37 37 inlet;
#X obj 37 60 route amount, f 39;
#X obj 37 83 s amount-\$0;
#X connect 0 0 1 0;
#X connect 1 0 2 0;
#X restore 675 36 pd messages;
#X obj 45 339 sig~ 1;
#X obj 45 382 -~, f 9;
#X obj 27 13 inlet~;
#X obj 107 60 inlet~;
#X obj 27 549 outlet~;
#X obj 134 279 r amount-\$0;
#X obj 675 13 inlet;
#X text 715 13 messages;
#X obj 107 84 clip~ 0 1;
#X obj 105 335 *~ \$1;
#X connect 0 0 6 0;
#X connect 2 0 3 0;
#X connect 3 0 0 1;
#X connect 4 0 0 0;
#X connect 5 0 10 0;
#X connect 7 0 11 1;
#X connect 8 0 1 0;
#X connect 10 0 11 0;
#X connect 11 0 3 1;
