#N canvas 92 117 651 505 12;
#X obj 81 34 inlet;
#X obj 81 58 t a a;
#X obj 113 88 stripnote;
#X obj 113 112 t b;
#X obj 151 138 + 1;
#X obj 113 136 i 1;
#X obj 151 162 == 1;
#X obj 75 195 list prepend;
#X obj 75 219 list trim;
#X obj 130 457 outlet~;
#X obj 211 459 outlet~;
#X obj 76 296 t a b;
#X obj 170 292 t a b;
#X obj 75 243 route 0 1, f 27;
#X obj 291 136 inlet;
#X text 331 135 all messages;
#X text 123 35 incoming note;
#X obj 432 137 inlet~;
#X obj 508 142 inlet~;
#X obj 75 367 filter-synth-voice~;
#X obj 250 370 filter-synth-voice~;
#X connect 0 0 1 0;
#X connect 1 0 7 0;
#X connect 1 1 2 0;
#X connect 2 0 3 0;
#X connect 3 0 5 0;
#X connect 4 0 6 0;
#X connect 5 0 4 0;
#X connect 5 0 7 1;
#X connect 6 0 5 1;
#X connect 7 0 8 0;
#X connect 8 0 13 0;
#X connect 11 0 19 0;
#X connect 11 1 20 1;
#X connect 12 0 20 0;
#X connect 12 1 19 1;
#X connect 13 0 11 0;
#X connect 13 1 12 0;
#X connect 14 0 19 2;
#X connect 14 0 20 2;
#X connect 17 0 19 3;
#X connect 17 0 20 3;
#X connect 18 0 19 4;
#X connect 18 0 20 4;
#X connect 19 0 9 0;
#X connect 19 1 10 0;
#X connect 20 0 9 0;
#X connect 20 1 10 0;
