#N canvas 380 213 450 300 12;
#X obj 73 61 t a b, f 6;
#X obj 120 91 i 0;
#X obj 73 117 until;
#X obj 73 85 max 1;
#X obj 73 141 i;
#X obj 111 147 + 1;
#X obj 67 10 inlet;
#X text 117 6 integer;
#X obj 73 195 outlet;
#X text 127 196 integer;
#X connect 0 0 3 0;
#X connect 0 1 1 0;
#X connect 1 0 4 1;
#X connect 2 0 4 0;
#X connect 3 0 2 0;
#X connect 4 0 5 0;
#X connect 4 0 8 0;
#X connect 5 0 4 1;
#X connect 6 0 0 0;
