#N canvas 536 236 904 611 12;
#X text 114 25 audio;
#X text 552 15 arg 1 : time in ms;
#N canvas 776 170 450 504 capture 0;
#X msg 122 140 stop;
#X msg 106 319 stop;
#X obj 40 360 outlet;
#X obj 209 320 outlet;
#X text 259 317 play;
#X obj 166 140 s \$0-stop;
#X obj 208 277 i 1, f 4;
#X obj 266 279 i 0, f 4;
#X obj 39 12 inlet;
#X obj 39 90 t b b b b b a b, f 44;
#X obj 346 159 i 1;
#X obj 345 244 outlet;
#X text 397 249 ramp;
#X obj 81 189 delay 1000, f 16;
#X obj 81 218 t b b b, f 22;
#X obj 286 222 i 0;
#X msg 25 270 start 0;
#X obj 393 198 s mute-\$0;
#X obj 223 183 - 8;
#X obj 105 287 del 8;
#X obj 392 137 s \$0-clear;
#X connect 0 0 13 0;
#X connect 1 0 2 0;
#X connect 6 0 3 0;
#X connect 7 0 3 0;
#X connect 8 0 9 0;
#X connect 9 0 16 0;
#X connect 9 1 13 0;
#X connect 9 2 0 0;
#X connect 9 3 5 0;
#X connect 9 4 7 0;
#X connect 9 5 18 0;
#X connect 9 6 10 0;
#X connect 9 6 17 0;
#X connect 9 6 20 0;
#X connect 10 0 11 0;
#X connect 13 0 14 0;
#X connect 14 0 6 0;
#X connect 14 1 15 0;
#X connect 14 2 19 0;
#X connect 15 0 11 0;
#X connect 16 0 2 0;
#X connect 18 0 13 1;
#X connect 19 0 1 0;
#X restore 53 128 pd capture;
#X f 16;
#N canvas 0 30 735 300 messages 0;
#X obj 37 37 inlet;
#X obj 402 137 s \$0-chunk;
#X obj 130 175 s \$0-stop;
#X obj 200 151 s \$0-speed;
#N canvas 63 88 450 300 adsr 0;
#X obj 58 16 inlet;
#X obj 58 52 unpack 0 0 0 0;
#X obj 41 147 s \$0-ampA;
#X obj 106 124 s \$0-ampD;
#X obj 138 146 s \$0-ampS;
#X obj 203 123 s \$0-ampR;
#X connect 0 0 1 0;
#X connect 1 0 2 0;
#X connect 1 1 3 0;
#X connect 1 2 4 0;
#X connect 1 3 5 0;
#X restore 221 118 pd adsr;
#X obj 302 142 s \$0-freeze;
#X obj 21 165 s \$0-noteVel;
#X obj 37 70 route vel chunk stop speed adsr freeze;
#X obj 37 94 clip 0 127;
#X connect 0 0 7 0;
#X connect 7 0 8 0;
#X connect 7 2 2 0;
#X connect 7 3 3 0;
#X connect 7 4 4 0;
#X connect 7 5 5 0;
#X connect 7 5 1 0;
#X connect 8 0 6 0;
#X restore 214 55 pd messages;
#X obj 182 543 outlet~;
#N canvas 0 30 489 534 play 0;
#X obj 26 16 inlet;
#X text 74 17 bang;
#X obj 26 90 f 1;
#X obj 60 91 + 1;
#X obj 60 115 == 1;
#X obj 26 164 t a a, f 25;
#X obj 26 188 == 0;
#X obj 26 347 outlet~;
#N canvas 306 30 845 741 play-chunk 0;
#X text 151 198 calculate hz for ms chunk;
#X obj 27 557 *~, f 33;
#X obj 255 437 vline~;
#X obj 255 461 sqrt~;
#X obj 26 151 t b b f, f 31;
#X obj 26 94 1;
#X obj 25 46 sel 1 0, f 73;
#X obj 319 284 0;
#X obj 25 13 inlet;
#X text 76 12 on or off;
#X obj 27 621 outlet~;
#X obj 25 70 t b b b, f 15;
#X obj 27 581 hip~ 5;
#X obj 26 209 t a a, f 8;
#X obj 121 344 * 44.1;
#X obj 26 419 +~ 1;
#X obj 121 368 - 2;
#X obj 26 396 *~, f 14;
#X obj 139 221 r \$0-speed;
#X obj 139 245 t b a;
#X obj 63 124 r \$0-chunk;
#X obj 26 302 * 1, f 10;
#X obj 26 185 f 1000;
#X obj 26 371 vline~;
#X msg 27 337 0 0 \, 1 \$1 0;
#X obj 27 449 tabread4~ array-\$0;
#X obj 441 134 r mute-\$0;
#X obj 255 407 pack 0 8;
#X connect 1 0 12 0;
#X connect 2 0 3 0;
#X connect 3 0 1 1;
#X connect 4 0 22 0;
#X connect 4 2 27 0;
#X connect 5 0 4 0;
#X connect 6 0 11 0;
#X connect 6 1 7 0;
#X connect 7 0 27 0;
#X connect 8 0 6 0;
#X connect 11 0 5 0;
#X connect 12 0 10 0;
#X connect 13 0 21 0;
#X connect 13 1 14 0;
#X connect 14 0 16 0;
#X connect 15 0 25 0;
#X connect 16 0 17 1;
#X connect 17 0 15 0;
#X connect 18 0 19 0;
#X connect 19 1 21 1;
#X connect 20 0 22 1;
#X connect 21 0 24 0;
#X connect 22 0 13 0;
#X connect 23 0 17 0;
#X connect 24 0 23 0;
#X connect 25 0 1 0;
#X connect 26 0 7 0;
#X connect 27 0 2 0;
#X restore 196 266 pd play-chunk;
#N canvas 0 30 670 696 play-chunk 0;
#X text 151 198 calculate hz for ms chunk;
#X obj 27 557 *~, f 33;
#X obj 255 437 vline~;
#X obj 255 461 sqrt~;
#X obj 26 151 t b b f, f 31;
#X obj 26 94 1;
#X obj 25 46 sel 1 0, f 73;
#X obj 319 284 0;
#X obj 25 13 inlet;
#X text 76 12 on or off;
#X obj 27 621 outlet~;
#X obj 25 70 t b b b, f 15;
#X obj 27 581 hip~ 5;
#X obj 26 209 t a a, f 8;
#X obj 121 344 * 44.1;
#X obj 26 419 +~ 1;
#X obj 121 368 - 2;
#X obj 26 396 *~, f 14;
#X obj 139 221 r \$0-speed;
#X obj 139 245 t b a;
#X obj 63 124 r \$0-chunk;
#X obj 26 302 * 1, f 10;
#X obj 26 185 f 1000;
#X obj 26 371 vline~;
#X msg 27 337 0 0 \, 1 \$1 0;
#X obj 27 449 tabread4~ array-\$0;
#X obj 324 247 r mute-\$0;
#X obj 255 407 pack 0 8;
#X connect 1 0 12 0;
#X connect 2 0 3 0;
#X connect 3 0 1 1;
#X connect 4 0 22 0;
#X connect 4 2 27 0;
#X connect 5 0 4 0;
#X connect 6 0 11 0;
#X connect 6 1 7 0;
#X connect 7 0 27 0;
#X connect 8 0 6 0;
#X connect 11 0 5 0;
#X connect 12 0 10 0;
#X connect 13 0 21 0;
#X connect 13 1 14 0;
#X connect 14 0 16 0;
#X connect 15 0 25 0;
#X connect 16 0 17 1;
#X connect 17 0 15 0;
#X connect 18 0 19 0;
#X connect 19 1 21 1;
#X connect 20 0 22 1;
#X connect 21 0 24 0;
#X connect 22 0 13 0;
#X connect 23 0 17 0;
#X connect 24 0 23 0;
#X connect 25 0 1 0;
#X connect 26 0 7 0;
#X connect 27 0 2 0;
#X restore 26 271 pd play-chunk;
#X connect 0 0 2 0;
#X connect 2 0 3 0;
#X connect 2 0 5 0;
#X connect 3 0 4 0;
#X connect 4 0 2 1;
#X connect 5 0 6 0;
#X connect 5 1 8 0;
#X connect 6 0 9 0;
#X connect 8 0 7 0;
#X connect 9 0 7 0;
#X restore 182 426 pd play;
#X obj 182 480 *~, f 13;
#X obj 452 269 t b a b, f 17;
#X text 553 45 arg 2 : default playback speed;
#X obj 364 206 spigot 0;
#X obj 364 162 r \$0-noteVel;
#X obj 364 230 sel 0, f 13;
#X obj 53 97 r \$0-freeze;
#X obj 316 431 sqrt;
#X obj 316 402 / 127;
#X obj 80 196 line~;
#X obj 32 223 *~;
#X msg 495 440 const 0 \;;
#X obj 32 263 tabwrite~ array-\$0;
#X obj 484 494 array define array-\$0 88200;
#X obj 28 24 inlet~ fwd;
#X obj 91 162 pack 0 8;
#X obj 490 414 r \$0-clear;
#X connect 2 0 18 0;
#X connect 2 1 9 1;
#X connect 2 2 21 0;
#X connect 5 0 6 0;
#X connect 6 0 4 0;
#X connect 7 0 5 0;
#X connect 7 1 14 0;
#X connect 9 0 11 0;
#X connect 10 0 9 0;
#X connect 11 1 7 0;
#X connect 12 0 2 0;
#X connect 13 0 6 1;
#X connect 14 0 13 0;
#X connect 15 0 16 1;
#X connect 16 0 18 0;
#X connect 17 0 19 0;
#X connect 20 0 16 0;
#X connect 20 1 3 0;
#X connect 21 0 15 0;
#X connect 22 0 17 0;
