#N canvas 263 117 450 300 12;
#X obj 132 20 inlet;
#X obj 63 260 outlet;
#X obj 63 229 list prepend;
#X obj 97 102 list split 1;
#X obj 266 175 + 1;
#X obj 209 173 i 1;
#X obj 240 146 i 1;
#X obj 139 135 list store;
#X obj 75 148 t b a b;
#X obj 111 68 t a b;
#X obj 64 198 list prepend \$1;
#X connect 0 0 9 0;
#X connect 2 0 1 0;
#X connect 3 0 8 0;
#X connect 3 1 7 1;
#X connect 4 0 5 1;
#X connect 5 0 4 0;
#X connect 5 0 2 1;
#X connect 6 0 5 1;
#X connect 7 0 3 0;
#X connect 8 0 7 0;
#X connect 8 1 10 0;
#X connect 8 2 5 0;
#X connect 9 0 3 0;
#X connect 9 1 6 0;
#X connect 10 0 2 0;
