#N canvas 0 30 450 300 12;
#X obj 57 25 inlet;
#X text 96 24 number;
#X obj 57 49 max 1;
#X obj 57 73 t a b;
#X obj 58 111 until;
#X obj 106 146 + 1;
#X obj 113 107 i 1;
#X obj 58 144 i 1;
#X obj 58 198 outlet;
#X connect 0 0 2 0;
#X connect 2 0 3 0;
#X connect 3 0 4 0;
#X connect 3 1 6 0;
#X connect 4 0 7 0;
#X connect 5 0 7 1;
#X connect 6 0 7 1;
#X connect 7 0 5 0;
#X connect 7 0 8 0;
