#N canvas 455 217 638 396 12;
#X text 114 25 audio;
#X obj 28 160 tabwrite~ \$0-array;
#N canvas 202 172 450 300 capture 0;
#X obj 41 12 inlet;
#X text 90 12 bang;
#X obj 81 139 delay \$1, f 16;
#X msg 122 90 stop;
#X msg 176 201 stop;
#X obj 40 250 outlet;
#X obj 81 168 t b b b, f 14;
#X obj 161 253 outlet;
#X text 212 254 play;
#X obj 190 105 r \$0-chunk;
#X obj 41 46 t b b b b, f 18;
#X obj 164 72 s \$0-finish;
#X obj 237 23 bng 19 250 50 0 empty empty empty 0 -10 0 12 #fcfcfc #000000 #000000;
#X connect 0 0 10 0;
#X connect 2 0 6 0;
#X connect 3 0 2 0;
#X connect 4 0 5 0;
#X connect 6 1 7 0;
#X connect 6 2 4 0;
#X connect 9 0 2 1;
#X connect 10 0 5 0;
#X connect 10 1 2 0;
#X connect 10 2 3 0;
#X connect 10 3 11 0;
#X connect 12 0 10 0;
#X restore 95 86 pd capture;
#N canvas 0 25 735 300 messages 0;
#X obj 37 37 inlet;
#X obj 37 195 outlet;
#X obj 358 139 s \$0-chunk;
#X obj 447 157 s \$0-stop;
#X obj 462 130 s \$0-speed;
#X obj 97 163 s \$0-a;
#X obj 134 135 s \$0-d;
#X obj 193 169 s \$0-s;
#X obj 251 138 s \$0-r;
#X obj 310 209 s \$0-amp;
#X obj 312 175 clip 0 127;
#X obj 37 70 route bang a d s r amp chunk stop speed susTime, f 69;
#X obj 519 102 s \$0-sTime;
#X connect 0 0 11 0;
#X connect 10 0 9 0;
#X connect 11 0 1 0;
#X connect 11 1 5 0;
#X connect 11 2 6 0;
#X connect 11 3 7 0;
#X connect 11 4 8 0;
#X connect 11 5 10 0;
#X connect 11 6 2 0;
#X connect 11 7 3 0;
#X connect 11 8 4 0;
#X connect 11 9 12 0;
#X restore 95 56 pd messages;
#X obj 28 24 inlet~ fwd;
#X obj 184 323 outlet~;
#N canvas 0 25 848 571 play 0;
#X obj 26 16 inlet;
#X text 74 17 bang;
#X obj 26 40 f 1;
#X obj 60 41 + 1;
#X obj 60 65 == 1;
#X obj 26 114 t a a, f 25;
#X obj 26 138 == 0;
#X obj 26 297 outlet~;
#X obj 216 52 r \$0-finish;
#X obj 216 106 0;
#X obj 216 130 t a a;
#X obj 306 52 r \$0-stop;
#N canvas 0 25 670 696 play-chunk 0;
#X obj 27 449 tabread4~ \$0-array;
#X obj 26 341 phasor~;
#X obj 27 533 *~, f 21;
#X obj 171 391 -~ 0.5;
#X obj 171 415 *~ 0.5;
#X obj 171 442 cos~;
#X text 151 198 calculate hz for ms chunk;
#X obj 26 185 f \$1;
#X obj 26 254 swap 1000;
#X obj 26 278 /, f 9;
#X obj 147 279 0;
#X obj 27 557 *~, f 33;
#X obj 255 437 vline~;
#X obj 255 461 sqrt~;
#X obj 255 407 pack 0 3;
#X obj 26 151 t b b f, f 31;
#X obj 26 94 1;
#X obj 25 46 sel 1 0, f 73;
#X obj 256 269 0;
#X obj 25 13 inlet;
#X text 76 12 on or off;
#X obj 27 621 outlet~;
#X msg 412 134 stop;
#X obj 380 219 switch~;
#X obj 380 188 0;
#X obj 380 164 del 3;
#X obj 25 70 t b b b, f 15;
#X obj 348 188 1;
#X obj 356 98 t b b b;
#X obj 27 581 hip~ 5;
#X obj 26 209 t a a, f 8;
#X obj 121 314 * 44.1;
#X obj 26 389 +~ 1;
#X obj 121 338 - 2;
#X obj 26 366 *~, f 14;
#X obj 139 221 r \$0-speed;
#X obj 139 245 t b a;
#X obj 171 500 clip~ 0 1;
#X obj 171 466 *~ 10;
#X obj 71 179 r \$0-chunk;
#X obj 26 302 * \$8, f 10;
#X connect 0 0 2 0;
#X connect 1 0 3 0;
#X connect 1 0 34 0;
#X connect 2 0 11 0;
#X connect 3 0 4 0;
#X connect 4 0 5 0;
#X connect 5 0 38 0;
#X connect 7 0 30 0;
#X connect 8 0 9 0;
#X connect 8 1 9 1;
#X connect 9 0 40 0;
#X connect 10 0 1 1;
#X connect 11 0 29 0;
#X connect 12 0 13 0;
#X connect 13 0 11 1;
#X connect 14 0 12 0;
#X connect 15 0 7 0;
#X connect 15 1 10 0;
#X connect 15 2 14 0;
#X connect 16 0 15 0;
#X connect 17 0 26 0;
#X connect 17 1 28 0;
#X connect 18 0 14 0;
#X connect 19 0 17 0;
#X connect 22 0 25 0;
#X connect 24 0 23 0;
#X connect 25 0 24 0;
#X connect 26 0 16 0;
#X connect 26 1 27 0;
#X connect 26 2 22 0;
#X connect 27 0 23 0;
#X connect 28 0 18 0;
#X connect 28 1 25 0;
#X connect 28 2 22 0;
#X connect 29 0 21 0;
#X connect 30 0 8 0;
#X connect 30 1 31 0;
#X connect 31 0 33 0;
#X connect 32 0 0 0;
#X connect 33 0 34 1;
#X connect 34 0 32 0;
#X connect 35 0 36 0;
#X connect 36 0 40 0;
#X connect 36 1 40 1;
#X connect 37 0 2 1;
#X connect 38 0 37 0;
#X connect 39 0 7 1;
#X connect 40 0 1 0;
#X restore 196 216 pd play-chunk;
#N canvas 0 25 670 696 play-chunk 0;
#X obj 27 449 tabread4~ \$0-array;
#X obj 26 341 phasor~;
#X obj 27 533 *~, f 21;
#X obj 171 391 -~ 0.5;
#X obj 171 415 *~ 0.5;
#X obj 171 442 cos~;
#X text 151 198 calculate hz for ms chunk;
#X obj 26 185 f \$1;
#X obj 26 254 swap 1000;
#X obj 26 278 /, f 9;
#X obj 147 279 0;
#X obj 27 557 *~, f 33;
#X obj 255 437 vline~;
#X obj 255 461 sqrt~;
#X obj 255 407 pack 0 3;
#X obj 26 151 t b b f, f 31;
#X obj 26 94 1;
#X obj 25 46 sel 1 0, f 73;
#X obj 256 269 0;
#X obj 25 13 inlet;
#X text 76 12 on or off;
#X obj 27 621 outlet~;
#X msg 412 134 stop;
#X obj 380 219 switch~;
#X obj 380 188 0;
#X obj 380 164 del 3;
#X obj 25 70 t b b b, f 15;
#X obj 348 188 1;
#X obj 356 98 t b b b;
#X obj 27 581 hip~ 5;
#X obj 26 209 t a a, f 8;
#X obj 121 314 * 44.1;
#X obj 26 389 +~ 1;
#X obj 121 338 - 2;
#X obj 26 366 *~, f 14;
#X obj 139 221 r \$0-speed;
#X obj 139 245 t b a;
#X obj 171 500 clip~ 0 1;
#X obj 171 466 *~ 10;
#X obj 71 179 r \$0-chunk;
#X obj 26 303 * \$8, f 10;
#X connect 0 0 2 0;
#X connect 1 0 3 0;
#X connect 1 0 34 0;
#X connect 2 0 11 0;
#X connect 3 0 4 0;
#X connect 4 0 5 0;
#X connect 5 0 38 0;
#X connect 7 0 30 0;
#X connect 8 0 9 0;
#X connect 8 1 9 1;
#X connect 9 0 40 0;
#X connect 10 0 1 1;
#X connect 11 0 29 0;
#X connect 12 0 13 0;
#X connect 13 0 11 1;
#X connect 14 0 12 0;
#X connect 15 0 7 0;
#X connect 15 1 10 0;
#X connect 15 2 14 0;
#X connect 16 0 15 0;
#X connect 17 0 26 0;
#X connect 17 1 28 0;
#X connect 18 0 14 0;
#X connect 19 0 17 0;
#X connect 22 0 25 0;
#X connect 24 0 23 0;
#X connect 25 0 24 0;
#X connect 26 0 16 0;
#X connect 26 1 27 0;
#X connect 26 2 22 0;
#X connect 27 0 23 0;
#X connect 28 0 18 0;
#X connect 28 1 25 0;
#X connect 28 2 22 0;
#X connect 29 0 21 0;
#X connect 30 0 8 0;
#X connect 30 1 31 0;
#X connect 31 0 33 0;
#X connect 32 0 0 0;
#X connect 33 0 34 1;
#X connect 34 0 32 0;
#X connect 35 0 36 0;
#X connect 36 0 40 0;
#X connect 36 1 40 1;
#X connect 37 0 2 1;
#X connect 38 0 37 0;
#X connect 39 0 7 1;
#X connect 40 0 1 0;
#X restore 26 221 pd play-chunk;
#X connect 0 0 2 0;
#X connect 2 0 3 0;
#X connect 2 0 5 0;
#X connect 3 0 4 0;
#X connect 4 0 2 1;
#X connect 5 0 6 0;
#X connect 5 1 12 0;
#X connect 6 0 13 0;
#X connect 8 0 9 0;
#X connect 9 0 10 0;
#X connect 10 0 13 0;
#X connect 10 1 12 0;
#X connect 11 0 9 0;
#X connect 12 0 7 0;
#X connect 13 0 7 0;
#X restore 184 226 pd play;
#X obj 182 145 t b b, f 11;
#N canvas 561 52 879 616 envelope 0;
#X obj 63 301 outlet~;
#X obj 267 280 s \$0-finish;
#X obj 120 176 sqrt;
#X obj 120 151 / 127;
#X obj 62 267 *~;
#X obj 62 233 adsr~ \$2 \$3 \$4 \$5, f 29;
#X obj 63 61 inlet;
#X text 112 62 note;
#X obj 63 85 sel 0;
#X obj 63 109 i 0;
#X connect 2 0 5 0;
#X connect 3 0 2 0;
#X connect 4 0 0 0;
#X connect 5 0 4 0;
#X connect 5 0 4 1;
#X connect 5 1 1 0;
#X connect 6 0 8 0;
#X connect 8 0 9 0;
#X connect 8 1 3 0;
#X connect 9 0 5 0;
#X restore 271 227 pd envelope;
#X obj 184 290 *~, f 13;
#X obj 349 288 array define \$0-array 88200;
#X text 352 70 arg 4: sustain 0-1;
#X text 351 52 arg 3 : dec ms;
#X text 353 35 arg 2 : att ms;
#X text 351 85 arg 5: sustain time ms;
#X text 351 103 arg 6 : release ms;
#X text 356 127 arg 7 : amplitude 0-127;
#X text 357 151 arg 8 : playback speed;
#X obj 257 192 makenote 60 \$6 \$5;
#X msg 257 170 60;
#X text 352 15 arg 1 : time capture in ms;
#X obj 407 207 r \$0-sTime;
#X obj 260 108 r \$0-amp;
#X floatatom 364 241 5 0 0 0 - - - 0;
#X obj 364 264 bng 19 250 50 0 empty empty empty 0 -10 0 12 #fcfcfc #000000 #000000;
#X obj 202 39 bng 19 250 50 0 empty empty empty 0 -10 0 12 #fcfcfc #000000 #000000;
#X connect 2 0 1 0;
#X connect 2 1 7 0;
#X connect 3 0 2 0;
#X connect 4 0 1 0;
#X connect 4 1 3 0;
#X connect 6 0 9 0;
#X connect 7 0 6 0;
#X connect 7 1 19 0;
#X connect 8 0 9 1;
#X connect 9 0 5 0;
#X connect 18 1 8 0;
#X connect 18 1 23 0;
#X connect 19 0 18 0;
#X connect 21 0 18 2;
#X connect 22 0 18 1;
#X connect 23 0 24 0;
#X connect 25 0 2 0;
