#N canvas 418 181 717 482 12;
#X obj 244 118 t a a, f 13;
#X obj 244 175 -;
#X obj 18 356 *~;
#X obj 182 359 *~;
#X obj 36 299 line~;
#X obj 332 268 line~;
#X obj 18 22 inlet~;
#X text 74 22 mono;
#X obj 244 25 inlet;
#X text 295 22 fade 0-1;
#X obj 244 147 swap 1;
#X obj 332 225 pack 0 \$1;
#X obj 36 266 pack 0 \$1;
#X text 420 33 Arg1: fade animation time;
#X obj 18 409 outlet~;
#X text 26 436 left;
#X obj 182 410 outlet~;
#X text 199 439 right;
#X obj 332 302 sqrt~;
#X obj 36 323 sqrt~;
#X connect 0 0 10 0;
#X connect 0 1 11 0;
#X connect 1 0 12 0;
#X connect 2 0 14 0;
#X connect 3 0 16 0;
#X connect 4 0 19 0;
#X connect 5 0 18 0;
#X connect 6 0 2 0;
#X connect 6 0 3 0;
#X connect 8 0 0 0;
#X connect 10 0 1 0;
#X connect 10 1 1 1;
#X connect 11 0 5 0;
#X connect 12 0 4 0;
#X connect 18 0 3 1;
#X connect 19 0 2 1;
