#N canvas 217 25 953 834 12;
#X obj 102 179 tgl 15 0 empty empty empty 17 7 0 10 #fcfcfc #000000 #000000 0 1;
#X text 229 4 Main control for multi-track recording;
#X obj 50 295 sel 0 1, f 16;
#X msg 104 480 1;
#X obj 104 686 s j-rec-\$1-start;
#X floatatom 103 155 5 0 0 0 - - - 0;
#X obj 104 633 pack 0 0 s, f 17;
#X msg 50 636 0;
#X obj 333 330 savepanel;
#X obj 101 118 bng 20 250 50 0 empty empty empty 17 7 0 10 #fc8000 #000000 #000000;
#X obj 104 432 spigot 0;
#X obj 104 322 t b b;
#X obj 136 346 spigot 1;
#X msg 377 383 1;
#X text 100 139 Take Number;
#X msg 25 77 1;
#X text 118 179 Start Rec;
#X obj 333 411 symbol;
#X text 186 46 Arg 1: Global Name to match the j-record-track;
#X floatatom 191 179 5 0 0 0 - - - 0;
#X msg 172 522 1;
#X obj 48 506 t b b b;
#X msg 94 530 0;
#X msg 354 520 save space not selected!!!!;
#X obj 172 597 s \$0-local-count;
#X obj 191 77 r \$0-local-count;
#X obj 333 353 t a b b, f 13;
#X msg 421 379 0;
#X obj 354 489 t b b;
#X msg 423 489 0;
#X text 191 162 time;
#X obj 172 567 j-timer-seconds;
#X text 121 118 Name Sound File;
#X text 477 121 Use this with:;
#X text 515 171 and/or;
#X obj 354 543 print j-record-main;
#X obj 104 457 t b b b, f 20;
#X text 480 146 j-record-stereo~;
#X text 478 191 j-record-mono~;
#X obj 25 45 loadbang;
#X connect 0 0 2 0;
#X connect 2 0 21 0;
#X connect 2 1 11 0;
#X connect 3 0 6 0;
#X connect 5 0 6 1;
#X connect 6 0 4 0;
#X connect 7 0 4 0;
#X connect 8 0 26 0;
#X connect 9 0 8 0;
#X connect 10 0 36 0;
#X connect 11 0 10 0;
#X connect 11 1 12 0;
#X connect 12 0 28 0;
#X connect 13 0 10 1;
#X connect 15 0 5 0;
#X connect 17 0 6 2;
#X connect 20 0 31 0;
#X connect 21 0 7 0;
#X connect 21 2 22 0;
#X connect 22 0 31 0;
#X connect 23 0 35 0;
#X connect 25 0 19 0;
#X connect 26 0 17 0;
#X connect 26 1 13 0;
#X connect 26 2 27 0;
#X connect 27 0 12 1;
#X connect 28 0 23 0;
#X connect 28 1 29 0;
#X connect 29 0 0 0;
#X connect 31 0 24 0;
#X connect 36 0 3 0;
#X connect 36 1 20 0;
#X connect 36 2 31 1;
#X connect 39 0 15 0;
#X coords 0 -1 1 1 130 100 1 100 100;
