#N canvas 0 25 980 523 12;
#X text 563 34 Arg 1: Global Name;
#X obj 297 29 r j-rec-\$1-start;
#X obj 478 352 list prepend open -bytes 3;
#X obj 478 202 symbol my-song;
#X obj 478 375 list trim;
#X msg 358 293 start;
#X msg 297 293 stop;
#X obj 297 52 route 0 1;
#X obj 359 115 unpack 0 s, f 31;
#X obj 327 79 t b a;
#X obj 297 115 t b;
#X obj 573 165 symbol;
#X obj 231 479 writesf~ 2;
#X obj 589 234 symbol \$2;
#X text 563 58 Arg 2: Name of Track;
#X obj 358 154 t b b b, f 27;
#X obj 478 295 pack s s 0;
#X msg 478 324 \$1-take\$3-\$2.wav;
#X text 620 93 ***This works only with j-record-main;
#X obj 24 14 inlet~;
#X obj 124 14 inlet~;
#X obj 26 208 outlet~;
#X obj 125 208 outlet~;
#X text 24 244 pass through;
#X connect 1 0 7 0;
#X connect 2 0 4 0;
#X connect 3 0 16 0;
#X connect 4 0 12 0;
#X connect 5 0 12 0;
#X connect 6 0 12 0;
#X connect 7 0 10 0;
#X connect 7 1 9 0;
#X connect 8 0 16 2;
#X connect 8 1 11 0;
#X connect 9 0 15 0;
#X connect 9 1 8 0;
#X connect 10 0 6 0;
#X connect 11 0 3 1;
#X connect 13 0 16 1;
#X connect 15 0 5 0;
#X connect 15 1 3 0;
#X connect 15 2 13 0;
#X connect 16 0 17 0;
#X connect 17 0 2 0;
#X connect 19 0 12 0;
#X connect 19 0 21 0;
#X connect 20 0 12 1;
#X connect 20 0 22 0;
