#N canvas 432 25 989 604 12;
#X obj 33 21 inlet;
#X text 81 24 messages;
#X obj 33 166 soundfiler;
#X obj 398 66 array define \$1-\$2-L;
#X obj 398 95 array define \$1-\$2-R;
#X text 550 64 default mono;
#X obj 33 136 list trim;
#X obj 33 112 list append \$1-\$2-L \$1-\$2-R;
#X obj 33 88 list prepend read -resize;
#X obj 33 338 v \$1-\$2-length;
#X obj 154 238 v \$1-\$2-stereo;
#X obj 100 199 unpack 0 0 0 0 s;
#X connect 0 0 8 0;
#X connect 2 0 9 0;
#X connect 2 1 11 0;
#X connect 6 0 2 0;
#X connect 7 0 6 0;
#X connect 8 0 7 0;
#X connect 11 2 10 0;
