#N canvas 415 25 993 847 12;
#X obj 111 491 r \$0-duration-s;
#X obj 44 546 *~, f 10;
#X obj 44 611 tabread4~;
#X obj 69 323 s~ \$0-phazzee;
#X obj 44 704 *~, f 23;
#X obj 43 294 phasor~, f 26;
#X obj 43 214 vline~;
#X obj 111 521 - 2;
#X obj 44 577 +~ 1;
#X obj 43 267 *~ 1, f 8;
#N canvas 4 50 450 300 size-change 0;
#X obj 139 40 r \$0-chunk-size;
#X obj 139 134 samphold~;
#X obj 199 99 r~ \$0-phazzee;
#X obj 139 207 outlet~;
#X obj 139 93 sig~ 1;
#X msg 77 89 set 1;
#X obj 72 40 r \$0-init;
#X connect 0 0 4 0;
#X connect 1 0 3 0;
#X connect 2 0 1 1;
#X connect 4 0 1 0;
#X connect 5 0 1 0;
#X connect 6 0 5 0;
#X restore 111 351 pd size-change;
#N canvas 4 50 450 300 start-change 0;
#X obj 139 40 r \$0-start-point;
#X obj 139 134 samphold~;
#X obj 199 99 r~ \$0-phazzee;
#X obj 139 177 outlet~;
#X obj 139 93 sig~ 0;
#X obj 72 40 r \$0-init;
#X msg 77 89 set 0;
#X connect 0 0 4 0;
#X connect 1 0 3 0;
#X connect 2 0 1 1;
#X connect 4 0 1 0;
#X connect 5 0 6 0;
#X connect 6 0 1 0;
#X restore 132 385 pd start-change;
#N canvas 365 91 369 523 env-phase 0;
#X obj 103 173 r~ \$0-phazzee;
#X obj 103 362 outlet~;
#X obj 103 211 -~ 0.5;
#X obj 103 235 *~ 0.5;
#X obj 103 263 cos~;
#X obj 103 315 clip~ 0 1;
#X obj 103 288 *~ 100;
#X connect 0 0 2 0;
#X connect 2 0 3 0;
#X connect 3 0 4 0;
#X connect 4 0 6 0;
#X connect 5 0 1 0;
#X connect 6 0 5 0;
#X restore 378 638 pd env-phase;
#X obj 44 665 *~, f 16;
#X obj 56 464 s~ \$0-phazzee-clck;
#N canvas 4 50 450 300 avoid-clks-og-sample 0;
#X obj 94 91 -~ 0.5;
#X obj 94 115 *~ 0.5;
#X obj 94 138 cos~;
#X obj 94 180 clip~ 0 1;
#X text 55 43 avoids clicks in original sample;
#X obj 94 67 r~ \$0-phazzee-clck;
#X obj 94 201 outlet~;
#X obj 94 159 *~ 100;
#X connect 0 0 1 0;
#X connect 1 0 2 0;
#X connect 2 0 7 0;
#X connect 3 0 6 0;
#X connect 5 0 0 0;
#X connect 7 0 3 0;
#X restore 241 614 pd avoid-clks-og-sample;
#X obj 44 436 wrap~;
#X obj 44 755 hip~ 4;
#X obj 44 793 outlet~;
#X obj 43 182 pack 0 0;
#X obj 96 240 r \$0-direction;
#X obj 96 153 r \$0-ramptime;
#X obj 43 13 inlet;
#X obj 44 727 *~, f 30;
#X obj 428 237 t a;
#X obj 587 596 vline~;
#X msg 390 185 1 8;
#X msg 585 173 0 8;
#X obj 587 619 pow~ 2;
#N canvas 5 25 1294 692 messages 0;
#X obj 37 37 inlet;
#X obj 38 346 s \$0-pitch;
#X obj 72 314 s \$0-chunk-size;
#X obj 127 288 s \$0-dsp;
#X obj 199 291 s \$0-direction;
#X obj 199 236 sel 0 1;
#X msg 199 259 1;
#X msg 237 259 -1;
#X obj 292 262 s \$0-ramptime;
#X obj 292 234 max 0;
#X obj 60 243 clip 0 1;
#X obj 249 374 s \$0-start-point;
#X obj 267 343 clip 0 1;
#X obj 357 234 s \$0-stop;
#X obj 410 359 list prepend set;
#X obj 410 383 list trim;
#X obj 410 425 s \$0-2-tabreadL;
#X obj 454 253 list prepend set;
#X obj 454 277 list trim;
#X obj 453 319 s \$0-2-tabreadR;
#X obj 623 257 s \$0-stereo;
#X obj 530 113 route sample;
#N canvas 0 25 450 300 sampleRate 0;
#X obj 59 174 s \$0-duration;
#X obj 91 114 s \$0-duration-s;
#X obj 59 88 t f f;
#X obj 60 30 inlet;
#X obj 59 139 / 44.1;
#X connect 2 0 4 0;
#X connect 2 1 1 0;
#X connect 3 0 2 0;
#X connect 4 0 0 0;
#X restore 530 150 pd sampleRate;
#X obj 36 64 route pitch size switch backwards ramptime start stop readL readR stereo, f 71;
#X obj 330 453 t b a;
#X obj 330 477 s \$0-init;
#X obj 624 227 expr if($f1 > 1 \, 1 \, 0);
#X connect 0 0 23 0;
#X connect 5 0 6 0;
#X connect 5 1 7 0;
#X connect 6 0 4 0;
#X connect 7 0 4 0;
#X connect 9 0 8 0;
#X connect 10 0 2 0;
#X connect 12 0 11 0;
#X connect 14 0 15 0;
#X connect 15 0 16 0;
#X connect 17 0 18 0;
#X connect 18 0 19 0;
#X connect 21 0 22 0;
#X connect 23 0 1 0;
#X connect 23 1 10 0;
#X connect 23 2 3 0;
#X connect 23 3 5 0;
#X connect 23 4 9 0;
#X connect 23 5 12 0;
#X connect 23 6 13 0;
#X connect 23 7 24 0;
#X connect 23 8 17 0;
#X connect 23 9 26 0;
#X connect 23 10 21 0;
#X connect 24 0 25 0;
#X connect 24 1 14 0;
#X connect 26 0 20 0;
#X restore 428 65 pd messages;
#X obj 585 105 r \$0-stop;
#X obj 428 39 inlet;
#X obj 337 795 outlet~;
#X obj 91 573 r \$0-2-tabreadL;
#N canvas 0 25 572 417 stereo 0;
#X obj 37 73 inlet~;
#X obj 97 73 inlet~;
#X obj 177 73 inlet~;
#X obj 267 73 inlet~;
#X obj 381 62 inlet;
#X text 389 86 on/off;
#X obj 188 353 outlet~;
#X obj 189 325 hip~ 4;
#X obj 189 175 tabread4~;
#X obj 226 114 r \$0-2-tabreadR;
#X obj 189 239 *~;
#X obj 189 263 *~, f 13;
#X obj 189 287 *~, f 23;
#X obj 381 143 switch~;
#X obj 189 199 *~;
#X obj 328 80 inlet;
#X connect 0 0 8 0;
#X connect 1 0 10 1;
#X connect 2 0 11 1;
#X connect 3 0 12 1;
#X connect 4 0 13 0;
#X connect 7 0 6 0;
#X connect 8 0 14 0;
#X connect 9 0 8 0;
#X connect 10 0 11 0;
#X connect 11 0 12 0;
#X connect 12 0 7 0;
#X connect 14 0 10 0;
#X connect 15 0 14 1;
#X restore 337 765 pd stereo;
#X f 36;
#X obj 586 730 r \$0-stereo;
#N canvas 4 50 450 777 calc 0;
#X obj 102 36 inlet;
#X obj 102 232 / 261.626;
#X obj 102 254 / 2;
#X obj 102 209 mtof;
#X obj 64 368 f;
#X obj 102 283 t b a;
#X obj 64 326 r \$0-duration;
#X obj 62 633 /;
#X msg 62 611 1000 \$1;
#X obj 123 149 t b a;
#X obj 62 674 outlet;
#X obj 162 401 t b f;
#X obj 162 375 r \$0-chunk-size;
#X obj 123 127 r \$0-pitch;
#X obj 64 431 * 1, f 19;
#X obj 64 390 / 1, f 9;
#X obj 102 183 + 0, f 8;
#X obj 102 101 f 72;
#X text 149 34 bang;
#X text 270 490 one shot or loop?;
#X obj 199 665 outlet;
#N canvas 0 25 450 300 stop-dsp 0;
#X obj 62 22 inlet;
#X msg 108 86 stop;
#X obj 62 136 del 8;
#X obj 62 46 t b a b;
#X obj 216 29 inlet;
#X text 263 29 stop;
#X obj 216 53 t b;
#X obj 62 160 outlet;
#X connect 0 0 3 0;
#X connect 1 0 2 0;
#X connect 2 0 7 0;
#X connect 3 0 2 0;
#X connect 3 1 2 1;
#X connect 3 2 1 0;
#X connect 4 0 6 0;
#X connect 6 0 1 0;
#X restore 199 624 pd stop-dsp;
#X obj 273 591 r \$0-stop-delay;
#X obj 199 594 - 8;
#X obj 199 561 spigot \$1;
#X obj 64 455 t a a, f 15;
#X connect 0 0 17 0;
#X connect 1 0 2 0;
#X connect 2 0 5 0;
#X connect 3 0 1 0;
#X connect 4 0 15 0;
#X connect 5 0 4 0;
#X connect 5 1 15 1;
#X connect 6 0 4 0;
#X connect 7 0 10 0;
#X connect 8 0 7 0;
#X connect 9 0 16 0;
#X connect 9 1 16 1;
#X connect 11 0 4 0;
#X connect 11 1 14 1;
#X connect 12 0 11 0;
#X connect 13 0 9 0;
#X connect 14 0 25 0;
#X connect 15 0 14 0;
#X connect 16 0 3 0;
#X connect 17 0 16 0;
#X connect 21 0 20 0;
#X connect 22 0 21 1;
#X connect 23 0 21 0;
#X connect 24 0 23 0;
#X connect 25 0 8 0;
#X connect 25 1 24 0;
#X restore 43 99 pd calc speed;
#X obj 598 281 switch~;
#X obj 249 241 0;
#X obj 44 376 *~, f 10;
#X obj 44 409 +~, f 13;
#X obj 597 234 1;
#X obj 585 130 t b b;
#N canvas 0 25 450 300 stop-dsp 0;
#X obj 62 22 inlet;
#X msg 108 86 stop;
#X obj 62 136 del 8;
#X obj 62 46 t b a b;
#X obj 216 29 inlet;
#X text 263 29 stop;
#X obj 216 53 t b;
#X obj 62 160 outlet;
#X connect 0 0 3 0;
#X connect 1 0 2 0;
#X connect 2 0 7 0;
#X connect 3 0 2 0;
#X connect 3 1 2 1;
#X connect 3 2 1 0;
#X connect 4 0 6 0;
#X connect 6 0 1 0;
#X restore 652 187 pd stop-dsp;
#X obj 652 231 0;
#X obj 389 119 t b b b;
#X obj 435 151 s \$0-stop-delay;
#X obj 726 154 r \$0-stop-delay;
#X obj 652 159 8;
#X obj 131 125 s \$0-stop;
#X text 549 12 Arg1: 1 = one shot \, 0 = loop;
#X obj 44 635 *~, f 15;
#X obj 337 345 / 127;
#X obj 337 369 t a a;
#X obj 352 298 clip 0 127;
#X obj 43 39 t b b a b, f 50;
#X msg 139 1 120;
#X obj 207 821 *~;
#X obj 222 766 r \$0-stereo;
#X obj 222 790 == 0;
#X floatatom 628 757 5 0 0 0 - - - 0;
#X floatatom 282 829 5 0 0 0 - - - 0;
#X connect 0 0 7 0;
#X connect 1 0 8 0;
#X connect 2 0 51 0;
#X connect 4 0 23 0;
#X connect 5 0 3 0;
#X connect 5 0 39 0;
#X connect 6 0 9 0;
#X connect 7 0 1 1;
#X connect 8 0 2 0;
#X connect 8 0 34 0;
#X connect 9 0 5 0;
#X connect 10 0 39 1;
#X connect 11 0 40 1;
#X connect 12 0 4 1;
#X connect 12 0 34 2;
#X connect 13 0 4 0;
#X connect 15 0 13 1;
#X connect 15 0 34 1;
#X connect 16 0 1 0;
#X connect 16 0 14 0;
#X connect 17 0 18 0;
#X connect 17 0 57 0;
#X connect 19 0 6 0;
#X connect 20 0 9 1;
#X connect 21 0 19 1;
#X connect 22 0 55 0;
#X connect 23 0 17 0;
#X connect 24 0 25 0;
#X connect 25 0 28 0;
#X connect 26 0 24 0;
#X connect 27 0 24 0;
#X connect 28 0 23 1;
#X connect 28 0 34 3;
#X connect 30 0 42 0;
#X connect 31 0 29 0;
#X connect 33 0 2 0;
#X connect 34 0 32 0;
#X connect 35 0 34 5;
#X connect 35 0 60 0;
#X connect 36 0 19 0;
#X connect 36 1 49 0;
#X connect 38 0 5 1;
#X connect 39 0 40 0;
#X connect 40 0 16 0;
#X connect 41 0 37 0;
#X connect 42 0 27 0;
#X connect 42 1 48 0;
#X connect 43 0 44 0;
#X connect 44 0 37 0;
#X connect 45 0 26 0;
#X connect 45 1 41 0;
#X connect 45 2 46 0;
#X connect 47 0 43 1;
#X connect 48 0 43 0;
#X connect 51 0 13 0;
#X connect 52 0 53 0;
#X connect 53 0 51 1;
#X connect 53 1 34 4;
#X connect 54 0 52 0;
#X connect 55 0 36 0;
#X connect 55 1 38 0;
#X connect 55 2 54 0;
#X connect 55 3 45 0;
#X connect 56 0 55 0;
#X connect 57 0 32 0;
#X connect 58 0 59 0;
#X connect 59 0 57 1;
#X connect 59 0 61 0;
