#N canvas 207 133 969 685 12;
#X obj 98 151 sel 0, f 25;
#X obj 307 206 + 1;
#X obj 307 238 == 1;
#X obj 272 514 outlet~;
#X text 727 475 use this with an envelope;
#X obj 98 321 s \$0-right-stop;
#X obj 130 267 s \$0-left-stop;
#X obj 306 395 r \$0-left-stop;
#X obj 454 397 r \$0-right-stop;
#X msg 130 231 stop;
#X msg 98 297 stop;
#X obj 533 342 r \$0-messages;
#X obj 398 43 s \$0-messages;
#X obj 31 23 inlet;
#X obj 398 20 inlet;
#X text 466 16 messages;
#X obj 652 475 outlet;
#X text 699 475 vel;
#X obj 523 507 outlet~;
#X obj 272 315 sel 0 1, f 48;
#X obj 270 205 f 1;
#X obj 98 204 t b b;
#X obj 272 341 t b b;
#X obj 438 345 t b b;
#X msg 310 372 stop;
#X msg 468 370 stop;
#X text 580 23 Arg1: 1 = one shot \, 0 = loop;
#X obj 270 179 t b a, f 13;
#X obj 359 222 s \$0-vel;
#X obj 652 449 r \$0-vel;
#X obj 390 201 v \$0-velV;
#X obj 186 376 v \$0-velV;
#X obj 398 367 v \$0-velV;
#X obj 272 420 j-sample-voice~ \$2;
#X obj 438 424 j-sample-voice~ \$2;
#X connect 0 0 21 0;
#X connect 0 1 27 0;
#X connect 1 0 2 0;
#X connect 2 0 20 1;
#X connect 7 0 33 1;
#X connect 8 0 34 1;
#X connect 9 0 6 0;
#X connect 10 0 5 0;
#X connect 11 0 33 1;
#X connect 11 0 34 1;
#X connect 13 0 0 0;
#X connect 14 0 12 0;
#X connect 19 0 22 0;
#X connect 19 1 23 0;
#X connect 20 0 1 0;
#X connect 20 0 19 0;
#X connect 21 0 10 0;
#X connect 21 1 9 0;
#X connect 22 0 31 0;
#X connect 22 1 24 0;
#X connect 23 0 32 0;
#X connect 23 1 25 0;
#X connect 24 0 34 1;
#X connect 25 0 33 1;
#X connect 27 0 20 0;
#X connect 27 1 28 0;
#X connect 27 1 30 0;
#X connect 29 0 16 0;
#X connect 31 0 33 0;
#X connect 32 0 34 0;
#X connect 33 0 3 0;
#X connect 33 1 18 0;
#X connect 34 0 3 0;
#X connect 34 1 18 0;
