#N canvas 432 25 989 604 12;
#X obj 33 21 inlet;
#X text 81 24 messages;
#X obj 33 166 soundfiler;
#X text 558 64 default mono;
#X obj 33 136 list trim;
#X obj 33 88 list prepend read -resize;
#X obj 100 199 unpack 0 0 0 0 s;
#X obj 398 66 array define \$2-\$1-L 1;
#X obj 398 95 array define \$2-\$1-R 1;
#X obj 33 112 list append \$2-\$1-L \$2-\$1-R;
#X obj 154 238 v \$2-\$1-stereo;
#X obj 33 338 v \$2-\$1-length;
#X obj 33 45 route read;
#X connect 0 0 12 0;
#X connect 2 0 11 0;
#X connect 2 1 6 0;
#X connect 4 0 2 0;
#X connect 5 0 9 0;
#X connect 6 2 10 0;
#X connect 9 0 4 0;
#X connect 12 0 5 0;
