#N canvas 374 450 450 300 12;
#X obj 19 12 inlet;
#N canvas 425 64 658 600 messages 1;
#X obj 37 37 inlet;
#X text 356 51 load and save paths to samples;
#X obj 360 78 r \$0-2-text;
#X obj 82 293 list trim;
#X obj 82 321 s \$0-2-text;
#N canvas 555 95 885 401 openpanel-stuff 0;
#X obj 35 4 inlet;
#X obj 35 60 openpanel;
#X text 154 7 get absolute path as a symbol;
#X obj 58 139 list prepend;
#X obj 58 163 t a a;
#X obj 90 223 list trim;
#X obj 58 347 outlet;
#X text 109 350 to clone;
#X obj 90 196 list prepend, f 19;
#N canvas 0 25 450 300 how-many-channels 0;
#X obj 62 14 inlet;
#X obj 170 221 outlet;
#X obj 63 107 soundfiler;
#X obj 63 54 list prepend read;
#X obj 63 79 list trim;
#X obj 130 135 list split 3;
#X obj 130 163 list split 2;
#X connect 0 0 3 0;
#X connect 2 1 5 0;
#X connect 3 0 4 0;
#X connect 4 0 2 0;
#X connect 5 0 6 0;
#X connect 6 1 1 0;
#X restore 139 110 pd how-many-channels;
#X obj 90 316 text set \$1-paths, f 42;
#X obj 342 233 text search \$1-paths;
#X obj 342 263 text delete \$1-paths;
#X obj 187 287 1e+09;
#X obj 35 32 t b a, f 56;
#X obj 304 167 f;
#X obj 90 247 t a b;
#X obj 34 83 t a a b, f 38;
#X obj 304 191 t a a;
#X connect 0 0 14 0;
#X connect 1 0 17 0;
#X connect 3 0 4 0;
#X connect 4 0 6 0;
#X connect 4 1 8 0;
#X connect 5 0 16 0;
#X connect 8 0 5 0;
#X connect 9 0 3 1;
#X connect 11 0 12 0;
#X connect 13 0 10 1;
#X connect 14 0 1 0;
#X connect 14 1 15 1;
#X connect 15 0 18 0;
#X connect 16 0 10 0;
#X connect 16 1 13 0;
#X connect 17 0 3 0;
#X connect 17 1 9 0;
#X connect 17 2 15 0;
#X connect 18 0 8 1;
#X connect 18 1 11 0;
#X restore 38 425 pd openpanel-stuff;
#X obj 360 105 text define \$1-paths;
#X obj 38 479 outlet;
#X text 343 134 sample number \, number of channels \, path;
#X obj 82 264 list prepend write;
#N canvas 0 25 633 756 big 0;
#X obj 187 179 list trim;
#X obj 187 207 s \$0-2-text;
#X obj 187 150 list prepend read;
#X obj 113 25 inlet;
#X obj 113 49 t b a, f 11;
#X obj 113 282 f;
#X obj 148 282 + 1;
#X obj 113 221 t a b, f 8;
#X obj 113 245 until;
#X obj 113 191 max 1;
#X obj 113 161 f \$2;
#X obj 113 318 text search \$1-paths;
#X obj 166 246 1;
#X obj 113 342 route bang;
#X obj 180 371 text get \$1-paths;
#X obj 180 399 list split 2;
#X obj 180 459 list append;
#X obj 180 423 list split 1;
#X obj 180 483 outlet;
#X connect 0 0 1 0;
#X connect 2 0 0 0;
#X connect 3 0 4 0;
#X connect 4 0 10 0;
#X connect 4 1 2 0;
#X connect 5 0 6 0;
#X connect 5 0 11 0;
#X connect 6 0 5 1;
#X connect 7 0 8 0;
#X connect 7 1 12 0;
#X connect 8 0 5 0;
#X connect 9 0 7 0;
#X connect 10 0 9 0;
#X connect 11 0 13 0;
#X connect 12 0 5 1;
#X connect 13 1 14 0;
#X connect 14 0 15 0;
#X connect 15 0 17 0;
#X connect 15 1 16 1;
#X connect 16 0 18 0;
#X connect 17 0 16 0;
#X restore 183 425 pd big init;
#N canvas 0 25 450 300 if-empty-dont-save 0;
#X obj 74 25 inlet;
#X text 123 27 bang;
#X obj 74 49 t a b;
#X obj 72 164 spigot 0;
#X obj 72 188 outlet;
#X obj 106 75 text size \$1-paths;
#X obj 106 99 > 0;
#X connect 0 0 2 0;
#X connect 2 0 3 0;
#X connect 2 1 5 0;
#X connect 3 0 4 0;
#X connect 5 0 6 0;
#X connect 6 0 3 1;
#X restore 82 199 pd if-empty-dont-save;
#X obj 37 61 route load write read;
#X connect 0 0 12 0;
#X connect 2 0 6 0;
#X connect 3 0 4 0;
#X connect 5 0 7 0;
#X connect 9 0 3 0;
#X connect 10 0 7 0;
#X connect 11 0 9 0;
#X connect 12 0 5 0;
#X connect 12 1 11 0;
#X connect 12 2 10 0;
#X restore 19 36 pd messages;
#X text 160 27 Arg1 = sample bank name;
#X text 160 54 Arg2 = how many samples;
#X obj 19 206 clone -s 1 \$2 j-sample-bank-voice \$1;
#X text 160 81 Arg3 = path to textfile to save paths;
#X msg 53 159 vis 2 1;
#X connect 0 0 1 0;
#X connect 1 0 4 0;
#X connect 6 0 4 0;
