#N canvas 0 25 729 615 12;
#X obj 42 203 t a a, f 10;
#X obj 42 384 +, f 32;
#X obj 42 257 * 0.01;
#X obj 42 99 metro 1000;
#X obj 230 62 0;
#X obj 42 435 outlet;
#X text 97 436 min;
#X obj 230 13 inlet;
#X text 274 15 reset;
#X obj 42 13 inlet;
#X text 90 15 0-off-1-on;
#X obj 230 38 t b, f 6;
#X obj 42 159 f, f 12;
#X obj 190 160 + 1;
#X obj 42 227 % 60;
#X obj 126 265 / 60;
#X obj 126 289 i;
#X obj 230 86 t f f;
#X connect 0 0 14 0;
#X connect 0 1 15 0;
#X connect 1 0 5 0;
#X connect 2 0 1 0;
#X connect 3 0 12 0;
#X connect 4 0 17 0;
#X connect 7 0 11 0;
#X connect 9 0 3 0;
#X connect 11 0 4 0;
#X connect 12 0 13 0;
#X connect 12 0 0 0;
#X connect 13 0 12 1;
#X connect 14 0 2 0;
#X connect 15 0 16 0;
#X connect 16 0 1 1;
#X connect 17 0 12 1;
#X connect 17 1 1 1;
