#N canvas 179 204 947 520 12;
#X text 195 8 Delay;
#X text 45 59 Arg1: max delay time \, buffer;
#X obj 420 157 delread4~ \$0-del \$1;
#X obj 420 182 hip~ 4;
#X obj 420 376 outlet~;
#X obj 420 125 lop~ 10;
#X obj 420 41 clip 0 \$1;
#X obj 527 267 *~;
#X obj 648 163 lop~ 20;
#X text 45 79 Arg2: delay time;
#X text 45 99 Arg3: feedback amount;
#X obj 420 96 sig~ \$2;
#X obj 648 130 sig~ \$3;
#X text 114 24 Audio In;
#X obj 420 17 inlet;
#X text 470 15 time;
#X obj 648 17 inlet;
#X text 694 14 feedback;
#X obj 648 41 clip 0 0.99999;
#X msg 133 227 clear;
#X obj 26 18 inlet~ fwd;
#X obj 107 166 route clear;
#X obj 25 377 delwrite~ \$0-del 5000;
#X connect 2 0 3 0;
#X connect 3 0 4 0;
#X connect 3 0 7 0;
#X connect 5 0 2 0;
#X connect 6 0 11 0;
#X connect 7 0 22 0;
#X connect 8 0 7 1;
#X connect 11 0 5 0;
#X connect 12 0 8 0;
#X connect 14 0 6 0;
#X connect 16 0 18 0;
#X connect 18 0 12 0;
#X connect 19 0 22 0;
#X connect 20 0 22 0;
#X connect 20 1 21 0;
#X connect 21 0 19 0;
