#N canvas 263 117 450 393 12;
#X obj 78 74 ctlin, f 16;
#X floatatom 64 111 5 0 0 0 - - - 0;
#X floatatom 118 105 5 0 0 0 - - - 0;
#X floatatom 190 115 5 0 0 0 - - - 0;
#X obj 108 236 pack 0 0 0;
#X obj 100 187 f;
#X obj 136 185 f;
#X obj 108 260 s my-ctl-in;
#X obj 179 142 t b b a;
#X connect 0 0 1 0;
#X connect 0 0 8 0;
#X connect 0 1 2 0;
#X connect 0 1 5 1;
#X connect 0 2 3 0;
#X connect 0 2 6 1;
#X connect 4 0 7 0;
#X connect 5 0 4 1;
#X connect 6 0 4 0;
#X connect 8 0 5 0;
#X connect 8 1 6 0;
#X connect 8 2 4 2;
