#N canvas 362 50 797 822 12;
#X obj 188 207 adsr~ 3 3 1 3, f 23;
#X obj 188 157 / 127;
#X obj 188 181 sqrt;
#X obj 38 239 *~;
#X obj 20 19 inlet~ fwd;
#X obj 105 720 *~;
#X obj 188 231 *~;
#X obj 435 350 / 127;
#X obj 435 374 sqrt;
#X obj 435 424 *~;
#X msg 66 96 69;
#X msg 44 442 clear;
#X obj 435 400 adsr~ \$2 \$3 \$4 \$5, f 23;
#X msg 267 264 69;
#X obj 156 82 s \$0-a;
#X obj 206 87 s \$0-d;
#X obj 265 88 s \$0-s;
#X obj 314 93 s \$0-r;
#X obj 483 351 r \$0-a;
#X obj 533 356 r \$0-d;
#X obj 592 357 r \$0-s;
#X obj 641 362 r \$0-r;
#X obj 384 78 s \$0-susTime;
#X obj 394 201 r \$0-susTime;
#X text 539 41 Arg 1 capture time ms;
#X text 538 61 Arg 2 attack time ms;
#X text 531 83 aRg 3 delay time ms;
#X text 536 116 Arg 4 sustain 0-1, f 23;
#X text 527 137 Arg5 release time ms;
#X text 534 157 Arg6 sustain time ms (hold);
#X obj 105 744 outlet~;
#X obj 65 123 makenote 127 \$1;
#X obj 67 71 t b b b;
#X msg 252 426 clear;
#X obj 55 592 *~;
#X obj 206 567 *~;
#X obj 228 519 pack 0 3;
#X obj 228 543 line~;
#X obj 77 542 pack 0 3;
#X obj 77 566 line~;
#X obj 114 263 i;
#X obj 150 263 + 1;
#X obj 150 287 == 1;
#X obj 40 290 sel 0 1;
#X obj 78 515 == 0;
#X obj 38 345 t b a;
#X obj 40 314 i 0;
#X obj 168 354 t b a;
#X obj 170 323 i 1;
#X obj 43 412 del 3;
#X obj 281 369 del 3;
#X obj 87 45 route bang a d s r susTime captureTime, f 51;
#X obj 387 120 s \$0-captime;
#X obj 252 141 r \$0-captime;
#X obj 107 431 r \$0-captime;
#X obj 278 454 r \$0-captime;
#X obj 22 476 mono-delay \$1 \$1 0.8;
#X obj 205 484 mono-delay \$1 \$1 0.8;
#X obj 263 291 makenote \$7 \$6;
#X text 529 178 Arg7 gain 0-127;
#X connect 0 0 6 0;
#X connect 0 0 6 1;
#X connect 1 0 2 0;
#X connect 2 0 0 0;
#X connect 3 0 56 0;
#X connect 3 0 57 0;
#X connect 4 0 3 0;
#X connect 4 1 51 0;
#X connect 5 0 30 0;
#X connect 6 0 3 1;
#X connect 7 0 8 0;
#X connect 8 0 12 0;
#X connect 9 0 5 1;
#X connect 10 0 31 0;
#X connect 12 0 9 0;
#X connect 12 0 9 1;
#X connect 13 0 58 0;
#X connect 18 0 12 1;
#X connect 19 0 12 2;
#X connect 20 0 12 3;
#X connect 21 0 12 4;
#X connect 23 0 58 2;
#X connect 31 1 1 0;
#X connect 32 0 10 0;
#X connect 32 1 13 0;
#X connect 32 2 40 0;
#X connect 34 0 5 0;
#X connect 35 0 5 0;
#X connect 36 0 37 0;
#X connect 37 0 35 1;
#X connect 38 0 39 0;
#X connect 39 0 34 1;
#X connect 40 0 41 0;
#X connect 40 0 43 0;
#X connect 41 0 42 0;
#X connect 42 0 40 1;
#X connect 43 0 46 0;
#X connect 43 1 48 0;
#X connect 44 0 38 0;
#X connect 45 0 50 0;
#X connect 45 1 44 0;
#X connect 45 1 36 0;
#X connect 46 0 45 0;
#X connect 47 0 49 0;
#X connect 47 1 44 0;
#X connect 47 1 36 0;
#X connect 48 0 47 0;
#X connect 49 0 11 0;
#X connect 50 0 33 0;
#X connect 51 0 32 0;
#X connect 51 1 14 0;
#X connect 51 2 15 0;
#X connect 51 3 16 0;
#X connect 51 4 17 0;
#X connect 51 5 22 0;
#X connect 51 6 52 0;
#X connect 53 0 31 2;
#X connect 54 0 56 1;
#X connect 55 0 57 1;
#X connect 56 0 34 0;
#X connect 57 0 35 0;
#X connect 58 1 7 0;
