#N canvas 537 439 755 417 12;
#X obj 73 53 noise~;
#X obj 399 61 inlet;
#X obj 157 270 *~;
#X obj 157 294 outlet~;
#X obj 317 9 inlet;
#X obj 436 234 hsl 162 19 0 127 0 0 empty empty empty -2 -10 0 12 #fcfcfc #000000 #000000 0 1;
#X obj 433 258 / 127;
#X obj 433 306 + 1;
#X obj 264 242 hsl 162 19 0 127 0 0 empty empty empty -2 -10 0 12 #fcfcfc #000000 #000000 0 1;
#X obj 261 266 / 127;
#X obj 261 290 * 500;
#X obj 261 314 + 1;
#X obj 433 282 * 3000;
#X obj 581 269 hsl 162 19 0 127 0 0 empty empty empty -2 -10 0 12 #fcfcfc #000000 #000000 0 1;
#X obj 536 293 / 127;
#X obj 536 341 + 1;
#X obj 536 317 * 3000;
#X obj 399 85 route vel a d s r freq freqAmt;
#X obj 204 107 r \$0-freq;
#X obj 172 143 +~ \$1;
#X obj 155 85 *~ \$2;
#X obj 73 77 *~ 0.5;
#X obj 317 33 t a a;
#X obj 222 78 r \$0-freqAmt;
#X obj 522 165 s \$0-freq;
#X obj 560 134 s \$0-freqAmt;
#X obj 156 186 vcf~ 5;
#X obj 165 45 adsr~ 1 24 0 10;
#X obj 274 173 adsr~ 3 100 0.1 300;
#X obj 71 127 hip~ 5000;
#X obj 71 151 *~ 0.2;
#X connect 0 0 21 0;
#X connect 1 0 17 0;
#X connect 2 0 3 0;
#X connect 4 0 22 0;
#X connect 5 0 6 0;
#X connect 6 0 12 0;
#X connect 7 0 28 2;
#X connect 8 0 9 0;
#X connect 9 0 10 0;
#X connect 10 0 11 0;
#X connect 11 0 28 1;
#X connect 12 0 7 0;
#X connect 13 0 14 0;
#X connect 14 0 16 0;
#X connect 15 0 28 4;
#X connect 16 0 15 0;
#X connect 17 1 28 1;
#X connect 17 2 28 2;
#X connect 17 3 28 3;
#X connect 17 4 28 4;
#X connect 17 5 24 0;
#X connect 17 6 25 0;
#X connect 18 0 19 1;
#X connect 19 0 26 1;
#X connect 20 0 19 0;
#X connect 21 0 26 0;
#X connect 21 0 29 0;
#X connect 22 0 27 0;
#X connect 22 1 28 0;
#X connect 23 0 20 1;
#X connect 26 0 2 0;
#X connect 27 0 20 0;
#X connect 28 0 2 1;
#X connect 29 0 30 0;
#X connect 30 0 2 0;
