#N canvas 537 439 755 417 12;
#X obj 157 90 noise~;
#X obj 157 114 *~ 0.1;
#X obj 274 45 inlet;
#X obj 157 270 *~;
#X obj 157 294 outlet~;
#X obj 274 69 route vel a d s r hip lop;
#X obj 400 114 s \$0-hip;
#X obj 469 115 s \$0-lop;
#X obj 39 100 r \$0-hip;
#X obj 29 152 r \$0-lop;
#X obj 157 186 lop~ 8000;
#X obj 157 210 lop~ 8000;
#X obj 157 138 hip~ 6000;
#X obj 157 162 hip~ 6000;
#X obj 192 29 inlet;
#X obj 436 234 hsl 162 19 0 127 0 0 empty empty empty -2 -10 0 12 #fcfcfc #000000 #000000 0 1;
#X obj 433 258 / 127;
#X obj 433 306 + 1;
#X floatatom 491 55 5 0 0 0 - - - 0;
#X floatatom 556 57 5 0 0 0 - - - 0;
#X obj 264 242 hsl 162 19 0 127 0 0 empty empty empty -2 -10 0 12 #fcfcfc #000000 #000000 0 1;
#X obj 261 266 / 127;
#X obj 261 290 * 500;
#X obj 261 314 + 1;
#X obj 433 282 * 3000;
#X obj 539 269 hsl 162 19 0 127 0 0 empty empty empty -2 -10 0 12 #fcfcfc #000000 #000000 0 1;
#X obj 536 293 / 127;
#X obj 536 341 + 1;
#X obj 536 317 * 3000;
#X obj 274 173 adsr~ 3 100 0.1 3000;
#X connect 0 0 1 0;
#X connect 1 0 12 0;
#X connect 2 0 5 0;
#X connect 3 0 4 0;
#X connect 5 1 29 1;
#X connect 5 2 29 2;
#X connect 5 3 29 3;
#X connect 5 4 29 4;
#X connect 5 5 6 0;
#X connect 5 6 7 0;
#X connect 8 0 12 1;
#X connect 8 0 13 1;
#X connect 9 0 10 1;
#X connect 9 0 11 1;
#X connect 10 0 11 0;
#X connect 11 0 3 0;
#X connect 12 0 13 0;
#X connect 13 0 10 0;
#X connect 14 0 29 0;
#X connect 15 0 16 0;
#X connect 16 0 24 0;
#X connect 17 0 29 2;
#X connect 18 0 6 0;
#X connect 19 0 7 0;
#X connect 20 0 21 0;
#X connect 21 0 22 0;
#X connect 22 0 23 0;
#X connect 23 0 29 1;
#X connect 24 0 17 0;
#X connect 25 0 26 0;
#X connect 26 0 28 0;
#X connect 27 0 29 4;
#X connect 28 0 27 0;
#X connect 29 0 3 1;
