#N canvas 34 117 774 750 12;
#X obj 65 728 outlet~;
#X obj 186 726 outlet~;
#X obj 59 7 inlet~ fwd;
#X obj 181 70 clip 0 1;
#X obj 65 686 *~;
#X obj 186 692 *~;
#X obj 90 633 line~;
#X obj 204 643 line~;
#X text 350 55 Arg1: stereo width: 0-1;
#X text 350 71 Arg2: slide amount in ms;
#X obj 89 589 pack 0 \$2;
#X obj 203 609 pack 0 \$2;
#X obj 170 172 + 1;
#X obj 170 196 == 1;
#X obj 127 175 i 1;
#X obj 181 145 s \$0-width;
#X obj 207 206 r \$0-width;
#X obj 181 241 f \$1;
#X obj 181 385 pow 0.5;
#X obj 269 384 pow 0.5;
#X msg 181 328 1 \$1;
#X obj 181 352 -;
#X obj 181 295 t a a;
#X obj 181 265 change -1;
#X obj 149 442 pack 0 0 0;
#X obj 127 199 t a b;
#X obj 87 527 route 0 1, f 24;
#X obj 87 551 unpack 0 0;
#X obj 175 554 unpack 0 0;
#X obj 181 94 / 2;
#X obj 181 118 + 0.5;
#X obj 314 550 r \$0-slide;
#X obj 127 37 route bang width slide;
#X obj 283 112 s \$0-slide;
#X obj 293 77 max 1;
#X connect 2 0 4 0;
#X connect 2 0 5 0;
#X connect 2 1 32 0;
#X connect 3 0 29 0;
#X connect 4 0 0 0;
#X connect 5 0 1 0;
#X connect 6 0 4 1;
#X connect 7 0 5 1;
#X connect 10 0 6 0;
#X connect 11 0 7 0;
#X connect 12 0 13 0;
#X connect 13 0 14 1;
#X connect 14 0 12 0;
#X connect 14 0 25 0;
#X connect 16 0 17 1;
#X connect 17 0 23 0;
#X connect 18 0 24 1;
#X connect 19 0 24 2;
#X connect 20 0 21 0;
#X connect 21 0 18 0;
#X connect 22 0 20 0;
#X connect 22 1 19 0;
#X connect 23 0 22 0;
#X connect 24 0 26 0;
#X connect 25 0 24 0;
#X connect 25 1 17 0;
#X connect 26 0 27 0;
#X connect 26 1 28 0;
#X connect 27 0 10 0;
#X connect 27 1 11 0;
#X connect 28 0 11 0;
#X connect 28 1 10 0;
#X connect 29 0 30 0;
#X connect 30 0 15 0;
#X connect 31 0 10 1;
#X connect 31 0 11 1;
#X connect 32 0 14 0;
#X connect 32 1 3 0;
#X connect 32 2 34 0;
#X connect 34 0 33 0;
