#N canvas 418 181 717 482 12;
#X obj 18 356 *~;
#X obj 182 359 *~;
#X obj 18 22 inlet~;
#X text 74 22 mono;
#X obj 244 25 inlet;
#X text 295 22 fade 0-1;
#X text 420 33 Arg1: fade animation time;
#X obj 18 409 outlet~;
#X text 26 436 left;
#X obj 182 410 outlet~;
#X text 199 439 right;
#X obj 196 239 line~;
#X obj 54 225 sig~ 1;
#X obj 54 276 -~;
#X obj 233 154 pack 0 \$1;
#X obj 244 49 clip 0 1;
#X connect 0 0 7 0;
#X connect 1 0 9 0;
#X connect 2 0 0 0;
#X connect 2 0 1 0;
#X connect 4 0 15 0;
#X connect 11 0 13 1;
#X connect 11 0 1 1;
#X connect 12 0 13 0;
#X connect 13 0 0 1;
#X connect 14 0 11 0;
#X connect 15 0 14 0;
