#N canvas 406 176 730 518 12;
#X obj 41 9 inlet;
#N canvas 92 122 816 493 switch 0;
#X obj 368 150 i 0;
#X obj 404 151 == 0;
#X obj 384 230 == 0;
#X obj 270 26 inlet;
#X obj 320 400 outlet;
#X obj 459 371 outlet;
#X obj 209 263 outlet;
#X obj 368 174 t a a a;
#X obj 270 50 unpack 0 0;
#X obj 339 87 sel 0;
#X obj 371 119 t b;
#X connect 0 0 1 0;
#X connect 0 0 7 0;
#X connect 1 0 0 1;
#X connect 2 0 4 0;
#X connect 3 0 8 0;
#X connect 7 0 6 0;
#X connect 7 1 2 0;
#X connect 7 2 5 0;
#X connect 8 1 9 0;
#X connect 9 1 10 0;
#X connect 10 0 0 0;
#X restore 122 106 pd switch;
#X obj 41 185 route 0 1;
#X obj 41 135 list prepend;
#X obj 41 159 list trim;
#X obj 45 369 outlet~;
#X obj 266 25 inlet;
#X obj 41 38 t a a;
#X obj 45 293 pop~;
#X obj 141 293 pop~;
#X connect 0 0 7 0;
#X connect 1 0 3 1;
#X connect 1 1 8 1;
#X connect 1 2 9 1;
#X connect 2 0 8 0;
#X connect 2 1 9 0;
#X connect 3 0 4 0;
#X connect 4 0 2 0;
#X connect 6 0 8 2;
#X connect 6 0 9 2;
#X connect 7 0 3 0;
#X connect 7 1 1 0;
#X connect 8 0 5 0;
#X connect 9 0 5 0;
