#N canvas 277 207 763 602 12;
#X obj 375 344 vline~;
#X obj 375 368 *~;
#X obj 196 354 osc~ 45, f 14;
#X obj 196 406 *~, f 26;
#X obj 196 220 vline~;
#X obj 196 244 *~;
#X obj 196 268 *~;
#X obj 196 378 *~ 0.7;
#X obj 291 317 i 0;
#X obj 196 27 inlet;
#X msg 196 173 1 1 \, 0 \$1 1;
#X obj 332 17 inlet;
#X obj 384 127 s \$0-depth;
#X obj 437 97 s \$0-root;
#X text 44 72 arg1: length;
#X text 46 94 arg2: depth;
#X text 46 120 arg3: root;
#X obj 196 141 f \$1;
#X obj 196 430 outlet~;
#X obj 196 302 *~ \$2, f 8;
#X obj 249 238 r \$0-depth;
#X obj 270 277 r \$0-root;
#X obj 196 326 +~ \$3, f 10;
#X obj 394 263 f \$4;
#X obj 196 77 t b b b b;
#X text 51 150 arg4: decay;
#X msg 376 307 1 1 \, 0.65 1 1 \, 0 \$1 1;
#X obj 332 153 s \$0-decay;
#X obj 214 110 r \$0-decay;
#X obj 413 226 r \$0-release;
#X obj 492 68 s \$0-release;
#X obj 332 41 route decay depth root release;
#X connect 0 0 1 0;
#X connect 0 0 1 1;
#X connect 1 0 3 1;
#X connect 2 0 7 0;
#X connect 3 0 18 0;
#X connect 4 0 5 0;
#X connect 4 0 5 1;
#X connect 5 0 6 0;
#X connect 5 0 6 1;
#X connect 6 0 19 0;
#X connect 7 0 3 0;
#X connect 8 0 2 1;
#X connect 9 0 24 0;
#X connect 10 0 4 0;
#X connect 11 0 31 0;
#X connect 17 0 10 0;
#X connect 19 0 22 0;
#X connect 20 0 19 1;
#X connect 21 0 22 1;
#X connect 22 0 2 0;
#X connect 23 0 26 0;
#X connect 24 0 17 0;
#X connect 24 1 23 0;
#X connect 24 3 8 0;
#X connect 26 0 0 0;
#X connect 28 0 17 1;
#X connect 29 0 23 1;
#X connect 31 0 27 0;
#X connect 31 1 12 0;
#X connect 31 2 13 0;
#X connect 31 3 30 0;
