#N canvas 277 207 1103 602 12;
#X obj 375 344 vline~;
#X obj 375 368 *~;
#X obj 196 496 *~, f 26;
#X obj 196 220 vline~;
#X obj 196 244 *~;
#X obj 196 268 *~;
#X obj 196 468 *~ 0.7;
#X obj 196 27 inlet;
#X obj 332 17 inlet;
#X obj 384 127 s \$0-depth;
#X obj 437 97 s \$0-root;
#X text 44 72 arg1: length;
#X text 46 94 arg2: depth;
#X text 46 120 arg3: root;
#X obj 196 141 f \$1;
#X obj 196 520 outlet~;
#X obj 196 302 *~ \$2, f 8;
#X obj 249 238 r \$0-depth;
#X obj 270 277 r \$0-root;
#X obj 196 326 +~ \$3, f 10;
#X obj 394 263 f \$4;
#X obj 196 77 t b b b b;
#X text 51 150 arg4: decay;
#X obj 332 153 s \$0-decay;
#X obj 214 110 r \$0-decay;
#X obj 413 226 r \$0-release;
#X obj 492 68 s \$0-release;
#X obj 332 41 route decay depth root release;
#X text 637 345 0.25;
#X obj 673 429 wrap;
#X floatatom 673 453 5 0 0 0 - - - 0;
#X obj 706 301 hsl 162 19 0 127 0 0 empty empty empty -2 -10 0 12 #fcfcfc #000000 #000000 0 1;
#X obj 703 325 / 127;
#X floatatom 815 335 5 0 0 0 - - - 0;
#X obj 798 415 swap 1;
#X obj 798 439 -;
#X obj 683 256 bng 19 250 50 0 empty empty empty 0 -10 0 12 #fcfcfc #000000 #000000;
#X floatatom 798 463 5 0 0 0 - - - 0;
#X floatatom 703 399 5 0 0 0 - - - 0;
#X obj 703 375 +;
#X obj 790 386 f;
#X obj 837 385 bng 19 250 50 0 empty empty empty 0 -10 0 12 #fcfcfc #000000 #000000;
#N canvas 92 122 450 300 reset-phase-osc 0;
#X obj 81 36 phasor~;
#X obj 81 199 +~;
#X obj 81 223 wrap~;
#X obj 81 247 cos~;
#X obj 103 175 vline~;
#X obj 107 67 snapshot~;
#X obj 107 91 swap 1;
#X obj 107 115 -;
#X obj 80 4 inlet~;
#X obj 81 271 outlet~;
#X obj 214 29 inlet;
#X obj 214 53 t b;
#X msg 103 145 \$1 1;
#X connect 0 0 1 0;
#X connect 0 0 5 0;
#X connect 1 0 2 0;
#X connect 2 0 3 0;
#X connect 3 0 9 0;
#X connect 4 0 1 1;
#X connect 5 0 6 0;
#X connect 6 0 7 0;
#X connect 6 1 7 1;
#X connect 7 0 12 0;
#X connect 8 0 0 0;
#X connect 10 0 11 0;
#X connect 11 0 5 0;
#X connect 12 0 4 0;
#X restore 536 525 pd reset-phase-osc;
#X text 541 501 experimental idea;
#N canvas 92 122 596 365 two 0;
#X obj 80 4 inlet~;
#X obj 77 338 outlet~;
#X obj 214 7 inlet;
#X obj 214 31 t b;
#X obj 214 59 i 0;
#X obj 250 60 == 0;
#X obj 79 219 phasor~;
#X obj 79 246 cos~;
#X obj 79 285 *~;
#X obj 143 222 pack 0 3;
#X obj 144 251 line~;
#X obj 125 189 i 0;
#X obj 78 123 sel 0 1, f 18;
#X obj 78 147 i 0;
#X obj 141 147 t b b;
#X obj 171 180 i 1;
#X obj 242 220 phasor~;
#X obj 242 247 cos~;
#X obj 242 286 *~;
#X obj 306 223 pack 0 3;
#X obj 307 252 line~;
#X obj 288 190 i 0;
#X obj 241 124 sel 0 1, f 18;
#X obj 241 148 i 0;
#X obj 304 148 t b b;
#X obj 334 181 i 1;
#X obj 214 83 t a a;
#X obj 214 107 == 0;
#X connect 0 0 6 0;
#X connect 0 0 16 0;
#X connect 2 0 3 0;
#X connect 3 0 4 0;
#X connect 4 0 5 0;
#X connect 4 0 26 0;
#X connect 5 0 4 1;
#X connect 6 0 7 0;
#X connect 7 0 8 0;
#X connect 8 0 1 0;
#X connect 9 0 10 0;
#X connect 10 0 8 1;
#X connect 11 0 6 1;
#X connect 12 0 13 0;
#X connect 12 1 14 0;
#X connect 13 0 9 0;
#X connect 14 0 15 0;
#X connect 14 1 11 0;
#X connect 15 0 9 0;
#X connect 16 0 17 0;
#X connect 17 0 18 0;
#X connect 18 0 1 0;
#X connect 19 0 20 0;
#X connect 20 0 18 1;
#X connect 21 0 16 1;
#X connect 22 0 23 0;
#X connect 22 1 24 0;
#X connect 23 0 19 0;
#X connect 24 0 25 0;
#X connect 24 1 21 0;
#X connect 25 0 19 0;
#X connect 26 0 27 0;
#X connect 26 1 22 0;
#X connect 27 0 12 0;
#X restore 195 389 pd two osc;
#X msg 196 173 1 3 \, 0 \$1 3;
#X msg 376 307 1 1 \, 0.65 1 1 \, 0 \$1 1;
#X connect 0 0 1 0;
#X connect 0 0 1 1;
#X connect 1 0 2 1;
#X connect 2 0 15 0;
#X connect 3 0 4 0;
#X connect 3 0 4 1;
#X connect 4 0 5 0;
#X connect 4 0 5 1;
#X connect 5 0 16 0;
#X connect 6 0 2 0;
#X connect 7 0 21 0;
#X connect 8 0 27 0;
#X connect 14 0 45 0;
#X connect 16 0 19 0;
#X connect 17 0 16 1;
#X connect 18 0 19 1;
#X connect 19 0 44 0;
#X connect 20 0 46 0;
#X connect 21 0 14 0;
#X connect 21 1 20 0;
#X connect 21 3 44 1;
#X connect 24 0 14 1;
#X connect 25 0 20 1;
#X connect 27 0 23 0;
#X connect 27 1 9 0;
#X connect 27 2 10 0;
#X connect 27 3 26 0;
#X connect 29 0 30 0;
#X connect 31 0 32 0;
#X connect 32 0 39 0;
#X connect 32 0 33 0;
#X connect 33 0 40 1;
#X connect 34 0 35 0;
#X connect 34 1 35 1;
#X connect 35 0 37 0;
#X connect 35 0 39 1;
#X connect 36 0 31 0;
#X connect 38 0 29 0;
#X connect 39 0 38 0;
#X connect 40 0 34 0;
#X connect 41 0 40 0;
#X connect 44 0 6 0;
#X connect 45 0 3 0;
#X connect 46 0 0 0;
