#N canvas 86 153 1085 653 12;
#X obj 22 529 adsrDX~, f 21;
#X obj 166 479 osc~, f 18;
#X obj 166 503 *~ 0.5, f 7;
#X obj 166 608 outlet~;
#X obj 219 321 r \$0-depth;
#X obj 121 317 adsrDX~;
#X msg 101 169 gate \$1;
#X msg 233 200 gain \$1;
#X obj 234 173 / 127;
#X obj 62 15 inlet;
#X obj 62 39 unpack;
#X obj 100 79 t a a, f 15;
#X obj 100 133 > 0;
#X obj 202 111 sel 0;
#X obj 234 140 t a b b, f 11;
#X obj 101 193 s \$0-mess-2-adsr;
#X obj 122 243 r \$0-mess-2-adsr;
#X obj 22 493 r \$0-mess-2-adsr;
#X obj 166 409 +~, f 10;
#X obj 342 384 i 0;
#X obj 166 567 *~;
#X obj 393 418 pack 0 3;
#X obj 393 447 line~;
#X obj 391 44 inlet;
#X obj 391 68 clip 0 1;
#X obj 515 52 inlet;
#X text 559 55 messages;
#X obj 515 140 s \$0-freq-mess;
#X obj 540 111 s \$0-amp-mess;
#X obj 145 274 r \$0-freq-mess;
#X obj 48 463 r \$0-amp-mess;
#X obj 515 76 route freq amp depth, f 34;
#X obj 671 129 s \$0-depth;
#X obj 166 433 mtof~;
#X obj 166 385 *~, f 8;
#X obj 492 220 print freq-adsr-messages;
#X obj 263 256 sig~ 1;
#X connect 0 1 20 0;
#X connect 1 0 2 0;
#X connect 2 0 0 1;
#X connect 4 0 34 1;
#X connect 5 1 34 0;
#X connect 6 0 15 0;
#X connect 7 0 15 0;
#X connect 8 0 7 0;
#X connect 9 0 10 0;
#X connect 10 0 18 1;
#X connect 10 1 11 0;
#X connect 11 0 12 0;
#X connect 11 1 13 0;
#X connect 12 0 6 0;
#X connect 13 1 14 0;
#X connect 14 0 8 0;
#X connect 14 2 19 0;
#X connect 16 0 5 0;
#X connect 17 0 0 0;
#X connect 18 0 33 0;
#X connect 19 0 1 1;
#X connect 20 0 3 0;
#X connect 21 0 22 0;
#X connect 22 0 20 1;
#X connect 23 0 24 0;
#X connect 24 0 21 0;
#X connect 25 0 31 0;
#X connect 29 0 5 0;
#X connect 30 0 0 0;
#X connect 31 0 27 0;
#X connect 31 0 35 0;
#X connect 31 1 28 0;
#X connect 31 2 32 0;
#X connect 33 0 1 0;
#X connect 34 0 18 0;
#X connect 36 0 5 1;
