#N canvas 196 126 962 746 12;
#X obj 51 15 inlet;
#X obj 49 470 *~, f 11;
#X obj 170 392 r \$0-chunk;
#X obj 124 368 v \$0-size-samples;
#X obj 262 342 v \$0-size-samples;
#X obj 288 393 r \$0-start;
#X obj 49 501 +~, f 13;
#X obj 50 369 vline~;
#X msg 50 338 0 0 \, 1 \$1 0;
#X obj 96 253 r \$0-chunk;
#X obj 50 229 v \$0-size-ms;
#X obj 50 194 t b b b b, f 26;
#X obj 262 366 - 2;
#X obj 49 535 +~ 1;
#X obj 49 704 outlet~;
#X obj 49 591 *~ 0.7;
#X obj 49 668 hip~ 4;
#X obj 49 567 tabread4~ \$1;
#X text 356 55 arg1: array pointer;
#X text 358 77 arg2: chunk(float 0-1);
#X text 358 97 arg3: start(float 0-1);
#N canvas 237 267 450 300 fetch-size 0;
#X text 189 27 get buffer size;
#X obj 147 65 array size \$1;
#X obj 147 33 bng 19 250 50 0 empty empty empty 0 -10 0 12 #fcfcfc #000000 #000000;
#X obj 147 217 v \$0-size-samples;
#X obj 147 89 change -1;
#X obj 81 18 inlet;
#X obj 147 113 t a a;
#X obj 179 152 / 44.1;
#X obj 179 189 v \$0-size-ms;
#X connect 1 0 4 0;
#X connect 2 0 1 0;
#X connect 4 0 6 0;
#X connect 5 0 1 0;
#X connect 6 0 3 0;
#X connect 6 1 7 0;
#X connect 7 0 8 0;
#X restore 229 223 pd fetch-size;
#X obj 124 444 i;
#X obj 124 392 - 2;
#X obj 262 424 * \$3;
#X obj 124 420 * \$2;
#X obj 50 281 * \$2;
#N canvas 295 325 636 300 messages 1;
#X obj 63 25 inlet;
#X obj 53 204 outlet;
#X obj 91 172 s \$0-start;
#X obj 176 149 s \$0-chunk;
#X obj 277 257 s \$0-speed;
#X obj 96 122 clip 0 1;
#X obj 190 126 clip 0 1;
#X obj 58 74 route trig start chunk speed stop, f 47;
#X obj 309 138 s \$0-stop;
#X obj 52 143 t b;
#X obj 317 186 swap 1;
#X obj 317 210 /;
#X connect 0 0 7 0;
#X connect 5 0 2 0;
#X connect 6 0 3 0;
#X connect 7 0 9 0;
#X connect 7 1 5 0;
#X connect 7 2 6 0;
#X connect 7 3 10 0;
#X connect 7 4 8 0;
#X connect 9 0 1 0;
#X connect 10 0 11 0;
#X connect 10 1 11 1;
#X connect 11 0 4 0;
#X restore 50 48 pd messages;
#X obj 179 285 r \$0-stop;
#X msg 179 309 0 0;
#X obj 49 615 *~, f 19;
#X obj 179 584 line~;
#X obj 179 553 pack 0 5;
#X obj 50 76 i 0;
#X obj 50 100 + 0;
#X obj 96 79 == 0;
#X obj 50 124 sel 0 1, f 107;
#X obj 417 471 *~, f 11;
#X obj 538 393 r \$0-chunk;
#X obj 492 369 v \$0-size-samples;
#X obj 630 343 v \$0-size-samples;
#X obj 656 394 r \$0-start;
#X obj 417 502 +~, f 13;
#X obj 418 370 vline~;
#X msg 418 339 0 0 \, 1 \$1 0;
#X obj 464 254 r \$0-chunk;
#X obj 418 230 v \$0-size-ms;
#X obj 418 195 t b b b b, f 26;
#X obj 630 367 - 2;
#X obj 417 536 +~ 1;
#X obj 417 592 *~ 0.7;
#X obj 417 568 tabread4~ \$1;
#N canvas 237 267 450 300 fetch-size 0;
#X text 189 27 get buffer size;
#X obj 147 65 array size \$1;
#X obj 147 33 bng 19 250 50 0 empty empty empty 0 -10 0 12 #fcfcfc #000000 #000000;
#X obj 147 217 v \$0-size-samples;
#X obj 147 89 change -1;
#X obj 81 18 inlet;
#X obj 147 113 t a a;
#X obj 179 152 / 44.1;
#X obj 179 189 v \$0-size-ms;
#X connect 1 0 4 0;
#X connect 2 0 1 0;
#X connect 4 0 6 0;
#X connect 5 0 1 0;
#X connect 6 0 3 0;
#X connect 6 1 7 0;
#X connect 7 0 8 0;
#X restore 597 224 pd fetch-size;
#X obj 492 445 i;
#X obj 492 393 - 2;
#X obj 630 425 * \$3;
#X obj 492 421 * \$2;
#X obj 418 282 * \$2;
#X obj 545 283 r \$0-stop;
#X msg 545 307 0 0;
#X obj 417 616 *~, f 19;
#X obj 547 585 line~;
#X obj 547 554 pack 0 5;
#X obj 282 490 t a a;
#X obj 322 523 == 0;
#X obj 50 148 t b b;
#X obj 422 150 t b b;
#X obj 81 171 i 1;
#X obj 454 172 i 0;
#X obj 89 286 r \$0-speed;
#X obj 50 315 * 1;
#X obj 457 283 r \$0-speed;
#X obj 418 312 * 1;
#X connect 0 0 27 0;
#X connect 1 0 6 0;
#X connect 2 0 25 1;
#X connect 3 0 23 0;
#X connect 4 0 12 0;
#X connect 5 0 24 1;
#X connect 6 0 13 0;
#X connect 7 0 1 0;
#X connect 8 0 7 0;
#X connect 9 0 26 1;
#X connect 10 0 26 0;
#X connect 11 0 10 0;
#X connect 11 1 3 0;
#X connect 11 2 4 0;
#X connect 11 3 21 0;
#X connect 12 0 24 0;
#X connect 13 0 17 0;
#X connect 15 0 30 0;
#X connect 16 0 14 0;
#X connect 17 0 15 0;
#X connect 22 0 1 1;
#X connect 23 0 25 0;
#X connect 24 0 6 1;
#X connect 25 0 22 0;
#X connect 26 0 70 0;
#X connect 27 0 33 0;
#X connect 28 0 29 0;
#X connect 29 0 7 0;
#X connect 30 0 16 0;
#X connect 31 0 30 1;
#X connect 32 0 31 0;
#X connect 33 0 34 0;
#X connect 34 0 35 0;
#X connect 34 0 36 0;
#X connect 35 0 33 1;
#X connect 36 0 65 0;
#X connect 36 1 66 0;
#X connect 37 0 42 0;
#X connect 38 0 56 1;
#X connect 39 0 54 0;
#X connect 40 0 48 0;
#X connect 41 0 55 1;
#X connect 42 0 49 0;
#X connect 43 0 37 0;
#X connect 44 0 43 0;
#X connect 45 0 57 1;
#X connect 46 0 57 0;
#X connect 47 0 46 0;
#X connect 47 1 39 0;
#X connect 47 2 40 0;
#X connect 47 3 52 0;
#X connect 48 0 55 0;
#X connect 49 0 51 0;
#X connect 50 0 60 0;
#X connect 51 0 50 0;
#X connect 53 0 37 1;
#X connect 54 0 56 0;
#X connect 55 0 42 1;
#X connect 56 0 53 0;
#X connect 57 0 72 0;
#X connect 58 0 59 0;
#X connect 59 0 43 0;
#X connect 60 0 16 0;
#X connect 61 0 60 1;
#X connect 62 0 61 0;
#X connect 63 0 32 0;
#X connect 63 1 64 0;
#X connect 64 0 62 0;
#X connect 65 0 11 0;
#X connect 65 1 67 0;
#X connect 66 0 47 0;
#X connect 66 1 68 0;
#X connect 67 0 63 0;
#X connect 68 0 63 0;
#X connect 69 0 70 1;
#X connect 70 0 8 0;
#X connect 71 0 72 1;
#X connect 72 0 44 0;
