#N canvas 456 25 984 847 12;
#X obj 689 353 list length;
#X obj 677 248 t a a;
#X obj 426 716 list store;
#X obj 19 33 inlet;
#X text 60 36 ticks;
#X obj 360 623 list store;
#X obj 690 378 s \$0-len;
#X obj 361 529 sel 0, f 14;
#X obj 677 174 inlet;
#X text 720 175 list;
#X obj 360 671 list split 1, f 39;
#X obj 392 785 outlet;
#X obj 480 590 t b;
#X obj 360 746 sel _;
#X text 281 113 ticks;
#X obj 41 194 s \$0-start/stop;
#X obj 23 114 i 1;
#X obj 76 113 i 2;
#X obj 113 141 i 0;
#X obj 451 33 r \$0-start/stop;
#X obj 361 277 t b;
#N canvas 599 273 552 329 tick-counter 0;
#X obj 225 87 f \$1;
#X obj 225 116 * 360;
#X obj 32 22 inlet;
#X obj 39 285 outlet;
#X obj 83 23 inlet;
#X obj 39 247 sel 0;
#X obj 39 117 i;
#X obj 117 112 + 1;
#X obj 39 186 expr if($f1 >= $f2 \, 0 \, $f1);
#X obj 39 210 t a a;
#X obj 149 19 r \$0-beat;
#X obj 225 18 r \$0-start/stop;
#X obj 225 42 t b;
#X obj 225 154 max 1;
#X connect 0 0 1 0;
#X connect 1 0 13 0;
#X connect 2 0 6 0;
#X connect 4 0 6 1;
#X connect 5 0 3 0;
#X connect 6 0 8 0;
#X connect 7 0 6 1;
#X connect 8 0 9 0;
#X connect 9 0 5 0;
#X connect 9 1 7 0;
#X connect 10 0 0 0;
#X connect 11 0 12 0;
#X connect 12 0 0 0;
#X connect 13 0 8 1;
#X restore 361 328 pd tick-counter;
#X text 95 0 Arg1: base beat in beats;
#X obj 483 84 s \$0-reset-ticks;
#X obj 502 345 i 0;
#X obj 502 321 r \$0-reset-loop;
#X obj 477 255 r \$0-reset-ticks;
#X obj 463 300 i 0;
#N canvas 599 273 552 329 loop-counter 1;
#X obj 32 22 inlet;
#X obj 39 245 outlet;
#X obj 83 23 inlet;
#X obj 39 117 i;
#X obj 117 112 + 1;
#X obj 39 146 expr if($f1 >= $f2 \, 0 \, $f1);
#X obj 39 170 t a a;
#X obj 223 67 r \$0-len;
#X connect 0 0 3 0;
#X connect 2 0 3 1;
#X connect 3 0 5 0;
#X connect 4 0 3 1;
#X connect 5 0 6 0;
#X connect 6 0 1 0;
#X connect 6 1 4 0;
#X connect 7 0 5 1;
#X restore 361 403 pd loop-counter;
#X obj 527 109 s \$0-reset-loop;
#N canvas 577 264 450 300 start/stop 0;
#X obj 32 10 inlet;
#X obj 163 14 inlet;
#X obj 163 38 sel 0 1 2, f 30;
#X obj 32 227 spigot;
#X obj 163 62 i 0;
#X obj 188 149 s \$0-valve;
#X obj 106 186 r \$0-valve;
#X obj 231 63 i 1;
#X obj 32 52 t a a;
#X obj 64 87 spigot;
#X obj 64 111 sel 359;
#X obj 64 162 i 1;
#X obj 64 135 t b b;
#X obj 135 104 i 0;
#X obj 187 118 t a b;
#X obj 300 151 s \$0-sync;
#X obj 81 21 r \$0-sync;
#X obj 300 72 t b b;
#X obj 300 96 i 1;
#X obj 340 130 s \$0-valve;
#X obj 335 100 i 0;
#X obj 32 251 outlet;
#X obj 169 238 outlet;
#X connect 0 0 8 0;
#X connect 1 0 2 0;
#X connect 2 0 4 0;
#X connect 2 1 7 0;
#X connect 2 2 17 0;
#X connect 3 0 21 0;
#X connect 4 0 14 0;
#X connect 6 0 3 1;
#X connect 7 0 14 0;
#X connect 8 0 3 0;
#X connect 8 1 9 0;
#X connect 9 0 10 0;
#X connect 10 0 12 0;
#X connect 11 0 3 1;
#X connect 12 0 11 0;
#X connect 12 1 13 0;
#X connect 12 1 22 0;
#X connect 13 0 9 1;
#X connect 14 0 5 0;
#X connect 14 1 13 0;
#X connect 16 0 9 1;
#X connect 17 0 18 0;
#X connect 17 1 20 0;
#X connect 18 0 15 0;
#X connect 20 0 19 0;
#X restore 363 142 pd start/stop;
#X obj 451 57 t a b b, f 11;
#X obj 184 111 s \$0-beat;
#X text 621 33 add a loop argument;
#X obj 20 56 route free-start sync-start stop beat loop, f 46;
#X obj 252 84 s \$0-loop;
#X text 47 524 one shot/ loop;
#X obj 328 564 t b b;
#X obj 223 700 spigot 0;
#X obj 275 676 i 1;
#X obj 223 648 t b b;
#X obj 283 465 r \$0-loop;
#X obj 283 533 == 0;
#X obj 127 584 r \$0-start/stop;
#X obj 127 637 i 0;
#X obj 127 608 t b;
#X obj 223 751 s \$0-start/stop;
#X obj 223 724 i 0;
#X text 312 4 Arg2: loop?;
#X obj 223 621 spigot 0;
#X obj 236 491 i \$2;
#X obj 232 437 loadbang;
#X connect 0 0 6 0;
#X connect 1 0 5 1;
#X connect 1 1 0 0;
#X connect 2 0 10 0;
#X connect 3 0 34 0;
#X connect 5 0 10 0;
#X connect 7 0 37 0;
#X connect 7 1 12 0;
#X connect 8 0 1 0;
#X connect 10 0 13 0;
#X connect 10 1 2 1;
#X connect 12 0 2 0;
#X connect 13 1 11 0;
#X connect 16 0 15 0;
#X connect 17 0 15 0;
#X connect 18 0 15 0;
#X connect 19 0 31 0;
#X connect 20 0 21 0;
#X connect 21 0 28 0;
#X connect 24 0 28 1;
#X connect 25 0 24 0;
#X connect 26 0 27 0;
#X connect 27 0 21 1;
#X connect 28 0 7 0;
#X connect 30 0 20 0;
#X connect 30 1 27 0;
#X connect 31 0 30 1;
#X connect 31 1 23 0;
#X connect 31 2 29 0;
#X connect 34 0 16 0;
#X connect 34 1 17 0;
#X connect 34 2 18 0;
#X connect 34 3 32 0;
#X connect 34 4 35 0;
#X connect 34 5 30 0;
#X connect 37 0 49 0;
#X connect 37 1 5 0;
#X connect 38 0 47 0;
#X connect 39 0 38 1;
#X connect 40 0 39 0;
#X connect 40 1 38 0;
#X connect 41 0 42 0;
#X connect 42 0 49 1;
#X connect 43 0 45 0;
#X connect 44 0 38 1;
#X connect 45 0 44 0;
#X connect 47 0 46 0;
#X connect 49 0 40 0;
#X connect 50 0 42 0;
#X connect 51 0 50 0;
