#N canvas 113 30 1305 842 12;
#X obj 783 279 list length;
#X obj 20 25 inlet;
#X text 61 28 ticks;
#X obj 737 174 inlet;
#X text 780 175 list;
#X obj 454 679 outlet;
#X text 455 96 ticks;
#X obj 41 194 s \$0-start/stop;
#X obj 23 114 i 1;
#X obj 76 113 i 2;
#X obj 113 141 i 0;
#X obj 511 33 r \$0-start/stop;
#X obj 421 277 t b;
#N canvas 596 283 552 454 tick-counter 0;
#X obj 225 87 f \$1;
#X obj 225 126 * 360;
#X obj 32 22 inlet;
#X obj 38 373 outlet;
#X obj 83 23 inlet;
#X obj 39 117 i;
#X obj 117 112 + 1;
#X obj 39 186 expr if($f1 >= $f2 \, 0 \, $f1);
#X obj 39 220 t a a;
#X obj 149 19 r \$0-beat;
#X obj 225 18 r \$0-start/stop;
#X obj 225 42 t b;
#X obj 225 154 max 1;
#X text 421 144 swing is:;
#X text 419 179 X _ _ _ X;
#X obj 32 46 t b;
#X text 418 207 X _ X _;
#N canvas 63 88 682 499 swing 0;
#X obj 40 21 inlet;
#X obj 140 444 outlet;
#X obj 108 96 <= 0;
#X obj 231 98 > 0;
#X obj 117 24 r \$0-swing;
#X obj 175 132 spigot 0;
#X obj 53 135 spigot 1;
#X obj 40 49 t a a;
#X obj 46 180 sel 0;
#X obj 174 290 sel 0;
#X text 343 29 swing;
#X obj 546 50 inlet;
#X obj 547 79 / 3;
#X obj 429 67 r \$0-swing;
#X obj 241 291 sel 90;
#X obj 330 302 v \$0-swing-track;
#X obj 330 355 == 0;
#X obj 330 379 v \$0-swing-track;
#X obj 330 326 t a a;
#X obj 507 251 +;
#X obj 591 201 * 2;
#X obj 547 112 t b a a;
#X obj 429 139 swap 1;
#X obj 429 163 -;
#X obj 495 208 i;
#X obj 497 183 * 90;
#X obj 174 343 t b b;
#X obj 241 40 sel 0;
#X obj 174 242 spigot 1;
#X obj 252 243 spigot 0;
#X obj 239 177 t a a;
#X obj 239 201 == 0;
#X connect 0 0 7 0;
#X connect 0 0 27 0;
#X connect 2 0 6 1;
#X connect 3 0 5 1;
#X connect 4 0 2 0;
#X connect 4 0 3 0;
#X connect 5 0 28 0;
#X connect 5 0 29 0;
#X connect 6 0 8 0;
#X connect 7 0 6 0;
#X connect 7 1 5 0;
#X connect 8 0 1 0;
#X connect 9 0 26 0;
#X connect 11 0 12 0;
#X connect 12 0 21 0;
#X connect 13 0 22 0;
#X connect 14 0 26 0;
#X connect 15 0 18 0;
#X connect 16 0 17 0;
#X connect 16 0 30 0;
#X connect 18 0 16 0;
#X connect 19 0 14 1;
#X connect 20 0 19 1;
#X connect 21 0 22 0;
#X connect 21 1 25 1;
#X connect 21 2 20 0;
#X connect 22 0 23 0;
#X connect 22 1 23 1;
#X connect 23 0 25 0;
#X connect 24 0 19 0;
#X connect 25 0 24 0;
#X connect 26 0 1 0;
#X connect 27 0 15 0;
#X connect 28 0 9 0;
#X connect 29 0 14 0;
#X connect 30 0 31 0;
#X connect 30 1 29 1;
#X connect 31 0 28 1;
#X restore 69 301 pd swing;
#X connect 0 0 1 0;
#X connect 1 0 12 0;
#X connect 2 0 15 0;
#X connect 4 0 5 1;
#X connect 5 0 7 0;
#X connect 6 0 5 1;
#X connect 7 0 8 0;
#X connect 8 0 17 0;
#X connect 8 1 6 0;
#X connect 9 0 0 0;
#X connect 10 0 11 0;
#X connect 11 0 0 0;
#X connect 12 0 7 1;
#X connect 12 0 17 1;
#X connect 15 0 5 0;
#X connect 17 0 3 0;
#X restore 421 328 pd tick-counter;
#X text 95 0 Arg1: base beat in beats;
#X obj 543 84 s \$0-reset-ticks;
#X obj 556 377 i 0;
#X obj 556 350 r \$0-reset-loop;
#X obj 537 255 r \$0-reset-ticks;
#X obj 523 300 i 0;
#N canvas 599 273 552 329 loop-counter 0;
#X obj 32 22 inlet;
#X obj 39 270 outlet;
#X obj 83 23 inlet;
#X obj 39 117 i;
#X obj 117 112 + 1;
#X obj 39 146 expr if($f1 >= $f2 \, 0 \, $f1);
#X obj 39 170 t a a a;
#X obj 194 284 outlet;
#X obj 190 185 t a a;
#X obj 195 250 sel 1;
#X obj 317 35 inlet;
#X obj 195 226 <;
#X connect 0 0 3 0;
#X connect 2 0 3 1;
#X connect 3 0 5 0;
#X connect 4 0 3 1;
#X connect 5 0 6 0;
#X connect 6 0 1 0;
#X connect 6 1 4 0;
#X connect 6 2 8 0;
#X connect 8 0 11 1;
#X connect 8 1 11 0;
#X connect 9 0 7 0;
#X connect 10 0 5 1;
#X connect 11 0 9 0;
#X restore 421 403 pd loop-counter;
#X f 39;
#X obj 587 109 s \$0-reset-loop;
#N canvas 577 264 450 300 start/stop 0;
#X obj 32 10 inlet;
#X obj 163 14 inlet;
#X obj 163 38 sel 0 1 2, f 30;
#X obj 32 227 spigot;
#X obj 163 62 i 0;
#X obj 231 63 i 1;
#X obj 32 52 t a a;
#X obj 64 87 spigot;
#X obj 64 111 sel 359;
#X obj 64 162 i 1;
#X obj 64 135 t b b;
#X obj 135 104 i 0;
#X obj 187 118 t a b;
#X obj 300 189 s \$0-sync;
#X obj 81 21 r \$0-sync;
#X obj 300 72 t b b;
#X obj 300 96 i 1;
#X obj 335 100 i 0;
#X obj 32 251 outlet;
#X obj 169 238 outlet;
#X connect 0 0 6 0;
#X connect 1 0 2 0;
#X connect 2 0 4 0;
#X connect 2 1 5 0;
#X connect 2 2 15 0;
#X connect 3 0 18 0;
#X connect 4 0 12 0;
#X connect 5 0 12 0;
#X connect 6 0 3 0;
#X connect 6 1 7 0;
#X connect 7 0 8 0;
#X connect 8 0 10 0;
#X connect 9 0 3 1;
#X connect 10 0 9 0;
#X connect 10 1 11 0;
#X connect 10 1 19 0;
#X connect 11 0 7 1;
#X connect 12 0 3 1;
#X connect 12 1 11 0;
#X connect 14 0 7 1;
#X connect 15 0 16 0;
#X connect 15 1 17 0;
#X connect 16 0 13 0;
#X connect 17 0 3 1;
#X restore 423 142 pd start/stop;
#X obj 511 57 t a b b, f 11;
#X obj 149 160 s \$0-beat;
#X obj 192 134 s \$0-loop;
#X text 47 524 one shot/ loop;
#X text 312 4 Arg2: loop?;
#X obj 222 216 s \$0-swing;
#X obj 39 274 v \$0-swing-track;
#X obj 268 130 clip 0 1;
#X obj 20 54 route free-start sync-start stop beat loop swing fire;
#X obj 335 192 s \$0-fire;
#X obj 737 248 t b a a;
#X obj 758 606 outlet;
#X text 812 605 new loop;
#X obj 736 440 i 2;
#X obj 736 464 s \$0-start/stop;
#X obj 632 739 s \$0-start/stop;
#X obj 656 581 r \$0-loop;
#X obj 632 670 sel 0 1;
#X obj 632 703 i 0;
#X obj 632 610 i \$2;
#X obj 691 497 t b b b;
#X obj 421 624 sel _;
#X obj 421 577 list store;
#X obj 421 507 list prepend get;
#X obj 421 542 list trim;
#X connect 0 0 20 2;
#X connect 1 0 31 0;
#X connect 3 0 33 0;
#X connect 8 0 7 0;
#X connect 9 0 7 0;
#X connect 10 0 7 0;
#X connect 11 0 23 0;
#X connect 12 0 13 0;
#X connect 13 0 20 0;
#X connect 16 0 20 1;
#X connect 17 0 16 0;
#X connect 18 0 19 0;
#X connect 19 0 13 1;
#X connect 20 0 46 0;
#X connect 20 1 43 0;
#X connect 22 0 12 0;
#X connect 22 1 19 0;
#X connect 23 0 22 1;
#X connect 23 1 15 0;
#X connect 23 2 21 0;
#X connect 30 0 28 0;
#X connect 31 0 8 0;
#X connect 31 1 9 0;
#X connect 31 2 10 0;
#X connect 31 3 24 0;
#X connect 31 4 25 0;
#X connect 31 5 30 0;
#X connect 31 6 32 0;
#X connect 31 7 22 0;
#X connect 33 0 36 0;
#X connect 33 1 45 1;
#X connect 33 2 0 0;
#X connect 36 0 37 0;
#X connect 39 0 42 1;
#X connect 40 0 41 0;
#X connect 41 0 38 0;
#X connect 42 0 40 0;
#X connect 43 0 42 0;
#X connect 43 2 34 0;
#X connect 44 1 5 0;
#X connect 45 0 44 0;
#X connect 46 0 47 0;
#X connect 47 0 45 0;
