#N canvas 456 25 984 847 12;
#X obj 819 352 list length;
#X obj 486 716 list store;
#X obj 19 33 inlet;
#X text 60 36 ticks;
#X obj 420 623 list store;
#X obj 820 377 s \$0-len;
#X obj 737 174 inlet;
#X text 780 175 list;
#X obj 420 671 list split 1, f 39;
#X obj 452 785 outlet;
#X obj 420 746 sel _;
#X text 455 96 ticks;
#X obj 41 194 s \$0-start/stop;
#X obj 23 114 i 1;
#X obj 76 113 i 2;
#X obj 113 141 i 0;
#X obj 511 33 r \$0-start/stop;
#X obj 421 277 t b;
#N canvas 596 283 552 454 tick-counter 0;
#X obj 225 87 f \$1;
#X obj 225 116 * 360;
#X obj 32 22 inlet;
#X obj 38 373 outlet;
#X obj 83 23 inlet;
#X obj 39 117 i;
#X obj 117 112 + 1;
#X obj 39 186 expr if($f1 >= $f2 \, 0 \, $f1);
#X obj 39 210 t a a;
#X obj 149 19 r \$0-beat;
#X obj 225 18 r \$0-start/stop;
#X obj 225 42 t b;
#X obj 225 154 max 1;
#X obj 39 247 sel 0;
#N canvas 121 146 802 436 delay 0;
#X obj 50 28 inlet;
#X obj 51 375 outlet;
#X obj 204 21 inlet;
#X text 247 18 ticks;
#X obj 323 19 inlet;
#X text 372 21 delay;
#X obj 103 142 <= 0;
#X obj 226 144 > 0;
#X obj 170 300 tick-delay;
#X msg 203 246 stop;
#X obj 48 218 t b b;
#X obj 112 70 r \$0-swing;
#X obj 171 183 spigot 0;
#X obj 48 181 spigot 1;
#X obj 171 207 t b b;
#X connect 0 0 12 0;
#X connect 0 0 13 0;
#X connect 2 0 8 2;
#X connect 4 0 8 1;
#X connect 6 0 13 1;
#X connect 7 0 12 1;
#X connect 8 0 1 0;
#X connect 9 0 8 0;
#X connect 10 0 1 0;
#X connect 10 1 9 0;
#X connect 11 0 6 0;
#X connect 11 0 7 0;
#X connect 12 0 14 0;
#X connect 13 0 10 0;
#X connect 14 0 8 0;
#X connect 14 1 9 0;
#X restore 39 302 pd delay;
#X f 12;
#X obj 32 46 t b b;
#X obj 365 94 inlet;
#X text 409 95 swing amount;
#X connect 0 0 1 0;
#X connect 1 0 12 0;
#X connect 2 0 15 0;
#X connect 4 0 5 1;
#X connect 5 0 7 0;
#X connect 6 0 5 1;
#X connect 7 0 8 0;
#X connect 8 0 13 0;
#X connect 8 1 6 0;
#X connect 9 0 0 0;
#X connect 10 0 11 0;
#X connect 11 0 0 0;
#X connect 12 0 7 1;
#X connect 13 0 14 0;
#X connect 14 0 3 0;
#X connect 15 0 5 0;
#X connect 15 1 14 1;
#X connect 16 0 14 2;
#X restore 421 328 pd tick-counter;
#X text 95 0 Arg1: base beat in beats;
#X obj 543 84 s \$0-reset-ticks;
#X obj 562 345 i 0;
#X obj 562 321 r \$0-reset-loop;
#X obj 537 255 r \$0-reset-ticks;
#X obj 523 300 i 0;
#N canvas 599 273 552 329 loop-counter 0;
#X obj 32 22 inlet;
#X obj 39 270 outlet;
#X obj 83 23 inlet;
#X obj 39 117 i;
#X obj 117 112 + 1;
#X obj 39 146 expr if($f1 >= $f2 \, 0 \, $f1);
#X obj 39 170 t a a;
#X obj 223 67 r \$0-len;
#X connect 0 0 3 0;
#X connect 2 0 3 1;
#X connect 3 0 5 0;
#X connect 4 0 3 1;
#X connect 5 0 6 0;
#X connect 6 0 1 0;
#X connect 6 1 4 0;
#X connect 7 0 5 1;
#X restore 421 403 pd loop-counter;
#X obj 587 109 s \$0-reset-loop;
#N canvas 577 264 450 300 start/stop 0;
#X obj 32 10 inlet;
#X obj 163 14 inlet;
#X obj 163 38 sel 0 1 2, f 30;
#X obj 32 227 spigot;
#X obj 163 62 i 0;
#X obj 188 149 s \$0-valve;
#X obj 106 186 r \$0-valve;
#X obj 231 63 i 1;
#X obj 32 52 t a a;
#X obj 64 87 spigot;
#X obj 64 111 sel 359;
#X obj 64 162 i 1;
#X obj 64 135 t b b;
#X obj 135 104 i 0;
#X obj 187 118 t a b;
#X obj 300 151 s \$0-sync;
#X obj 81 21 r \$0-sync;
#X obj 300 72 t b b;
#X obj 300 96 i 1;
#X obj 340 130 s \$0-valve;
#X obj 335 100 i 0;
#X obj 32 251 outlet;
#X obj 169 238 outlet;
#X connect 0 0 8 0;
#X connect 1 0 2 0;
#X connect 2 0 4 0;
#X connect 2 1 7 0;
#X connect 2 2 17 0;
#X connect 3 0 21 0;
#X connect 4 0 14 0;
#X connect 6 0 3 1;
#X connect 7 0 14 0;
#X connect 8 0 3 0;
#X connect 8 1 9 0;
#X connect 9 0 10 0;
#X connect 10 0 12 0;
#X connect 11 0 3 1;
#X connect 12 0 11 0;
#X connect 12 1 13 0;
#X connect 12 1 22 0;
#X connect 13 0 9 1;
#X connect 14 0 5 0;
#X connect 14 1 13 0;
#X connect 16 0 9 1;
#X connect 17 0 18 0;
#X connect 17 1 20 0;
#X connect 18 0 15 0;
#X connect 20 0 19 0;
#X restore 423 142 pd start/stop;
#X obj 511 57 t a b b, f 11;
#X obj 149 160 s \$0-beat;
#X text 681 33 add a loop argument;
#X obj 192 134 s \$0-loop;
#X text 47 524 one shot/ loop;
#X obj 388 564 t b b;
#X obj 223 700 spigot 0;
#X obj 275 676 i 1;
#X obj 223 648 t b b;
#X obj 283 465 r \$0-loop;
#X obj 283 533 == 0;
#X obj 127 584 r \$0-start/stop;
#X obj 127 637 i 0;
#X obj 127 608 t b;
#X obj 223 751 s \$0-start/stop;
#X obj 223 724 i 0;
#X text 312 4 Arg2: loop?;
#X obj 223 621 spigot 0;
#X obj 236 491 i \$2;
#X obj 232 437 loadbang;
#X obj 222 216 s \$0-swing;
#X obj 39 274 v \$0-swing-track;
#X obj 540 590 t b b;
#N canvas 92 117 647 517 swing-tracker 0;
#X obj 33 32 inlet;
#X obj 97 77 r \$0-swing;
#X obj 53 149 spigot;
#X text 111 113 any value more than 0 open;
#X obj 31 289 v \$0-swing-track;
#X obj 31 313 == 0;
#X obj 31 337 v \$0-swing-track;
#X text 50 265 invert;
#X obj 261 420 outlet;
#X obj 369 328 r \$0-swing;
#X obj 157 172 v \$0-swing-track;
#X obj 157 196 t b a;
#X obj 191 234 sel 0 1;
#X obj 191 333 i 0;
#X obj 288 361 i, f 12;
#X connect 0 0 2 0;
#X connect 1 0 2 1;
#X connect 2 0 10 0;
#X connect 4 0 5 0;
#X connect 5 0 6 0;
#X connect 9 0 14 1;
#X connect 10 0 11 0;
#X connect 11 0 4 0;
#X connect 11 1 12 0;
#X connect 12 0 13 0;
#X connect 12 1 14 0;
#X connect 13 0 8 0;
#X connect 14 0 8 0;
#X restore 637 516 pd swing-tracker;
#X obj 421 529 sel 0, f 14;
#X obj 268 130 clip 0 1;
#X obj 268 154 * 90;
#X text 78 357 ***** if swing is larger than the base beat it crashes;
#X obj 20 54 route free-start sync-start stop beat loop swing fire;
#X obj 335 192 s \$0-fire;
#X obj 737 248 t a a a;
#X connect 0 0 5 0;
#X connect 1 0 8 0;
#X connect 2 0 56 0;
#X connect 4 0 8 0;
#X connect 6 0 58 0;
#X connect 8 0 10 0;
#X connect 8 1 1 1;
#X connect 10 1 9 0;
#X connect 13 0 12 0;
#X connect 14 0 12 0;
#X connect 15 0 12 0;
#X connect 16 0 28 0;
#X connect 17 0 18 0;
#X connect 18 0 25 0;
#X connect 21 0 25 1;
#X connect 22 0 21 0;
#X connect 23 0 24 0;
#X connect 24 0 18 1;
#X connect 25 0 52 0;
#X connect 27 0 17 0;
#X connect 27 1 24 0;
#X connect 28 0 27 1;
#X connect 28 1 20 0;
#X connect 28 2 26 0;
#X connect 33 0 45 0;
#X connect 33 1 4 0;
#X connect 33 1 51 0;
#X connect 34 0 43 0;
#X connect 35 0 34 1;
#X connect 36 0 35 0;
#X connect 36 1 34 0;
#X connect 37 0 38 0;
#X connect 38 0 45 1;
#X connect 39 0 41 0;
#X connect 40 0 34 1;
#X connect 41 0 40 0;
#X connect 43 0 42 0;
#X connect 45 0 36 0;
#X connect 46 0 38 0;
#X connect 47 0 46 0;
#X connect 50 0 1 0;
#X connect 50 1 51 0;
#X connect 51 0 18 2;
#X connect 52 0 33 0;
#X connect 52 1 50 0;
#X connect 53 0 54 0;
#X connect 54 0 48 0;
#X connect 56 0 13 0;
#X connect 56 1 14 0;
#X connect 56 2 15 0;
#X connect 56 3 29 0;
#X connect 56 4 31 0;
#X connect 56 5 53 0;
#X connect 56 6 57 0;
#X connect 56 7 27 0;
#X connect 58 1 4 1;
#X connect 58 2 0 0;
