#N canvas 63 88 1091 562 12;
#X declare -path ../lib;
#X obj 20 12 declare -path ../lib;
#N canvas 92 117 614 388 midi-in 0;
#X obj 136 22 notein;
#X obj 136 68 pack 0 0;
#X obj 54 23 ctlin;
#X obj 54 129 pack, f 6;
#X obj 54 85 i;
#X obj 54 53 t b a;
#X obj 54 153 s ctls;
#X obj 136 92 s midi-notes-in;
#X connect 0 0 1 0;
#X connect 0 1 1 1;
#X connect 1 0 7 0;
#X connect 2 0 5 0;
#X connect 2 1 4 1;
#X connect 3 0 6 0;
#X connect 4 0 3 0;
#X connect 5 0 4 0;
#X connect 5 1 3 1;
#X restore 19 37 pd midi-in;
#X obj 17 63 loadbang;
#N canvas 92 117 450 300 init 0;
#X obj 37 37 inlet;
#X obj 37 61 t b b b;
#X obj 83 119 pdcontrol;
#X msg 83 92 dir;
#X obj 99 154 v lib-dir;
#X obj 83 183 print current-dir;
#X connect 0 0 1 0;
#X connect 1 2 3 0;
#X connect 2 0 4 0;
#X connect 2 0 5 0;
#X connect 3 0 2 0;
#X restore 17 87 pd init;
#N canvas 121 146 450 300 metro 0;
#X obj 24 51 tgl 15 0 empty empty empty 17 7 0 10 #fcfcfc #000000 #000000 0 1;
#X obj 24 114 s ticks;
#X floatatom 105 47 5 0 0 0 - - - 0;
#X obj 24 81 metro360 120;
#X obj 22 12 inlet;
#X connect 0 0 3 0;
#X connect 2 0 3 1;
#X connect 3 0 1 0;
#X connect 4 0 0 0;
#X restore 21 144 pd metro;
#X obj 21 124 tgl 15 0 empty empty empty 17 7 0 10 #fcfcfc #000000 #000000 0 1;
#N canvas 150 175 802 528 output 0;
#X obj 89 36 inlet;
#X obj 67 223 catch~ main-outL;
#X obj 217 227 catch~ main-outR;
#X obj 67 247 *~;
#X obj 217 251 *~;
#X obj 238 83 hsl 162 19 0 127 0 0 empty empty empty -2 -10 0 12 #fcfcfc #000000 #000000 0 1;
#X obj 235 115 / 127;
#X obj 235 170 lop~ 5;
#X obj 235 139 pow 2;
#X obj 67 306 dac~ 1 2;
#X connect 0 0 6 0;
#X connect 1 0 3 0;
#X connect 2 0 4 0;
#X connect 3 0 9 0;
#X connect 4 0 9 1;
#X connect 5 0 6 0;
#X connect 6 0 8 0;
#X connect 7 0 3 1;
#X connect 7 0 4 1;
#X connect 8 0 7 0;
#X restore 20 224 pd output;
#X obj 23 192 hsl 162 19 0 127 0 0 empty empty empty -2 -10 0 12 #fcfcfc #000000 #000000 0 1;
#X connect 2 0 3 0;
#X connect 5 0 4 0;
#X connect 7 0 6 0;
