#N canvas 263 117 831 587 12;
#X obj 113 530 dac~ 1 2;
#X obj 113 281 inlet~;
#X obj 227 307 / 127;
#X obj 227 329 pow 2;
#X obj 113 324 *~;
#X obj 190 107 vsl 40 60 0 127 0 0 empty empty empty 0 -9 0 10 #a8bcf0 #000000 #000000 0 1;
#X obj 105 103 bng 30 250 50 0 empty empty MUTE 35 20 0 10 #fcfcfc #000000 #000000;
#X msg 198 53 0;
#X obj 159 279 inlet~;
#X obj 159 322 *~;
#N canvas 0 25 450 300 safety 0;
#X obj 41 19 inlet~;
#X obj 41 49 env~;
#X obj 41 73 >= 109;
#X obj 41 129 sel 1;
#X obj 41 103 change -1;
#X obj 41 159 outlet;
#X connect 0 0 1 0;
#X connect 1 0 2 0;
#X connect 2 0 4 0;
#X connect 3 0 5 0;
#X connect 4 0 3 0;
#X restore 363 174 pd safety;
#X obj 159 380 delwrite~ \$0-hi 10;
#X obj 115 410 delwrite~ \$0-hiL 10;
#X obj 113 476 delread~ \$0-hiL 10;
#X obj 158 497 delread~ \$0-hi 10;
#X obj 363 204 print LOUD!!;
#X text 291 144 safety feature so no blow out;
#X obj 370 295 catch~ main-out-mono;
#X obj 370 355 *~ 0.707;
#X obj 508 359 *~ 0.707;
#X obj 370 408 throw~ main-outL;
#X obj 508 403 throw~ main-outR;
#X text 470 314 Mono out reduce volume a bit;
#X obj 31 256 catch~ main-outL;
#X obj 230 281 catch~ main-outR;
#X text 271 235 stereo out;
#X obj 227 350 lop~ 1000;
#X obj 119 149 vu 15 80 empty empty -1 -8 0 10 #404040 #000000 1 0;
#X obj 26 511 outlet~;
#X obj 365 478 outlet~;
#N canvas 329 161 625 417 vu 0;
#X obj 59 129 env~ 1024;
#X obj 161 111 abs~;
#X obj 161 213 snapshot~;
#X obj 161 256 rmstodb;
#X obj 161 21 inlet~;
#X obj 161 288 - 100;
#X obj 59 287 - 100;
#X obj 59 361 outlet;
#X obj 161 361 outlet;
#X text 344 307 Check the help file of env~ and slop~ for more details., f 31;
#X obj 239 89 expr 1000 / $f1;
#X floatatom 239 117 5 0 0 0 - - - 0;
#X obj 161 146 slop~ 0 0 0 0 1e+09;
#X obj 239 18 inlet;
#X floatatom 239 57 5 0 0 0 - - - 0;
#X text 359 89 convert to hz;
#X text 282 118 hz;
#X text 284 57 peak decay time in ms;
#X obj 59 171 t f b;
#X text 345 132 The env~ object is dedicated to RMS analysis. Its output is in dB (0-100 range \, pd style) but needs to be converted to dBFS (and we do that by simply subtracting 100)., f 31;
#X text 345 225 The slop~ object is used here for peak detection. We need to convert the output to dB with rmstodb and also subtract by 100 to convert it to dBFS., f 31;
#X connect 0 0 18 0;
#X connect 1 0 12 0;
#X connect 2 0 3 0;
#X connect 3 0 5 0;
#X connect 4 0 0 0;
#X connect 4 0 1 0;
#X connect 5 0 8 0;
#X connect 6 0 7 0;
#X connect 10 0 11 0;
#X connect 11 0 12 3;
#X connect 12 0 2 0;
#X connect 13 0 14 0;
#X connect 14 0 10 0;
#X connect 18 0 6 0;
#X connect 18 1 2 0;
#X restore 28 445 pd vu;
#X floatatom 60 391 6 0 1000 0 - decay - 0;
#X text 75 444 <-- open for analysis;
#X text 108 391 <--;
#X obj 567 92 inlet;
#X text 617 97 control;
#X obj 567 146 clip 0 127;
#X connect 1 0 4 0;
#X connect 1 0 10 0;
#X connect 2 0 3 0;
#X connect 3 0 26 0;
#X connect 4 0 12 0;
#X connect 4 0 30 0;
#X connect 4 0 28 0;
#X connect 5 0 2 0;
#X connect 6 0 7 0;
#X connect 7 0 5 0;
#X connect 8 0 9 0;
#X connect 8 0 10 0;
#X connect 9 0 11 0;
#X connect 9 0 29 0;
#X connect 10 0 15 0;
#X connect 13 0 0 0;
#X connect 14 0 0 1;
#X connect 17 0 18 0;
#X connect 17 0 19 0;
#X connect 18 0 20 0;
#X connect 19 0 21 0;
#X connect 23 0 4 0;
#X connect 24 0 9 0;
#X connect 26 0 4 1;
#X connect 26 0 9 1;
#X connect 30 0 27 0;
#X connect 30 1 27 1;
#X connect 31 0 30 1;
#X connect 34 0 36 0;
#X connect 36 0 5 0;
#X coords 0 -1 1 1 140 140 2 100 100;
