#N canvas 63 88 754 438 12;
#X msg 192 95 sync-start;
#X msg 280 94 stop;
#X msg 279 124 phase -0.25;
#X obj 195 159 tick-osc 1 0;
#X obj 195 183 * 127;
#X obj 194 218 vsl 19 162 0 127 0 0 empty empty empty 0 -9 0 12 #fcfcfc #000000 #000000 0 1;
#X obj 406 41 tgl 15 0 empty empty empty 17 7 0 10 #fcfcfc #000000 #000000 0 1;
#X floatatom 485 42 5 0 0 0 - - - 0;
#X obj 405 81 metro360 120;
#X obj 405 114 s \$0-ticks;
#X obj 158 65 r \$0-ticks;
#X connect 0 0 3 0;
#X connect 1 0 3 0;
#X connect 2 0 3 0;
#X connect 3 0 4 0;
#X connect 4 0 5 0;
#X connect 6 0 8 0;
#X connect 7 0 8 1;
#X connect 8 0 9 0;
#X connect 10 0 3 0;
