#N canvas 536 333 853 476 12;
#X obj 409 49 inlet;
#X text 455 49 ticks;
#X text 85 58 trigger;
#X obj 40 56 inlet;
#X obj 413 101 spigot 0;
#X obj 177 55 inlet;
#X text 218 54 delay amount in ticks;
#X obj 472 153 i 0;
#X obj 165 234 s \$0-valve;
#X obj 167 208 i 1;
#X obj 476 70 r \$0-valve;
#X obj 134 173 t b b b;
#X obj 209 202 s \$0-restart;
#X obj 472 126 r \$0-restart;
#X obj 30 117 i 0;
#X obj 413 125 t b;
#X obj 415 271 >= \$1;
#X obj 415 295 sel 1;
#X obj 448 379 s \$0-valve;
#X obj 450 353 i 0;
#X obj 415 319 t b b;
#X obj 350 438 outlet;
#X obj 40 80 route stop;
#X obj 30 143 s \$0-valve;
#X obj 486 200 + 1;
#X obj 415 196 i 0;
#X connect 0 0 4 0;
#X connect 3 0 22 0;
#X connect 4 0 15 0;
#X connect 5 0 16 1;
#X connect 7 0 25 1;
#X connect 9 0 8 0;
#X connect 10 0 4 1;
#X connect 11 1 9 0;
#X connect 11 2 12 0;
#X connect 13 0 7 0;
#X connect 14 0 23 0;
#X connect 15 0 25 0;
#X connect 16 0 17 0;
#X connect 17 0 20 0;
#X connect 19 0 18 0;
#X connect 20 0 21 0;
#X connect 20 1 19 0;
#X connect 22 0 14 0;
#X connect 22 1 11 0;
#X connect 24 0 25 1;
#X connect 25 0 24 0;
#X connect 25 0 16 0;
