#N canvas 0 25 629 425 12;
#X obj 244 168 pow 0.5;
#X obj 244 68 t a a, f 13;
#X obj 332 167 pow 0.5;
#X msg 244 111 1 \$1;
#X obj 244 135 -;
#X obj 18 316 *~;
#X obj 132 319 *~;
#X msg 36 265 \$1 \$2;
#X obj 36 289 line~;
#X obj 36 235 pack 0 \$1;
#X msg 150 270 \$1 \$2;
#X obj 150 294 line~;
#X obj 150 240 pack 0 \$1;
#X obj 18 380 outlet~;
#X text 383 30 Arg1: smoothing time in ms;
#X obj 18 22 inlet~;
#X text 30 42 left;
#X obj 132 25 inlet~;
#X text 154 46 right;
#X obj 244 18 inlet;
#X text 287 18 fade 0-1;
#X obj 244 42 clip 0 1;
#X connect 0 0 9 0;
#X connect 1 0 3 0;
#X connect 1 1 2 0;
#X connect 2 0 12 0;
#X connect 3 0 4 0;
#X connect 4 0 0 0;
#X connect 5 0 13 0;
#X connect 6 0 13 0;
#X connect 7 0 8 0;
#X connect 8 0 5 1;
#X connect 9 0 7 0;
#X connect 10 0 11 0;
#X connect 11 0 6 1;
#X connect 12 0 10 0;
#X connect 15 0 5 0;
#X connect 17 0 6 0;
#X connect 19 0 21 0;
#X connect 21 0 1 0;
