#N canvas 215 280 1037 398 12;
#X obj 140 168 fm6/fmMatrixOp~;
#X obj 376 269 *~ 1;
#X obj 198 308 outlet~;
#X obj 261 307 outlet~;
#X obj 198 258 *~;
#X obj 250 261 *~;
#X obj 274 95 r \$1-\$2-pan;
#X obj 198 218 j-pan-2~ 5;
#X obj 306 185 lop~ 20;
#X obj 376 300 clone -s 1 mod-matrix-out 6 \$1 \$2;
#X obj 332 143 `;
#X obj 247 50 clone -s 1 mod-matrix-in 6 \$1 \$2;
#X connect 0 1 1 0;
#X connect 0 1 7 0;
#X connect 0 2 1 0;
#X connect 0 2 7 1;
#X connect 1 0 9 0;
#X connect 4 0 2 0;
#X connect 5 0 3 0;
#X connect 6 0 7 2;
#X connect 7 0 4 0;
#X connect 7 1 5 0;
#X connect 8 0 4 1;
#X connect 8 0 5 1;
#X connect 10 0 8 0;
#X connect 11 0 0 2;
