#N canvas 42 30 1398 842 10;
#X obj 10 1105 inlet;
#X obj 130 1105 r \$0-read;
#X obj 130 1135 faust-control \$0;
#X obj 130 1165 s \$0-write;
#X obj 584 1223 r \$0-in;
#X obj 267 1367 s \$0-out;
#X obj 416 1390 outlet~;
#X obj 586 1383 outlet~;
#X obj 10 1338 outlet;
#X obj 10 25 hsl 128 15 0 200 0 0 \$0-fm3-LFO/LFO/LFO-env-amt \$0-fm3-LFO/LFO/LFO-env-amt LFO-env-amt -2 -6 0 10 #fcfcfc #000000 #000000 0 1;
#X obj 160 25 nbx 5 14 0 200 0 0 \$0-fm3-LFO/LFO/LFO-env-amt \$0-fm3-LFO/LFO/LFO-env-amt empty 0 -6 0 10 #fcfcfc #000000 #000000 0 256;
#X obj 235 25 hsl 128 15 0 200 0 0 \$0-fm3-LFO/LFO/LFO-rate \$0-fm3-LFO/LFO/LFO-rate LFO-rate -2 -6 0 10 #fcfcfc #000000 #000000 0 1;
#X obj 385 25 nbx 5 14 0 200 0 0 \$0-fm3-LFO/LFO/LFO-rate \$0-fm3-LFO/LFO/LFO-rate empty 0 -6 0 10 #fcfcfc #000000 #000000 0 256;
#X obj 460 25 hsl 128 15 0 1 0 0 \$0-fm3-LFO/LFO/aL \$0-fm3-LFO/LFO/aL aL -2 -6 0 10 #fcfcfc #000000 #000000 0 1;
#X obj 610 25 nbx 5 14 0 1 0 0 \$0-fm3-LFO/LFO/aL \$0-fm3-LFO/LFO/aL empty 0 -6 0 10 #fcfcfc #000000 #000000 0 256;
#X obj 685 25 hsl 128 15 0.001 12 0 0 \$0-fm3-LFO/LFO/aR \$0-fm3-LFO/LFO/aR aR -2 -6 0 10 #fcfcfc #000000 #000000 0 1;
#X obj 835 25 nbx 5 14 0.001 12 0 0 \$0-fm3-LFO/LFO/aR \$0-fm3-LFO/LFO/aR empty 0 -6 0 10 #fcfcfc #000000 #000000 0 256;
#X obj 910 25 hsl 128 15 0 1 0 0 \$0-fm3-LFO/LFO/dL \$0-fm3-LFO/LFO/dL dL -2 -6 0 10 #fcfcfc #000000 #000000 0 1;
#X obj 1060 25 nbx 5 14 0 1 0 0 \$0-fm3-LFO/LFO/dL \$0-fm3-LFO/LFO/dL empty 0 -6 0 10 #fcfcfc #000000 #000000 0 256;
#X obj 1135 25 hsl 128 15 0.001 12 0 0 \$0-fm3-LFO/LFO/dR \$0-fm3-LFO/LFO/dR dR -2 -6 0 10 #fcfcfc #000000 #000000 0 1;
#X obj 1285 25 nbx 5 14 0.001 12 0 0 \$0-fm3-LFO/LFO/dR \$0-fm3-LFO/LFO/dR empty 0 -6 0 10 #fcfcfc #000000 #000000 0 256;
#X obj 1360 25 bng 15 250 50 0 \$0-fm3-LFO/LFO/gate \$0-fm3-LFO/LFO/gate gate 0 -6 0 10 #fcfcfc #000000 #000000;
#X obj 1410 25 hsl 128 15 0 1 0 0 \$0-fm3-LFO/LFO/rL \$0-fm3-LFO/LFO/rL rL -2 -6 0 10 #fcfcfc #000000 #000000 0 1;
#X obj 1560 25 nbx 5 14 0 1 0 0 \$0-fm3-LFO/LFO/rL \$0-fm3-LFO/LFO/rL empty 0 -6 0 10 #fcfcfc #000000 #000000 0 256;
#X obj 1635 25 hsl 128 15 0.001 12 0 0 \$0-fm3-LFO/LFO/rR \$0-fm3-LFO/LFO/rR rR -2 -6 0 10 #fcfcfc #000000 #000000 0 1;
#X obj 1785 25 nbx 5 14 0.001 12 0 0 \$0-fm3-LFO/LFO/rR \$0-fm3-LFO/LFO/rR empty 0 -6 0 10 #fcfcfc #000000 #000000 0 256;
#X obj 1860 25 hsl 128 15 0 1 0 0 \$0-fm3-LFO/LFO/sL \$0-fm3-LFO/LFO/sL sL -2 -6 0 10 #fcfcfc #000000 #000000 0 1;
#X obj 2010 25 nbx 5 14 0 1 0 0 \$0-fm3-LFO/LFO/sL \$0-fm3-LFO/LFO/sL empty 0 -6 0 10 #fcfcfc #000000 #000000 0 256;
#X obj 2085 25 hsl 128 15 0.001 12 0 0 \$0-fm3-LFO/LFO/sR \$0-fm3-LFO/LFO/sR sR -2 -6 0 10 #fcfcfc #000000 #000000 0 1;
#X obj 2235 25 nbx 5 14 0.001 12 0 0 \$0-fm3-LFO/LFO/sR \$0-fm3-LFO/LFO/sR empty 0 -6 0 10 #fcfcfc #000000 #000000 0 256;
#X obj 10 55 hsl 128 15 0 5 0 0 \$0-fm3-LFO/op1/amp \$0-fm3-LFO/op1/amp amp -2 -6 0 10 #fcfcfc #000000 #000000 0 1;
#X obj 160 55 nbx 5 14 0 5 0 0 \$0-fm3-LFO/op1/amp \$0-fm3-LFO/op1/amp empty 0 -6 0 10 #fcfcfc #000000 #000000 0 256;
#X obj 235 55 hsl 128 15 0 1 0 0 \$0-fm3-LFO/op1/amp-envelope/aL \$0-fm3-LFO/op1/amp-envelope/aL aL -2 -6 0 10 #fcfcfc #000000 #000000 0 1;
#X obj 385 55 nbx 5 14 0 1 0 0 \$0-fm3-LFO/op1/amp-envelope/aL \$0-fm3-LFO/op1/amp-envelope/aL empty 0 -6 0 10 #fcfcfc #000000 #000000 0 256;
#X obj 235 85 hsl 128 15 0.001 12 0 0 \$0-fm3-LFO/op1/amp-envelope/aR \$0-fm3-LFO/op1/amp-envelope/aR aR -2 -6 0 10 #fcfcfc #000000 #000000 0 1;
#X obj 385 85 nbx 5 14 0.001 12 0 0 \$0-fm3-LFO/op1/amp-envelope/aR \$0-fm3-LFO/op1/amp-envelope/aR empty 0 -6 0 10 #fcfcfc #000000 #000000 0 256;
#X obj 235 115 hsl 128 15 0 1 0 0 \$0-fm3-LFO/op1/amp-envelope/dL \$0-fm3-LFO/op1/amp-envelope/dL dL -2 -6 0 10 #fcfcfc #000000 #000000 0 1;
#X obj 385 115 nbx 5 14 0 1 0 0 \$0-fm3-LFO/op1/amp-envelope/dL \$0-fm3-LFO/op1/amp-envelope/dL empty 0 -6 0 10 #fcfcfc #000000 #000000 0 256;
#X obj 235 145 hsl 128 15 0.001 12 0 0 \$0-fm3-LFO/op1/amp-envelope/dR \$0-fm3-LFO/op1/amp-envelope/dR dR -2 -6 0 10 #fcfcfc #000000 #000000 0 1;
#X obj 385 145 nbx 5 14 0.001 12 0 0 \$0-fm3-LFO/op1/amp-envelope/dR \$0-fm3-LFO/op1/amp-envelope/dR empty 0 -6 0 10 #fcfcfc #000000 #000000 0 256;
#X obj 235 175 bng 15 250 50 0 \$0-fm3-LFO/op1/amp-envelope/gate \$0-fm3-LFO/op1/amp-envelope/gate gate 0 -6 0 10 #fcfcfc #000000 #000000;
#X obj 235 205 hsl 128 15 0 1 0 0 \$0-fm3-LFO/op1/amp-envelope/rL \$0-fm3-LFO/op1/amp-envelope/rL rL -2 -6 0 10 #fcfcfc #000000 #000000 0 1;
#X obj 385 205 nbx 5 14 0 1 0 0 \$0-fm3-LFO/op1/amp-envelope/rL \$0-fm3-LFO/op1/amp-envelope/rL empty 0 -6 0 10 #fcfcfc #000000 #000000 0 256;
#X obj 235 235 hsl 128 15 0.001 12 0 0 \$0-fm3-LFO/op1/amp-envelope/rR \$0-fm3-LFO/op1/amp-envelope/rR rR -2 -6 0 10 #fcfcfc #000000 #000000 0 1;
#X obj 385 235 nbx 5 14 0.001 12 0 0 \$0-fm3-LFO/op1/amp-envelope/rR \$0-fm3-LFO/op1/amp-envelope/rR empty 0 -6 0 10 #fcfcfc #000000 #000000 0 256;
#X obj 235 265 hsl 128 15 0 1 0 0 \$0-fm3-LFO/op1/amp-envelope/sL \$0-fm3-LFO/op1/amp-envelope/sL sL -2 -6 0 10 #fcfcfc #000000 #000000 0 1;
#X obj 385 265 nbx 5 14 0 1 0 0 \$0-fm3-LFO/op1/amp-envelope/sL \$0-fm3-LFO/op1/amp-envelope/sL empty 0 -6 0 10 #fcfcfc #000000 #000000 0 256;
#X obj 235 295 hsl 128 15 0.001 12 0 0 \$0-fm3-LFO/op1/amp-envelope/sR \$0-fm3-LFO/op1/amp-envelope/sR sR -2 -6 0 10 #fcfcfc #000000 #000000 0 1;
#X obj 385 295 nbx 5 14 0.001 12 0 0 \$0-fm3-LFO/op1/amp-envelope/sR \$0-fm3-LFO/op1/amp-envelope/sR empty 0 -6 0 10 #fcfcfc #000000 #000000 0 256;
#X obj 460 55 hsl 128 15 0 18 0 0 \$0-fm3-LFO/op1/fb \$0-fm3-LFO/op1/fb fb -2 -6 0 10 #fcfcfc #000000 #000000 0 1;
#X obj 610 55 nbx 5 14 0 18 0 0 \$0-fm3-LFO/op1/fb \$0-fm3-LFO/op1/fb empty 0 -6 0 10 #fcfcfc #000000 #000000 0 256;
#X obj 685 55 hsl 128 15 20 2000 0 0 \$0-fm3-LFO/op1/freq \$0-fm3-LFO/op1/freq freq -2 -6 0 10 #fcfcfc #000000 #000000 0 1;
#X obj 835 55 nbx 5 14 20 2000 0 0 \$0-fm3-LFO/op1/freq \$0-fm3-LFO/op1/freq empty 0 -6 0 10 #fcfcfc #000000 #000000 0 256;
#X obj 910 55 hsl 128 15 0 1 0 0 \$0-fm3-LFO/op1/freq-envelope/aL \$0-fm3-LFO/op1/freq-envelope/aL aL -2 -6 0 10 #fcfcfc #000000 #000000 0 1;
#X obj 1060 55 nbx 5 14 0 1 0 0 \$0-fm3-LFO/op1/freq-envelope/aL \$0-fm3-LFO/op1/freq-envelope/aL empty 0 -6 0 10 #fcfcfc #000000 #000000 0 256;
#X obj 910 85 hsl 128 15 0.001 12 0 0 \$0-fm3-LFO/op1/freq-envelope/aR \$0-fm3-LFO/op1/freq-envelope/aR aR -2 -6 0 10 #fcfcfc #000000 #000000 0 1;
#X obj 1060 85 nbx 5 14 0.001 12 0 0 \$0-fm3-LFO/op1/freq-envelope/aR \$0-fm3-LFO/op1/freq-envelope/aR empty 0 -6 0 10 #fcfcfc #000000 #000000 0 256;
#X obj 910 115 hsl 128 15 0 1 0 0 \$0-fm3-LFO/op1/freq-envelope/dL \$0-fm3-LFO/op1/freq-envelope/dL dL -2 -6 0 10 #fcfcfc #000000 #000000 0 1;
#X obj 1060 115 nbx 5 14 0 1 0 0 \$0-fm3-LFO/op1/freq-envelope/dL \$0-fm3-LFO/op1/freq-envelope/dL empty 0 -6 0 10 #fcfcfc #000000 #000000 0 256;
#X obj 910 145 hsl 128 15 0.001 12 0 0 \$0-fm3-LFO/op1/freq-envelope/dR \$0-fm3-LFO/op1/freq-envelope/dR dR -2 -6 0 10 #fcfcfc #000000 #000000 0 1;
#X obj 1060 145 nbx 5 14 0.001 12 0 0 \$0-fm3-LFO/op1/freq-envelope/dR \$0-fm3-LFO/op1/freq-envelope/dR empty 0 -6 0 10 #fcfcfc #000000 #000000 0 256;
#X obj 910 175 hsl 128 15 -48 48 0 0 \$0-fm3-LFO/op1/freq-envelope/freq-center \$0-fm3-LFO/op1/freq-envelope/freq-center freq-center -2 -6 0 10 #fcfcfc #000000 #000000 0 1;
#X obj 1060 175 nbx 5 14 -48 48 0 0 \$0-fm3-LFO/op1/freq-envelope/freq-center \$0-fm3-LFO/op1/freq-envelope/freq-center empty 0 -6 0 10 #fcfcfc #000000 #000000 0 256;
#X obj 910 205 hsl 128 15 0 48 0 0 \$0-fm3-LFO/op1/freq-envelope/freq-depth \$0-fm3-LFO/op1/freq-envelope/freq-depth freq-depth -2 -6 0 10 #fcfcfc #000000 #000000 0 1;
#X obj 1060 205 nbx 5 14 0 48 0 0 \$0-fm3-LFO/op1/freq-envelope/freq-depth \$0-fm3-LFO/op1/freq-envelope/freq-depth empty 0 -6 0 10 #fcfcfc #000000 #000000 0 256;
#X obj 910 235 bng 15 250 50 0 \$0-fm3-LFO/op1/freq-envelope/gate \$0-fm3-LFO/op1/freq-envelope/gate gate 0 -6 0 10 #fcfcfc #000000 #000000;
#X obj 910 265 hsl 128 15 0 1 0 0 \$0-fm3-LFO/op1/freq-envelope/rL \$0-fm3-LFO/op1/freq-envelope/rL rL -2 -6 0 10 #fcfcfc #000000 #000000 0 1;
#X obj 1060 265 nbx 5 14 0 1 0 0 \$0-fm3-LFO/op1/freq-envelope/rL \$0-fm3-LFO/op1/freq-envelope/rL empty 0 -6 0 10 #fcfcfc #000000 #000000 0 256;
#X obj 910 295 hsl 128 15 0.001 12 0 0 \$0-fm3-LFO/op1/freq-envelope/rR \$0-fm3-LFO/op1/freq-envelope/rR rR -2 -6 0 10 #fcfcfc #000000 #000000 0 1;
#X obj 1060 295 nbx 5 14 0.001 12 0 0 \$0-fm3-LFO/op1/freq-envelope/rR \$0-fm3-LFO/op1/freq-envelope/rR empty 0 -6 0 10 #fcfcfc #000000 #000000 0 256;
#X obj 910 325 hsl 128 15 0 1 0 0 \$0-fm3-LFO/op1/freq-envelope/sL \$0-fm3-LFO/op1/freq-envelope/sL sL -2 -6 0 10 #fcfcfc #000000 #000000 0 1;
#X obj 1060 325 nbx 5 14 0 1 0 0 \$0-fm3-LFO/op1/freq-envelope/sL \$0-fm3-LFO/op1/freq-envelope/sL empty 0 -6 0 10 #fcfcfc #000000 #000000 0 256;
#X obj 910 355 hsl 128 15 0.001 12 0 0 \$0-fm3-LFO/op1/freq-envelope/sR \$0-fm3-LFO/op1/freq-envelope/sR sR -2 -6 0 10 #fcfcfc #000000 #000000 0 1;
#X obj 1060 355 nbx 5 14 0.001 12 0 0 \$0-fm3-LFO/op1/freq-envelope/sR \$0-fm3-LFO/op1/freq-envelope/sR empty 0 -6 0 10 #fcfcfc #000000 #000000 0 256;
#X obj 1135 55 hsl 128 15 0.001 12 0 0 \$0-fm3-LFO/op1/index \$0-fm3-LFO/op1/index index -2 -6 0 10 #fcfcfc #000000 #000000 0 1;
#X obj 1285 55 nbx 5 14 0.001 12 0 0 \$0-fm3-LFO/op1/index \$0-fm3-LFO/op1/index empty 0 -6 0 10 #fcfcfc #000000 #000000 0 256;
#X obj 1360 55 hsl 128 15 0 1 0 0 \$0-fm3-LFO/op1/lfo-amt \$0-fm3-LFO/op1/lfo-amt lfo-amt -2 -6 0 10 #fcfcfc #000000 #000000 0 1;
#X obj 1510 55 nbx 5 14 0 1 0 0 \$0-fm3-LFO/op1/lfo-amt \$0-fm3-LFO/op1/lfo-amt empty 0 -6 0 10 #fcfcfc #000000 #000000 0 256;
#X obj 1585 55 hsl 128 15 0 1 0 0 \$0-fm3-LFO/op1/lfo-phase \$0-fm3-LFO/op1/lfo-phase lfo-phase -2 -6 0 10 #fcfcfc #000000 #000000 0 1;
#X obj 1735 55 nbx 5 14 0 1 0 0 \$0-fm3-LFO/op1/lfo-phase \$0-fm3-LFO/op1/lfo-phase empty 0 -6 0 10 #fcfcfc #000000 #000000 0 256;
#X obj 1810 55 hsl 128 15 -1000 1000 0 0 \$0-fm3-LFO/op1/offset \$0-fm3-LFO/op1/offset offset -2 -6 0 10 #fcfcfc #000000 #000000 0 1;
#X obj 1960 55 nbx 5 14 -1000 1000 0 0 \$0-fm3-LFO/op1/offset \$0-fm3-LFO/op1/offset empty 0 -6 0 10 #fcfcfc #000000 #000000 0 256;
#X obj 2035 55 hsl 128 15 0 1 0 0 \$0-fm3-LFO/op1/pan \$0-fm3-LFO/op1/pan pan -2 -6 0 10 #fcfcfc #000000 #000000 0 1;
#X obj 2185 55 nbx 5 14 0 1 0 0 \$0-fm3-LFO/op1/pan \$0-fm3-LFO/op1/pan empty 0 -6 0 10 #fcfcfc #000000 #000000 0 256;
#X obj 10 385 hsl 128 15 0 5 0 0 \$0-fm3-LFO/op2/amp \$0-fm3-LFO/op2/amp amp -2 -6 0 10 #fcfcfc #000000 #000000 0 1;
#X obj 160 385 nbx 5 14 0 5 0 0 \$0-fm3-LFO/op2/amp \$0-fm3-LFO/op2/amp empty 0 -6 0 10 #fcfcfc #000000 #000000 0 256;
#X obj 235 385 hsl 128 15 0 1 0 0 \$0-fm3-LFO/op2/amp-envelope/aL \$0-fm3-LFO/op2/amp-envelope/aL aL -2 -6 0 10 #fcfcfc #000000 #000000 0 1;
#X obj 385 385 nbx 5 14 0 1 0 0 \$0-fm3-LFO/op2/amp-envelope/aL \$0-fm3-LFO/op2/amp-envelope/aL empty 0 -6 0 10 #fcfcfc #000000 #000000 0 256;
#X obj 235 415 hsl 128 15 0.001 12 0 0 \$0-fm3-LFO/op2/amp-envelope/aR \$0-fm3-LFO/op2/amp-envelope/aR aR -2 -6 0 10 #fcfcfc #000000 #000000 0 1;
#X obj 385 415 nbx 5 14 0.001 12 0 0 \$0-fm3-LFO/op2/amp-envelope/aR \$0-fm3-LFO/op2/amp-envelope/aR empty 0 -6 0 10 #fcfcfc #000000 #000000 0 256;
#X obj 235 445 hsl 128 15 0 1 0 0 \$0-fm3-LFO/op2/amp-envelope/dL \$0-fm3-LFO/op2/amp-envelope/dL dL -2 -6 0 10 #fcfcfc #000000 #000000 0 1;
#X obj 385 445 nbx 5 14 0 1 0 0 \$0-fm3-LFO/op2/amp-envelope/dL \$0-fm3-LFO/op2/amp-envelope/dL empty 0 -6 0 10 #fcfcfc #000000 #000000 0 256;
#X obj 235 475 hsl 128 15 0.001 12 0 0 \$0-fm3-LFO/op2/amp-envelope/dR \$0-fm3-LFO/op2/amp-envelope/dR dR -2 -6 0 10 #fcfcfc #000000 #000000 0 1;
#X obj 385 475 nbx 5 14 0.001 12 0 0 \$0-fm3-LFO/op2/amp-envelope/dR \$0-fm3-LFO/op2/amp-envelope/dR empty 0 -6 0 10 #fcfcfc #000000 #000000 0 256;
#X obj 235 505 bng 15 250 50 0 \$0-fm3-LFO/op2/amp-envelope/gate \$0-fm3-LFO/op2/amp-envelope/gate gate 0 -6 0 10 #fcfcfc #000000 #000000;
#X obj 235 535 hsl 128 15 0 1 0 0 \$0-fm3-LFO/op2/amp-envelope/rL \$0-fm3-LFO/op2/amp-envelope/rL rL -2 -6 0 10 #fcfcfc #000000 #000000 0 1;
#X obj 385 535 nbx 5 14 0 1 0 0 \$0-fm3-LFO/op2/amp-envelope/rL \$0-fm3-LFO/op2/amp-envelope/rL empty 0 -6 0 10 #fcfcfc #000000 #000000 0 256;
#X obj 235 565 hsl 128 15 0.001 12 0 0 \$0-fm3-LFO/op2/amp-envelope/rR \$0-fm3-LFO/op2/amp-envelope/rR rR -2 -6 0 10 #fcfcfc #000000 #000000 0 1;
#X obj 385 565 nbx 5 14 0.001 12 0 0 \$0-fm3-LFO/op2/amp-envelope/rR \$0-fm3-LFO/op2/amp-envelope/rR empty 0 -6 0 10 #fcfcfc #000000 #000000 0 256;
#X obj 235 595 hsl 128 15 0 1 0 0 \$0-fm3-LFO/op2/amp-envelope/sL \$0-fm3-LFO/op2/amp-envelope/sL sL -2 -6 0 10 #fcfcfc #000000 #000000 0 1;
#X obj 385 595 nbx 5 14 0 1 0 0 \$0-fm3-LFO/op2/amp-envelope/sL \$0-fm3-LFO/op2/amp-envelope/sL empty 0 -6 0 10 #fcfcfc #000000 #000000 0 256;
#X obj 235 625 hsl 128 15 0.001 12 0 0 \$0-fm3-LFO/op2/amp-envelope/sR \$0-fm3-LFO/op2/amp-envelope/sR sR -2 -6 0 10 #fcfcfc #000000 #000000 0 1;
#X obj 385 625 nbx 5 14 0.001 12 0 0 \$0-fm3-LFO/op2/amp-envelope/sR \$0-fm3-LFO/op2/amp-envelope/sR empty 0 -6 0 10 #fcfcfc #000000 #000000 0 256;
#X obj 460 385 hsl 128 15 0 18 0 0 \$0-fm3-LFO/op2/fb \$0-fm3-LFO/op2/fb fb -2 -6 0 10 #fcfcfc #000000 #000000 0 1;
#X obj 610 385 nbx 5 14 0 18 0 0 \$0-fm3-LFO/op2/fb \$0-fm3-LFO/op2/fb empty 0 -6 0 10 #fcfcfc #000000 #000000 0 256;
#X obj 685 385 hsl 128 15 20 2000 0 0 \$0-fm3-LFO/op2/freq \$0-fm3-LFO/op2/freq freq -2 -6 0 10 #fcfcfc #000000 #000000 0 1;
#X obj 835 385 nbx 5 14 20 2000 0 0 \$0-fm3-LFO/op2/freq \$0-fm3-LFO/op2/freq empty 0 -6 0 10 #fcfcfc #000000 #000000 0 256;
#X obj 910 385 hsl 128 15 0 1 0 0 \$0-fm3-LFO/op2/freq-envelope/aL \$0-fm3-LFO/op2/freq-envelope/aL aL -2 -6 0 10 #fcfcfc #000000 #000000 0 1;
#X obj 1060 385 nbx 5 14 0 1 0 0 \$0-fm3-LFO/op2/freq-envelope/aL \$0-fm3-LFO/op2/freq-envelope/aL empty 0 -6 0 10 #fcfcfc #000000 #000000 0 256;
#X obj 910 415 hsl 128 15 0.001 12 0 0 \$0-fm3-LFO/op2/freq-envelope/aR \$0-fm3-LFO/op2/freq-envelope/aR aR -2 -6 0 10 #fcfcfc #000000 #000000 0 1;
#X obj 1060 415 nbx 5 14 0.001 12 0 0 \$0-fm3-LFO/op2/freq-envelope/aR \$0-fm3-LFO/op2/freq-envelope/aR empty 0 -6 0 10 #fcfcfc #000000 #000000 0 256;
#X obj 910 445 hsl 128 15 0 1 0 0 \$0-fm3-LFO/op2/freq-envelope/dL \$0-fm3-LFO/op2/freq-envelope/dL dL -2 -6 0 10 #fcfcfc #000000 #000000 0 1;
#X obj 1060 445 nbx 5 14 0 1 0 0 \$0-fm3-LFO/op2/freq-envelope/dL \$0-fm3-LFO/op2/freq-envelope/dL empty 0 -6 0 10 #fcfcfc #000000 #000000 0 256;
#X obj 910 475 hsl 128 15 0.001 12 0 0 \$0-fm3-LFO/op2/freq-envelope/dR \$0-fm3-LFO/op2/freq-envelope/dR dR -2 -6 0 10 #fcfcfc #000000 #000000 0 1;
#X obj 1060 475 nbx 5 14 0.001 12 0 0 \$0-fm3-LFO/op2/freq-envelope/dR \$0-fm3-LFO/op2/freq-envelope/dR empty 0 -6 0 10 #fcfcfc #000000 #000000 0 256;
#X obj 910 505 hsl 128 15 -48 48 0 0 \$0-fm3-LFO/op2/freq-envelope/freq-center \$0-fm3-LFO/op2/freq-envelope/freq-center freq-center -2 -6 0 10 #fcfcfc #000000 #000000 0 1;
#X obj 1060 505 nbx 5 14 -48 48 0 0 \$0-fm3-LFO/op2/freq-envelope/freq-center \$0-fm3-LFO/op2/freq-envelope/freq-center empty 0 -6 0 10 #fcfcfc #000000 #000000 0 256;
#X obj 910 535 hsl 128 15 0 48 0 0 \$0-fm3-LFO/op2/freq-envelope/freq-depth \$0-fm3-LFO/op2/freq-envelope/freq-depth freq-depth -2 -6 0 10 #fcfcfc #000000 #000000 0 1;
#X obj 1060 535 nbx 5 14 0 48 0 0 \$0-fm3-LFO/op2/freq-envelope/freq-depth \$0-fm3-LFO/op2/freq-envelope/freq-depth empty 0 -6 0 10 #fcfcfc #000000 #000000 0 256;
#X obj 910 565 bng 15 250 50 0 \$0-fm3-LFO/op2/freq-envelope/gate \$0-fm3-LFO/op2/freq-envelope/gate gate 0 -6 0 10 #fcfcfc #000000 #000000;
#X obj 910 595 hsl 128 15 0 1 0 0 \$0-fm3-LFO/op2/freq-envelope/rL \$0-fm3-LFO/op2/freq-envelope/rL rL -2 -6 0 10 #fcfcfc #000000 #000000 0 1;
#X obj 1060 595 nbx 5 14 0 1 0 0 \$0-fm3-LFO/op2/freq-envelope/rL \$0-fm3-LFO/op2/freq-envelope/rL empty 0 -6 0 10 #fcfcfc #000000 #000000 0 256;
#X obj 910 625 hsl 128 15 0.001 12 0 0 \$0-fm3-LFO/op2/freq-envelope/rR \$0-fm3-LFO/op2/freq-envelope/rR rR -2 -6 0 10 #fcfcfc #000000 #000000 0 1;
#X obj 1060 625 nbx 5 14 0.001 12 0 0 \$0-fm3-LFO/op2/freq-envelope/rR \$0-fm3-LFO/op2/freq-envelope/rR empty 0 -6 0 10 #fcfcfc #000000 #000000 0 256;
#X obj 910 655 hsl 128 15 0 1 0 0 \$0-fm3-LFO/op2/freq-envelope/sL \$0-fm3-LFO/op2/freq-envelope/sL sL -2 -6 0 10 #fcfcfc #000000 #000000 0 1;
#X obj 1060 655 nbx 5 14 0 1 0 0 \$0-fm3-LFO/op2/freq-envelope/sL \$0-fm3-LFO/op2/freq-envelope/sL empty 0 -6 0 10 #fcfcfc #000000 #000000 0 256;
#X obj 910 685 hsl 128 15 0.001 12 0 0 \$0-fm3-LFO/op2/freq-envelope/sR \$0-fm3-LFO/op2/freq-envelope/sR sR -2 -6 0 10 #fcfcfc #000000 #000000 0 1;
#X obj 1060 685 nbx 5 14 0.001 12 0 0 \$0-fm3-LFO/op2/freq-envelope/sR \$0-fm3-LFO/op2/freq-envelope/sR empty 0 -6 0 10 #fcfcfc #000000 #000000 0 256;
#X obj 1135 385 hsl 128 15 0.001 12 0 0 \$0-fm3-LFO/op2/index \$0-fm3-LFO/op2/index index -2 -6 0 10 #fcfcfc #000000 #000000 0 1;
#X obj 1285 385 nbx 5 14 0.001 12 0 0 \$0-fm3-LFO/op2/index \$0-fm3-LFO/op2/index empty 0 -6 0 10 #fcfcfc #000000 #000000 0 256;
#X obj 1360 385 hsl 128 15 0 1 0 0 \$0-fm3-LFO/op2/lfo-amt \$0-fm3-LFO/op2/lfo-amt lfo-amt -2 -6 0 10 #fcfcfc #000000 #000000 0 1;
#X obj 1510 385 nbx 5 14 0 1 0 0 \$0-fm3-LFO/op2/lfo-amt \$0-fm3-LFO/op2/lfo-amt empty 0 -6 0 10 #fcfcfc #000000 #000000 0 256;
#X obj 1585 385 hsl 128 15 0 1 0 0 \$0-fm3-LFO/op2/lfo-phase \$0-fm3-LFO/op2/lfo-phase lfo-phase -2 -6 0 10 #fcfcfc #000000 #000000 0 1;
#X obj 1735 385 nbx 5 14 0 1 0 0 \$0-fm3-LFO/op2/lfo-phase \$0-fm3-LFO/op2/lfo-phase empty 0 -6 0 10 #fcfcfc #000000 #000000 0 256;
#X obj 1810 385 hsl 128 15 -1000 1000 0 0 \$0-fm3-LFO/op2/offset \$0-fm3-LFO/op2/offset offset -2 -6 0 10 #fcfcfc #000000 #000000 0 1;
#X obj 1960 385 nbx 5 14 -1000 1000 0 0 \$0-fm3-LFO/op2/offset \$0-fm3-LFO/op2/offset empty 0 -6 0 10 #fcfcfc #000000 #000000 0 256;
#X obj 2035 385 hsl 128 15 0 1 0 0 \$0-fm3-LFO/op2/pan \$0-fm3-LFO/op2/pan pan -2 -6 0 10 #fcfcfc #000000 #000000 0 1;
#X obj 2185 385 nbx 5 14 0 1 0 0 \$0-fm3-LFO/op2/pan \$0-fm3-LFO/op2/pan empty 0 -6 0 10 #fcfcfc #000000 #000000 0 256;
#X obj 10 715 hsl 128 15 0 5 0 0 \$0-fm3-LFO/op3/amp \$0-fm3-LFO/op3/amp amp -2 -6 0 10 #fcfcfc #000000 #000000 0 1;
#X obj 160 715 nbx 5 14 0 5 0 0 \$0-fm3-LFO/op3/amp \$0-fm3-LFO/op3/amp empty 0 -6 0 10 #fcfcfc #000000 #000000 0 256;
#X obj 235 715 hsl 128 15 0 1 0 0 \$0-fm3-LFO/op3/amp-envelope/aL \$0-fm3-LFO/op3/amp-envelope/aL aL -2 -6 0 10 #fcfcfc #000000 #000000 0 1;
#X obj 385 715 nbx 5 14 0 1 0 0 \$0-fm3-LFO/op3/amp-envelope/aL \$0-fm3-LFO/op3/amp-envelope/aL empty 0 -6 0 10 #fcfcfc #000000 #000000 0 256;
#X obj 235 745 hsl 128 15 0.001 12 0 0 \$0-fm3-LFO/op3/amp-envelope/aR \$0-fm3-LFO/op3/amp-envelope/aR aR -2 -6 0 10 #fcfcfc #000000 #000000 0 1;
#X obj 385 745 nbx 5 14 0.001 12 0 0 \$0-fm3-LFO/op3/amp-envelope/aR \$0-fm3-LFO/op3/amp-envelope/aR empty 0 -6 0 10 #fcfcfc #000000 #000000 0 256;
#X obj 235 775 hsl 128 15 0 1 0 0 \$0-fm3-LFO/op3/amp-envelope/dL \$0-fm3-LFO/op3/amp-envelope/dL dL -2 -6 0 10 #fcfcfc #000000 #000000 0 1;
#X obj 385 775 nbx 5 14 0 1 0 0 \$0-fm3-LFO/op3/amp-envelope/dL \$0-fm3-LFO/op3/amp-envelope/dL empty 0 -6 0 10 #fcfcfc #000000 #000000 0 256;
#X obj 235 805 hsl 128 15 0.001 12 0 0 \$0-fm3-LFO/op3/amp-envelope/dR \$0-fm3-LFO/op3/amp-envelope/dR dR -2 -6 0 10 #fcfcfc #000000 #000000 0 1;
#X obj 385 805 nbx 5 14 0.001 12 0 0 \$0-fm3-LFO/op3/amp-envelope/dR \$0-fm3-LFO/op3/amp-envelope/dR empty 0 -6 0 10 #fcfcfc #000000 #000000 0 256;
#X obj 235 835 bng 15 250 50 0 \$0-fm3-LFO/op3/amp-envelope/gate \$0-fm3-LFO/op3/amp-envelope/gate gate 0 -6 0 10 #fcfcfc #000000 #000000;
#X obj 235 865 hsl 128 15 0 1 0 0 \$0-fm3-LFO/op3/amp-envelope/rL \$0-fm3-LFO/op3/amp-envelope/rL rL -2 -6 0 10 #fcfcfc #000000 #000000 0 1;
#X obj 385 865 nbx 5 14 0 1 0 0 \$0-fm3-LFO/op3/amp-envelope/rL \$0-fm3-LFO/op3/amp-envelope/rL empty 0 -6 0 10 #fcfcfc #000000 #000000 0 256;
#X obj 235 895 hsl 128 15 0.001 12 0 0 \$0-fm3-LFO/op3/amp-envelope/rR \$0-fm3-LFO/op3/amp-envelope/rR rR -2 -6 0 10 #fcfcfc #000000 #000000 0 1;
#X obj 385 895 nbx 5 14 0.001 12 0 0 \$0-fm3-LFO/op3/amp-envelope/rR \$0-fm3-LFO/op3/amp-envelope/rR empty 0 -6 0 10 #fcfcfc #000000 #000000 0 256;
#X obj 235 925 hsl 128 15 0 1 0 0 \$0-fm3-LFO/op3/amp-envelope/sL \$0-fm3-LFO/op3/amp-envelope/sL sL -2 -6 0 10 #fcfcfc #000000 #000000 0 1;
#X obj 385 925 nbx 5 14 0 1 0 0 \$0-fm3-LFO/op3/amp-envelope/sL \$0-fm3-LFO/op3/amp-envelope/sL empty 0 -6 0 10 #fcfcfc #000000 #000000 0 256;
#X obj 235 955 hsl 128 15 0.001 12 0 0 \$0-fm3-LFO/op3/amp-envelope/sR \$0-fm3-LFO/op3/amp-envelope/sR sR -2 -6 0 10 #fcfcfc #000000 #000000 0 1;
#X obj 385 955 nbx 5 14 0.001 12 0 0 \$0-fm3-LFO/op3/amp-envelope/sR \$0-fm3-LFO/op3/amp-envelope/sR empty 0 -6 0 10 #fcfcfc #000000 #000000 0 256;
#X obj 460 715 hsl 128 15 0 18 0 0 \$0-fm3-LFO/op3/fb \$0-fm3-LFO/op3/fb fb -2 -6 0 10 #fcfcfc #000000 #000000 0 1;
#X obj 610 715 nbx 5 14 0 18 0 0 \$0-fm3-LFO/op3/fb \$0-fm3-LFO/op3/fb empty 0 -6 0 10 #fcfcfc #000000 #000000 0 256;
#X obj 685 715 hsl 128 15 20 2000 0 0 \$0-fm3-LFO/op3/freq \$0-fm3-LFO/op3/freq freq -2 -6 0 10 #fcfcfc #000000 #000000 0 1;
#X obj 835 715 nbx 5 14 20 2000 0 0 \$0-fm3-LFO/op3/freq \$0-fm3-LFO/op3/freq empty 0 -6 0 10 #fcfcfc #000000 #000000 0 256;
#X obj 910 715 hsl 128 15 0 1 0 0 \$0-fm3-LFO/op3/freq-envelope/aL \$0-fm3-LFO/op3/freq-envelope/aL aL -2 -6 0 10 #fcfcfc #000000 #000000 0 1;
#X obj 1060 715 nbx 5 14 0 1 0 0 \$0-fm3-LFO/op3/freq-envelope/aL \$0-fm3-LFO/op3/freq-envelope/aL empty 0 -6 0 10 #fcfcfc #000000 #000000 0 256;
#X obj 910 745 hsl 128 15 0.001 12 0 0 \$0-fm3-LFO/op3/freq-envelope/aR \$0-fm3-LFO/op3/freq-envelope/aR aR -2 -6 0 10 #fcfcfc #000000 #000000 0 1;
#X obj 1060 745 nbx 5 14 0.001 12 0 0 \$0-fm3-LFO/op3/freq-envelope/aR \$0-fm3-LFO/op3/freq-envelope/aR empty 0 -6 0 10 #fcfcfc #000000 #000000 0 256;
#X obj 910 775 hsl 128 15 0 1 0 0 \$0-fm3-LFO/op3/freq-envelope/dL \$0-fm3-LFO/op3/freq-envelope/dL dL -2 -6 0 10 #fcfcfc #000000 #000000 0 1;
#X obj 1060 775 nbx 5 14 0 1 0 0 \$0-fm3-LFO/op3/freq-envelope/dL \$0-fm3-LFO/op3/freq-envelope/dL empty 0 -6 0 10 #fcfcfc #000000 #000000 0 256;
#X obj 910 805 hsl 128 15 0.001 12 0 0 \$0-fm3-LFO/op3/freq-envelope/dR \$0-fm3-LFO/op3/freq-envelope/dR dR -2 -6 0 10 #fcfcfc #000000 #000000 0 1;
#X obj 1060 805 nbx 5 14 0.001 12 0 0 \$0-fm3-LFO/op3/freq-envelope/dR \$0-fm3-LFO/op3/freq-envelope/dR empty 0 -6 0 10 #fcfcfc #000000 #000000 0 256;
#X obj 910 835 hsl 128 15 -48 48 0 0 \$0-fm3-LFO/op3/freq-envelope/freq-center \$0-fm3-LFO/op3/freq-envelope/freq-center freq-center -2 -6 0 10 #fcfcfc #000000 #000000 0 1;
#X obj 1060 835 nbx 5 14 -48 48 0 0 \$0-fm3-LFO/op3/freq-envelope/freq-center \$0-fm3-LFO/op3/freq-envelope/freq-center empty 0 -6 0 10 #fcfcfc #000000 #000000 0 256;
#X obj 910 865 hsl 128 15 0 48 0 0 \$0-fm3-LFO/op3/freq-envelope/freq-depth \$0-fm3-LFO/op3/freq-envelope/freq-depth freq-depth -2 -6 0 10 #fcfcfc #000000 #000000 0 1;
#X obj 1060 865 nbx 5 14 0 48 0 0 \$0-fm3-LFO/op3/freq-envelope/freq-depth \$0-fm3-LFO/op3/freq-envelope/freq-depth empty 0 -6 0 10 #fcfcfc #000000 #000000 0 256;
#X obj 910 895 bng 15 250 50 0 \$0-fm3-LFO/op3/freq-envelope/gate \$0-fm3-LFO/op3/freq-envelope/gate gate 0 -6 0 10 #fcfcfc #000000 #000000;
#X obj 910 925 hsl 128 15 0 1 0 0 \$0-fm3-LFO/op3/freq-envelope/rL \$0-fm3-LFO/op3/freq-envelope/rL rL -2 -6 0 10 #fcfcfc #000000 #000000 0 1;
#X obj 1060 925 nbx 5 14 0 1 0 0 \$0-fm3-LFO/op3/freq-envelope/rL \$0-fm3-LFO/op3/freq-envelope/rL empty 0 -6 0 10 #fcfcfc #000000 #000000 0 256;
#X obj 910 955 hsl 128 15 0.001 12 0 0 \$0-fm3-LFO/op3/freq-envelope/rR \$0-fm3-LFO/op3/freq-envelope/rR rR -2 -6 0 10 #fcfcfc #000000 #000000 0 1;
#X obj 1060 955 nbx 5 14 0.001 12 0 0 \$0-fm3-LFO/op3/freq-envelope/rR \$0-fm3-LFO/op3/freq-envelope/rR empty 0 -6 0 10 #fcfcfc #000000 #000000 0 256;
#X obj 910 985 hsl 128 15 0 1 0 0 \$0-fm3-LFO/op3/freq-envelope/sL \$0-fm3-LFO/op3/freq-envelope/sL sL -2 -6 0 10 #fcfcfc #000000 #000000 0 1;
#X obj 1060 985 nbx 5 14 0 1 0 0 \$0-fm3-LFO/op3/freq-envelope/sL \$0-fm3-LFO/op3/freq-envelope/sL empty 0 -6 0 10 #fcfcfc #000000 #000000 0 256;
#X obj 910 1015 hsl 128 15 0.001 12 0 0 \$0-fm3-LFO/op3/freq-envelope/sR \$0-fm3-LFO/op3/freq-envelope/sR sR -2 -6 0 10 #fcfcfc #000000 #000000 0 1;
#X obj 1060 1015 nbx 5 14 0.001 12 0 0 \$0-fm3-LFO/op3/freq-envelope/sR \$0-fm3-LFO/op3/freq-envelope/sR empty 0 -6 0 10 #fcfcfc #000000 #000000 0 256;
#X obj 1135 715 hsl 128 15 0.001 12 0 0 \$0-fm3-LFO/op3/index \$0-fm3-LFO/op3/index index -2 -6 0 10 #fcfcfc #000000 #000000 0 1;
#X obj 1285 715 nbx 5 14 0.001 12 0 0 \$0-fm3-LFO/op3/index \$0-fm3-LFO/op3/index empty 0 -6 0 10 #fcfcfc #000000 #000000 0 256;
#X obj 1360 715 hsl 128 15 0 1 0 0 \$0-fm3-LFO/op3/lfo-amt \$0-fm3-LFO/op3/lfo-amt lfo-amt -2 -6 0 10 #fcfcfc #000000 #000000 0 1;
#X obj 1510 715 nbx 5 14 0 1 0 0 \$0-fm3-LFO/op3/lfo-amt \$0-fm3-LFO/op3/lfo-amt empty 0 -6 0 10 #fcfcfc #000000 #000000 0 256;
#X obj 1585 715 hsl 128 15 0 1 0 0 \$0-fm3-LFO/op3/lfo-phase \$0-fm3-LFO/op3/lfo-phase lfo-phase -2 -6 0 10 #fcfcfc #000000 #000000 0 1;
#X obj 1735 715 nbx 5 14 0 1 0 0 \$0-fm3-LFO/op3/lfo-phase \$0-fm3-LFO/op3/lfo-phase empty 0 -6 0 10 #fcfcfc #000000 #000000 0 256;
#X obj 1810 715 hsl 128 15 -1000 1000 0 0 \$0-fm3-LFO/op3/offset \$0-fm3-LFO/op3/offset offset -2 -6 0 10 #fcfcfc #000000 #000000 0 1;
#X obj 1960 715 nbx 5 14 -1000 1000 0 0 \$0-fm3-LFO/op3/offset \$0-fm3-LFO/op3/offset empty 0 -6 0 10 #fcfcfc #000000 #000000 0 256;
#X obj 2035 715 hsl 128 15 0 1 0 0 \$0-fm3-LFO/op3/pan \$0-fm3-LFO/op3/pan pan -2 -6 0 10 #fcfcfc #000000 #000000 0 1;
#X obj 2185 715 nbx 5 14 0 1 0 0 \$0-fm3-LFO/op3/pan \$0-fm3-LFO/op3/pan empty 0 -6 0 10 #fcfcfc #000000 #000000 0 256;
#X obj 2272 -2 bng 15 250 50 1 \$0-init \$0-ignore empty 0 -6 0 10 #fcfcfc #000000 #000000;
#X obj 2292 -2 tgl 15 1 \$0-active \$0-active empty 0 -6 0 10 #fcfcfc #000000 #000000 1 1;
#X obj 2340 5 r \$0-init;
#X obj 2700 5 s \$0-in;
#X obj 2880 5 s \$0-read;
#X obj 3060 5 r \$0-write;
#X msg 2340 25 1;
#X obj 2340 45 s \$0-active;
#X obj 2700 25 r \$0-active;
#X msg 2700 45 active \$1;
#X obj 3060 25 route active;
#X obj 3060 45 s \$0-active;
#X msg 2340 65 3;
#X obj 2340 85 s \$0-fm3-LFO/LFO/LFO-env-amt;
#X obj 2700 65 r \$0-fm3-LFO/LFO/LFO-env-amt;
#X msg 2700 85 /fm3-LFO/LFO/LFO-env-amt \$1;
#X obj 3060 65 route /fm3-LFO/LFO/LFO-env-amt;
#X obj 3060 85 s \$0-fm3-LFO/LFO/LFO-env-amt;
#X msg 2340 105 0.1;
#X obj 2340 125 s \$0-fm3-LFO/LFO/LFO-rate;
#X obj 2700 105 r \$0-fm3-LFO/LFO/LFO-rate;
#X msg 2700 125 /fm3-LFO/LFO/LFO-rate \$1;
#X obj 3060 105 route /fm3-LFO/LFO/LFO-rate;
#X obj 3060 125 s \$0-fm3-LFO/LFO/LFO-rate;
#X msg 2340 145 0.9;
#X obj 2340 165 s \$0-fm3-LFO/LFO/aL;
#X obj 2700 145 r \$0-fm3-LFO/LFO/aL;
#X msg 2700 165 /fm3-LFO/LFO/aL \$1;
#X obj 3060 145 route /fm3-LFO/LFO/aL;
#X obj 3060 165 s \$0-fm3-LFO/LFO/aL;
#X msg 2340 185 0.006;
#X obj 2340 205 s \$0-fm3-LFO/LFO/aR;
#X obj 2700 185 r \$0-fm3-LFO/LFO/aR;
#X msg 2700 205 /fm3-LFO/LFO/aR \$1;
#X obj 3060 185 route /fm3-LFO/LFO/aR;
#X obj 3060 205 s \$0-fm3-LFO/LFO/aR;
#X msg 2340 225 0.1;
#X obj 2340 245 s \$0-fm3-LFO/LFO/dL;
#X obj 2700 225 r \$0-fm3-LFO/LFO/dL;
#X msg 2700 245 /fm3-LFO/LFO/dL \$1;
#X obj 3060 225 route /fm3-LFO/LFO/dL;
#X obj 3060 245 s \$0-fm3-LFO/LFO/dL;
#X msg 2340 265 1;
#X obj 2340 285 s \$0-fm3-LFO/LFO/dR;
#X obj 2700 265 r \$0-fm3-LFO/LFO/dR;
#X msg 2700 285 /fm3-LFO/LFO/dR \$1;
#X obj 3060 265 route /fm3-LFO/LFO/dR;
#X obj 3060 285 s \$0-fm3-LFO/LFO/dR;
#X msg 2340 305 0;
#X obj 2340 325 faust-s \$0-fm3-LFO/LFO/gate;
#X obj 2700 305 r \$0-fm3-LFO/LFO/gate;
#X obj 2700 325 faust-r /fm3-LFO/LFO/gate;
#X obj 3060 305 route /fm3-LFO/LFO/gate;
#X obj 3060 325 faust-s \$0-fm3-LFO/LFO/gate;
#X msg 2340 345 0;
#X obj 2340 365 s \$0-fm3-LFO/LFO/rL;
#X obj 2700 345 r \$0-fm3-LFO/LFO/rL;
#X msg 2700 365 /fm3-LFO/LFO/rL \$1;
#X obj 3060 345 route /fm3-LFO/LFO/rL;
#X obj 3060 365 s \$0-fm3-LFO/LFO/rL;
#X msg 2340 385 0.1;
#X obj 2340 405 s \$0-fm3-LFO/LFO/rR;
#X obj 2700 385 r \$0-fm3-LFO/LFO/rR;
#X msg 2700 405 /fm3-LFO/LFO/rR \$1;
#X obj 3060 385 route /fm3-LFO/LFO/rR;
#X obj 3060 405 s \$0-fm3-LFO/LFO/rR;
#X msg 2340 425 0.5;
#X obj 2340 445 s \$0-fm3-LFO/LFO/sL;
#X obj 2700 425 r \$0-fm3-LFO/LFO/sL;
#X msg 2700 445 /fm3-LFO/LFO/sL \$1;
#X obj 3060 425 route /fm3-LFO/LFO/sL;
#X obj 3060 445 s \$0-fm3-LFO/LFO/sL;
#X msg 2340 465 1;
#X obj 2340 485 s \$0-fm3-LFO/LFO/sR;
#X obj 2700 465 r \$0-fm3-LFO/LFO/sR;
#X msg 2700 485 /fm3-LFO/LFO/sR \$1;
#X obj 3060 465 route /fm3-LFO/LFO/sR;
#X obj 3060 485 s \$0-fm3-LFO/LFO/sR;
#X msg 2340 505 0.5;
#X obj 2340 525 s \$0-fm3-LFO/op1/amp;
#X obj 2700 505 r \$0-fm3-LFO/op1/amp;
#X msg 2700 525 /fm3-LFO/op1/amp \$1;
#X obj 3060 505 route /fm3-LFO/op1/amp;
#X obj 3060 525 s \$0-fm3-LFO/op1/amp;
#X msg 2340 545 0.9;
#X obj 2340 565 s \$0-fm3-LFO/op1/amp-envelope/aL;
#X obj 2700 545 r \$0-fm3-LFO/op1/amp-envelope/aL;
#X msg 2700 565 /fm3-LFO/op1/amp-envelope/aL \$1;
#X obj 3060 545 route /fm3-LFO/op1/amp-envelope/aL;
#X obj 3060 565 s \$0-fm3-LFO/op1/amp-envelope/aL;
#X msg 2340 585 0.006;
#X obj 2340 605 s \$0-fm3-LFO/op1/amp-envelope/aR;
#X obj 2700 585 r \$0-fm3-LFO/op1/amp-envelope/aR;
#X msg 2700 605 /fm3-LFO/op1/amp-envelope/aR \$1;
#X obj 3060 585 route /fm3-LFO/op1/amp-envelope/aR;
#X obj 3060 605 s \$0-fm3-LFO/op1/amp-envelope/aR;
#X msg 2340 625 0.1;
#X obj 2340 645 s \$0-fm3-LFO/op1/amp-envelope/dL;
#X obj 2700 625 r \$0-fm3-LFO/op1/amp-envelope/dL;
#X msg 2700 645 /fm3-LFO/op1/amp-envelope/dL \$1;
#X obj 3060 625 route /fm3-LFO/op1/amp-envelope/dL;
#X obj 3060 645 s \$0-fm3-LFO/op1/amp-envelope/dL;
#X msg 2340 665 1;
#X obj 2340 685 s \$0-fm3-LFO/op1/amp-envelope/dR;
#X obj 2700 665 r \$0-fm3-LFO/op1/amp-envelope/dR;
#X msg 2700 685 /fm3-LFO/op1/amp-envelope/dR \$1;
#X obj 3060 665 route /fm3-LFO/op1/amp-envelope/dR;
#X obj 3060 685 s \$0-fm3-LFO/op1/amp-envelope/dR;
#X msg 2340 705 0;
#X obj 2340 725 faust-s \$0-fm3-LFO/op1/amp-envelope/gate;
#X obj 2700 705 r \$0-fm3-LFO/op1/amp-envelope/gate;
#X obj 2700 725 faust-r /fm3-LFO/op1/amp-envelope/gate;
#X obj 3060 705 route /fm3-LFO/op1/amp-envelope/gate;
#X obj 3060 725 faust-s \$0-fm3-LFO/op1/amp-envelope/gate;
#X msg 2340 745 0;
#X obj 2340 765 s \$0-fm3-LFO/op1/amp-envelope/rL;
#X obj 2700 745 r \$0-fm3-LFO/op1/amp-envelope/rL;
#X msg 2700 765 /fm3-LFO/op1/amp-envelope/rL \$1;
#X obj 3060 745 route /fm3-LFO/op1/amp-envelope/rL;
#X obj 3060 765 s \$0-fm3-LFO/op1/amp-envelope/rL;
#X msg 2340 785 0.1;
#X obj 2340 805 s \$0-fm3-LFO/op1/amp-envelope/rR;
#X obj 2700 785 r \$0-fm3-LFO/op1/amp-envelope/rR;
#X msg 2700 805 /fm3-LFO/op1/amp-envelope/rR \$1;
#X obj 3060 785 route /fm3-LFO/op1/amp-envelope/rR;
#X obj 3060 805 s \$0-fm3-LFO/op1/amp-envelope/rR;
#X msg 2340 825 0.5;
#X obj 2340 845 s \$0-fm3-LFO/op1/amp-envelope/sL;
#X obj 2700 825 r \$0-fm3-LFO/op1/amp-envelope/sL;
#X msg 2700 845 /fm3-LFO/op1/amp-envelope/sL \$1;
#X obj 3060 825 route /fm3-LFO/op1/amp-envelope/sL;
#X obj 3060 845 s \$0-fm3-LFO/op1/amp-envelope/sL;
#X msg 2340 865 1;
#X obj 2340 885 s \$0-fm3-LFO/op1/amp-envelope/sR;
#X obj 2700 865 r \$0-fm3-LFO/op1/amp-envelope/sR;
#X msg 2700 885 /fm3-LFO/op1/amp-envelope/sR \$1;
#X obj 3060 865 route /fm3-LFO/op1/amp-envelope/sR;
#X obj 3060 885 s \$0-fm3-LFO/op1/amp-envelope/sR;
#X msg 2340 905 0;
#X obj 2340 925 s \$0-fm3-LFO/op1/fb;
#X obj 2700 905 r \$0-fm3-LFO/op1/fb;
#X msg 2700 925 /fm3-LFO/op1/fb \$1;
#X obj 3060 905 route /fm3-LFO/op1/fb;
#X obj 3060 925 s \$0-fm3-LFO/op1/fb;
#X msg 2340 945 440;
#X obj 2340 965 s \$0-fm3-LFO/op1/freq;
#X obj 2700 945 r \$0-fm3-LFO/op1/freq;
#X msg 2700 965 /fm3-LFO/op1/freq \$1;
#X obj 3060 945 route /fm3-LFO/op1/freq;
#X obj 3060 965 s \$0-fm3-LFO/op1/freq;
#X msg 2340 985 0.9;
#X obj 2340 1005 s \$0-fm3-LFO/op1/freq-envelope/aL;
#X obj 2700 985 r \$0-fm3-LFO/op1/freq-envelope/aL;
#X msg 2700 1005 /fm3-LFO/op1/freq-envelope/aL \$1;
#X obj 3060 985 route /fm3-LFO/op1/freq-envelope/aL;
#X obj 3060 1005 s \$0-fm3-LFO/op1/freq-envelope/aL;
#X msg 2340 1025 0.006;
#X obj 2340 1045 s \$0-fm3-LFO/op1/freq-envelope/aR;
#X obj 2700 1025 r \$0-fm3-LFO/op1/freq-envelope/aR;
#X msg 2700 1045 /fm3-LFO/op1/freq-envelope/aR \$1;
#X obj 3060 1025 route /fm3-LFO/op1/freq-envelope/aR;
#X obj 3060 1045 s \$0-fm3-LFO/op1/freq-envelope/aR;
#X msg 2340 1065 0.1;
#X obj 2340 1085 s \$0-fm3-LFO/op1/freq-envelope/dL;
#X obj 2700 1065 r \$0-fm3-LFO/op1/freq-envelope/dL;
#X msg 2700 1085 /fm3-LFO/op1/freq-envelope/dL \$1;
#X obj 3060 1065 route /fm3-LFO/op1/freq-envelope/dL;
#X obj 3060 1085 s \$0-fm3-LFO/op1/freq-envelope/dL;
#X msg 2340 1105 1;
#X obj 2340 1125 s \$0-fm3-LFO/op1/freq-envelope/dR;
#X obj 2700 1105 r \$0-fm3-LFO/op1/freq-envelope/dR;
#X msg 2700 1125 /fm3-LFO/op1/freq-envelope/dR \$1;
#X obj 3060 1105 route /fm3-LFO/op1/freq-envelope/dR;
#X obj 3060 1125 s \$0-fm3-LFO/op1/freq-envelope/dR;
#X msg 2340 1145 0;
#X obj 2340 1165 s \$0-fm3-LFO/op1/freq-envelope/freq-center;
#X obj 2700 1145 r \$0-fm3-LFO/op1/freq-envelope/freq-center;
#X msg 2700 1165 /fm3-LFO/op1/freq-envelope/freq-center \$1;
#X obj 3060 1145 route /fm3-LFO/op1/freq-envelope/freq-center;
#X obj 3060 1165 s \$0-fm3-LFO/op1/freq-envelope/freq-center;
#X msg 2340 1185 0;
#X obj 2340 1205 s \$0-fm3-LFO/op1/freq-envelope/freq-depth;
#X obj 2700 1185 r \$0-fm3-LFO/op1/freq-envelope/freq-depth;
#X msg 2700 1205 /fm3-LFO/op1/freq-envelope/freq-depth \$1;
#X obj 3060 1185 route /fm3-LFO/op1/freq-envelope/freq-depth;
#X obj 3060 1205 s \$0-fm3-LFO/op1/freq-envelope/freq-depth;
#X msg 2340 1225 0;
#X obj 2340 1245 faust-s \$0-fm3-LFO/op1/freq-envelope/gate;
#X obj 2700 1225 r \$0-fm3-LFO/op1/freq-envelope/gate;
#X obj 2700 1245 faust-r /fm3-LFO/op1/freq-envelope/gate;
#X obj 3060 1225 route /fm3-LFO/op1/freq-envelope/gate;
#X obj 3060 1245 faust-s \$0-fm3-LFO/op1/freq-envelope/gate;
#X msg 2340 1265 0;
#X obj 2340 1285 s \$0-fm3-LFO/op1/freq-envelope/rL;
#X obj 2700 1265 r \$0-fm3-LFO/op1/freq-envelope/rL;
#X msg 2700 1285 /fm3-LFO/op1/freq-envelope/rL \$1;
#X obj 3060 1265 route /fm3-LFO/op1/freq-envelope/rL;
#X obj 3060 1285 s \$0-fm3-LFO/op1/freq-envelope/rL;
#X msg 2340 1305 0.1;
#X obj 2340 1325 s \$0-fm3-LFO/op1/freq-envelope/rR;
#X obj 2700 1305 r \$0-fm3-LFO/op1/freq-envelope/rR;
#X msg 2700 1325 /fm3-LFO/op1/freq-envelope/rR \$1;
#X obj 3060 1305 route /fm3-LFO/op1/freq-envelope/rR;
#X obj 3060 1325 s \$0-fm3-LFO/op1/freq-envelope/rR;
#X msg 2340 1345 0.5;
#X obj 2340 1365 s \$0-fm3-LFO/op1/freq-envelope/sL;
#X obj 2700 1345 r \$0-fm3-LFO/op1/freq-envelope/sL;
#X msg 2700 1365 /fm3-LFO/op1/freq-envelope/sL \$1;
#X obj 3060 1345 route /fm3-LFO/op1/freq-envelope/sL;
#X obj 3060 1365 s \$0-fm3-LFO/op1/freq-envelope/sL;
#X msg 2340 1385 1;
#X obj 2340 1405 s \$0-fm3-LFO/op1/freq-envelope/sR;
#X obj 2700 1385 r \$0-fm3-LFO/op1/freq-envelope/sR;
#X msg 2700 1405 /fm3-LFO/op1/freq-envelope/sR \$1;
#X obj 3060 1385 route /fm3-LFO/op1/freq-envelope/sR;
#X obj 3060 1405 s \$0-fm3-LFO/op1/freq-envelope/sR;
#X msg 2340 1425 1;
#X obj 2340 1445 s \$0-fm3-LFO/op1/index;
#X obj 2700 1425 r \$0-fm3-LFO/op1/index;
#X msg 2700 1445 /fm3-LFO/op1/index \$1;
#X obj 3060 1425 route /fm3-LFO/op1/index;
#X obj 3060 1445 s \$0-fm3-LFO/op1/index;
#X msg 2340 1465 0;
#X obj 2340 1485 s \$0-fm3-LFO/op1/lfo-amt;
#X obj 2700 1465 r \$0-fm3-LFO/op1/lfo-amt;
#X msg 2700 1485 /fm3-LFO/op1/lfo-amt \$1;
#X obj 3060 1465 route /fm3-LFO/op1/lfo-amt;
#X obj 3060 1485 s \$0-fm3-LFO/op1/lfo-amt;
#X msg 2340 1505 0;
#X obj 2340 1525 s \$0-fm3-LFO/op1/lfo-phase;
#X obj 2700 1505 r \$0-fm3-LFO/op1/lfo-phase;
#X msg 2700 1525 /fm3-LFO/op1/lfo-phase \$1;
#X obj 3060 1505 route /fm3-LFO/op1/lfo-phase;
#X obj 3060 1525 s \$0-fm3-LFO/op1/lfo-phase;
#X msg 2340 1545 0;
#X obj 2340 1565 s \$0-fm3-LFO/op1/offset;
#X obj 2700 1545 r \$0-fm3-LFO/op1/offset;
#X msg 2700 1565 /fm3-LFO/op1/offset \$1;
#X obj 3060 1545 route /fm3-LFO/op1/offset;
#X obj 3060 1565 s \$0-fm3-LFO/op1/offset;
#X msg 2340 1585 0.5;
#X obj 2340 1605 s \$0-fm3-LFO/op1/pan;
#X obj 2700 1585 r \$0-fm3-LFO/op1/pan;
#X msg 2700 1605 /fm3-LFO/op1/pan \$1;
#X obj 3060 1585 route /fm3-LFO/op1/pan;
#X obj 3060 1605 s \$0-fm3-LFO/op1/pan;
#X msg 2340 1625 0.5;
#X obj 2340 1645 s \$0-fm3-LFO/op2/amp;
#X obj 2700 1625 r \$0-fm3-LFO/op2/amp;
#X msg 2700 1645 /fm3-LFO/op2/amp \$1;
#X obj 3060 1625 route /fm3-LFO/op2/amp;
#X obj 3060 1645 s \$0-fm3-LFO/op2/amp;
#X msg 2340 1665 0.9;
#X obj 2340 1685 s \$0-fm3-LFO/op2/amp-envelope/aL;
#X obj 2700 1665 r \$0-fm3-LFO/op2/amp-envelope/aL;
#X msg 2700 1685 /fm3-LFO/op2/amp-envelope/aL \$1;
#X obj 3060 1665 route /fm3-LFO/op2/amp-envelope/aL;
#X obj 3060 1685 s \$0-fm3-LFO/op2/amp-envelope/aL;
#X msg 2340 1705 0.006;
#X obj 2340 1725 s \$0-fm3-LFO/op2/amp-envelope/aR;
#X obj 2700 1705 r \$0-fm3-LFO/op2/amp-envelope/aR;
#X msg 2700 1725 /fm3-LFO/op2/amp-envelope/aR \$1;
#X obj 3060 1705 route /fm3-LFO/op2/amp-envelope/aR;
#X obj 3060 1725 s \$0-fm3-LFO/op2/amp-envelope/aR;
#X msg 2340 1745 0.1;
#X obj 2340 1765 s \$0-fm3-LFO/op2/amp-envelope/dL;
#X obj 2700 1745 r \$0-fm3-LFO/op2/amp-envelope/dL;
#X msg 2700 1765 /fm3-LFO/op2/amp-envelope/dL \$1;
#X obj 3060 1745 route /fm3-LFO/op2/amp-envelope/dL;
#X obj 3060 1765 s \$0-fm3-LFO/op2/amp-envelope/dL;
#X msg 2340 1785 1;
#X obj 2340 1805 s \$0-fm3-LFO/op2/amp-envelope/dR;
#X obj 2700 1785 r \$0-fm3-LFO/op2/amp-envelope/dR;
#X msg 2700 1805 /fm3-LFO/op2/amp-envelope/dR \$1;
#X obj 3060 1785 route /fm3-LFO/op2/amp-envelope/dR;
#X obj 3060 1805 s \$0-fm3-LFO/op2/amp-envelope/dR;
#X msg 2340 1825 0;
#X obj 2340 1845 faust-s \$0-fm3-LFO/op2/amp-envelope/gate;
#X obj 2700 1825 r \$0-fm3-LFO/op2/amp-envelope/gate;
#X obj 2700 1845 faust-r /fm3-LFO/op2/amp-envelope/gate;
#X obj 3060 1825 route /fm3-LFO/op2/amp-envelope/gate;
#X obj 3060 1845 faust-s \$0-fm3-LFO/op2/amp-envelope/gate;
#X msg 2340 1865 0;
#X obj 2340 1885 s \$0-fm3-LFO/op2/amp-envelope/rL;
#X obj 2700 1865 r \$0-fm3-LFO/op2/amp-envelope/rL;
#X msg 2700 1885 /fm3-LFO/op2/amp-envelope/rL \$1;
#X obj 3060 1865 route /fm3-LFO/op2/amp-envelope/rL;
#X obj 3060 1885 s \$0-fm3-LFO/op2/amp-envelope/rL;
#X msg 2340 1905 0.1;
#X obj 2340 1925 s \$0-fm3-LFO/op2/amp-envelope/rR;
#X obj 2700 1905 r \$0-fm3-LFO/op2/amp-envelope/rR;
#X msg 2700 1925 /fm3-LFO/op2/amp-envelope/rR \$1;
#X obj 3060 1905 route /fm3-LFO/op2/amp-envelope/rR;
#X obj 3060 1925 s \$0-fm3-LFO/op2/amp-envelope/rR;
#X msg 2340 1945 0.5;
#X obj 2340 1965 s \$0-fm3-LFO/op2/amp-envelope/sL;
#X obj 2700 1945 r \$0-fm3-LFO/op2/amp-envelope/sL;
#X msg 2700 1965 /fm3-LFO/op2/amp-envelope/sL \$1;
#X obj 3060 1945 route /fm3-LFO/op2/amp-envelope/sL;
#X obj 3060 1965 s \$0-fm3-LFO/op2/amp-envelope/sL;
#X msg 2340 1985 1;
#X obj 2340 2005 s \$0-fm3-LFO/op2/amp-envelope/sR;
#X obj 2700 1985 r \$0-fm3-LFO/op2/amp-envelope/sR;
#X msg 2700 2005 /fm3-LFO/op2/amp-envelope/sR \$1;
#X obj 3060 1985 route /fm3-LFO/op2/amp-envelope/sR;
#X obj 3060 2005 s \$0-fm3-LFO/op2/amp-envelope/sR;
#X msg 2340 2025 0;
#X obj 2340 2045 s \$0-fm3-LFO/op2/fb;
#X obj 2700 2025 r \$0-fm3-LFO/op2/fb;
#X msg 2700 2045 /fm3-LFO/op2/fb \$1;
#X obj 3060 2025 route /fm3-LFO/op2/fb;
#X obj 3060 2045 s \$0-fm3-LFO/op2/fb;
#X msg 2340 2065 440;
#X obj 2340 2085 s \$0-fm3-LFO/op2/freq;
#X obj 2700 2065 r \$0-fm3-LFO/op2/freq;
#X msg 2700 2085 /fm3-LFO/op2/freq \$1;
#X obj 3060 2065 route /fm3-LFO/op2/freq;
#X obj 3060 2085 s \$0-fm3-LFO/op2/freq;
#X msg 2340 2105 0.9;
#X obj 2340 2125 s \$0-fm3-LFO/op2/freq-envelope/aL;
#X obj 2700 2105 r \$0-fm3-LFO/op2/freq-envelope/aL;
#X msg 2700 2125 /fm3-LFO/op2/freq-envelope/aL \$1;
#X obj 3060 2105 route /fm3-LFO/op2/freq-envelope/aL;
#X obj 3060 2125 s \$0-fm3-LFO/op2/freq-envelope/aL;
#X msg 2340 2145 0.006;
#X obj 2340 2165 s \$0-fm3-LFO/op2/freq-envelope/aR;
#X obj 2700 2145 r \$0-fm3-LFO/op2/freq-envelope/aR;
#X msg 2700 2165 /fm3-LFO/op2/freq-envelope/aR \$1;
#X obj 3060 2145 route /fm3-LFO/op2/freq-envelope/aR;
#X obj 3060 2165 s \$0-fm3-LFO/op2/freq-envelope/aR;
#X msg 2340 2185 0.1;
#X obj 2340 2205 s \$0-fm3-LFO/op2/freq-envelope/dL;
#X obj 2700 2185 r \$0-fm3-LFO/op2/freq-envelope/dL;
#X msg 2700 2205 /fm3-LFO/op2/freq-envelope/dL \$1;
#X obj 3060 2185 route /fm3-LFO/op2/freq-envelope/dL;
#X obj 3060 2205 s \$0-fm3-LFO/op2/freq-envelope/dL;
#X msg 2340 2225 1;
#X obj 2340 2245 s \$0-fm3-LFO/op2/freq-envelope/dR;
#X obj 2700 2225 r \$0-fm3-LFO/op2/freq-envelope/dR;
#X msg 2700 2245 /fm3-LFO/op2/freq-envelope/dR \$1;
#X obj 3060 2225 route /fm3-LFO/op2/freq-envelope/dR;
#X obj 3060 2245 s \$0-fm3-LFO/op2/freq-envelope/dR;
#X msg 2340 2265 0;
#X obj 2340 2285 s \$0-fm3-LFO/op2/freq-envelope/freq-center;
#X obj 2700 2265 r \$0-fm3-LFO/op2/freq-envelope/freq-center;
#X msg 2700 2285 /fm3-LFO/op2/freq-envelope/freq-center \$1;
#X obj 3060 2265 route /fm3-LFO/op2/freq-envelope/freq-center;
#X obj 3060 2285 s \$0-fm3-LFO/op2/freq-envelope/freq-center;
#X msg 2340 2305 0;
#X obj 2340 2325 s \$0-fm3-LFO/op2/freq-envelope/freq-depth;
#X obj 2700 2305 r \$0-fm3-LFO/op2/freq-envelope/freq-depth;
#X msg 2700 2325 /fm3-LFO/op2/freq-envelope/freq-depth \$1;
#X obj 3060 2305 route /fm3-LFO/op2/freq-envelope/freq-depth;
#X obj 3060 2325 s \$0-fm3-LFO/op2/freq-envelope/freq-depth;
#X msg 2340 2345 0;
#X obj 2340 2365 faust-s \$0-fm3-LFO/op2/freq-envelope/gate;
#X obj 2700 2345 r \$0-fm3-LFO/op2/freq-envelope/gate;
#X obj 2700 2365 faust-r /fm3-LFO/op2/freq-envelope/gate;
#X obj 3060 2345 route /fm3-LFO/op2/freq-envelope/gate;
#X obj 3060 2365 faust-s \$0-fm3-LFO/op2/freq-envelope/gate;
#X msg 2340 2385 0;
#X obj 2340 2405 s \$0-fm3-LFO/op2/freq-envelope/rL;
#X obj 2700 2385 r \$0-fm3-LFO/op2/freq-envelope/rL;
#X msg 2700 2405 /fm3-LFO/op2/freq-envelope/rL \$1;
#X obj 3060 2385 route /fm3-LFO/op2/freq-envelope/rL;
#X obj 3060 2405 s \$0-fm3-LFO/op2/freq-envelope/rL;
#X msg 2340 2425 0.1;
#X obj 2340 2445 s \$0-fm3-LFO/op2/freq-envelope/rR;
#X obj 2700 2425 r \$0-fm3-LFO/op2/freq-envelope/rR;
#X msg 2700 2445 /fm3-LFO/op2/freq-envelope/rR \$1;
#X obj 3060 2425 route /fm3-LFO/op2/freq-envelope/rR;
#X obj 3060 2445 s \$0-fm3-LFO/op2/freq-envelope/rR;
#X msg 2340 2465 0.5;
#X obj 2340 2485 s \$0-fm3-LFO/op2/freq-envelope/sL;
#X obj 2700 2465 r \$0-fm3-LFO/op2/freq-envelope/sL;
#X msg 2700 2485 /fm3-LFO/op2/freq-envelope/sL \$1;
#X obj 3060 2465 route /fm3-LFO/op2/freq-envelope/sL;
#X obj 3060 2485 s \$0-fm3-LFO/op2/freq-envelope/sL;
#X msg 2340 2505 1;
#X obj 2340 2525 s \$0-fm3-LFO/op2/freq-envelope/sR;
#X obj 2700 2505 r \$0-fm3-LFO/op2/freq-envelope/sR;
#X msg 2700 2525 /fm3-LFO/op2/freq-envelope/sR \$1;
#X obj 3060 2505 route /fm3-LFO/op2/freq-envelope/sR;
#X obj 3060 2525 s \$0-fm3-LFO/op2/freq-envelope/sR;
#X msg 2340 2545 1;
#X obj 2340 2565 s \$0-fm3-LFO/op2/index;
#X obj 2700 2545 r \$0-fm3-LFO/op2/index;
#X msg 2700 2565 /fm3-LFO/op2/index \$1;
#X obj 3060 2545 route /fm3-LFO/op2/index;
#X obj 3060 2565 s \$0-fm3-LFO/op2/index;
#X msg 2340 2585 0;
#X obj 2340 2605 s \$0-fm3-LFO/op2/lfo-amt;
#X obj 2700 2585 r \$0-fm3-LFO/op2/lfo-amt;
#X msg 2700 2605 /fm3-LFO/op2/lfo-amt \$1;
#X obj 3060 2585 route /fm3-LFO/op2/lfo-amt;
#X obj 3060 2605 s \$0-fm3-LFO/op2/lfo-amt;
#X msg 2340 2625 0;
#X obj 2340 2645 s \$0-fm3-LFO/op2/lfo-phase;
#X obj 2700 2625 r \$0-fm3-LFO/op2/lfo-phase;
#X msg 2700 2645 /fm3-LFO/op2/lfo-phase \$1;
#X obj 3060 2625 route /fm3-LFO/op2/lfo-phase;
#X obj 3060 2645 s \$0-fm3-LFO/op2/lfo-phase;
#X msg 2340 2665 0;
#X obj 2340 2685 s \$0-fm3-LFO/op2/offset;
#X obj 2700 2665 r \$0-fm3-LFO/op2/offset;
#X msg 2700 2685 /fm3-LFO/op2/offset \$1;
#X obj 3060 2665 route /fm3-LFO/op2/offset;
#X obj 3060 2685 s \$0-fm3-LFO/op2/offset;
#X msg 2340 2705 0.5;
#X obj 2340 2725 s \$0-fm3-LFO/op2/pan;
#X obj 2700 2705 r \$0-fm3-LFO/op2/pan;
#X msg 2700 2725 /fm3-LFO/op2/pan \$1;
#X obj 3060 2705 route /fm3-LFO/op2/pan;
#X obj 3060 2725 s \$0-fm3-LFO/op2/pan;
#X msg 2340 2745 0.5;
#X obj 2340 2765 s \$0-fm3-LFO/op3/amp;
#X obj 2700 2745 r \$0-fm3-LFO/op3/amp;
#X msg 2700 2765 /fm3-LFO/op3/amp \$1;
#X obj 3060 2745 route /fm3-LFO/op3/amp;
#X obj 3060 2765 s \$0-fm3-LFO/op3/amp;
#X msg 2340 2785 0.9;
#X obj 2340 2805 s \$0-fm3-LFO/op3/amp-envelope/aL;
#X obj 2700 2785 r \$0-fm3-LFO/op3/amp-envelope/aL;
#X msg 2700 2805 /fm3-LFO/op3/amp-envelope/aL \$1;
#X obj 3060 2785 route /fm3-LFO/op3/amp-envelope/aL;
#X obj 3060 2805 s \$0-fm3-LFO/op3/amp-envelope/aL;
#X msg 2340 2825 0.006;
#X obj 2340 2845 s \$0-fm3-LFO/op3/amp-envelope/aR;
#X obj 2700 2825 r \$0-fm3-LFO/op3/amp-envelope/aR;
#X msg 2700 2845 /fm3-LFO/op3/amp-envelope/aR \$1;
#X obj 3060 2825 route /fm3-LFO/op3/amp-envelope/aR;
#X obj 3060 2845 s \$0-fm3-LFO/op3/amp-envelope/aR;
#X msg 2340 2865 0.1;
#X obj 2340 2885 s \$0-fm3-LFO/op3/amp-envelope/dL;
#X obj 2700 2865 r \$0-fm3-LFO/op3/amp-envelope/dL;
#X msg 2700 2885 /fm3-LFO/op3/amp-envelope/dL \$1;
#X obj 3060 2865 route /fm3-LFO/op3/amp-envelope/dL;
#X obj 3060 2885 s \$0-fm3-LFO/op3/amp-envelope/dL;
#X msg 2340 2905 1;
#X obj 2340 2925 s \$0-fm3-LFO/op3/amp-envelope/dR;
#X obj 2700 2905 r \$0-fm3-LFO/op3/amp-envelope/dR;
#X msg 2700 2925 /fm3-LFO/op3/amp-envelope/dR \$1;
#X obj 3060 2905 route /fm3-LFO/op3/amp-envelope/dR;
#X obj 3060 2925 s \$0-fm3-LFO/op3/amp-envelope/dR;
#X msg 2340 2945 0;
#X obj 2340 2965 faust-s \$0-fm3-LFO/op3/amp-envelope/gate;
#X obj 2700 2945 r \$0-fm3-LFO/op3/amp-envelope/gate;
#X obj 2700 2965 faust-r /fm3-LFO/op3/amp-envelope/gate;
#X obj 3060 2945 route /fm3-LFO/op3/amp-envelope/gate;
#X obj 3060 2965 faust-s \$0-fm3-LFO/op3/amp-envelope/gate;
#X msg 2340 2985 0;
#X obj 2340 3005 s \$0-fm3-LFO/op3/amp-envelope/rL;
#X obj 2700 2985 r \$0-fm3-LFO/op3/amp-envelope/rL;
#X msg 2700 3005 /fm3-LFO/op3/amp-envelope/rL \$1;
#X obj 3060 2985 route /fm3-LFO/op3/amp-envelope/rL;
#X obj 3060 3005 s \$0-fm3-LFO/op3/amp-envelope/rL;
#X msg 2340 3025 0.1;
#X obj 2340 3045 s \$0-fm3-LFO/op3/amp-envelope/rR;
#X obj 2700 3025 r \$0-fm3-LFO/op3/amp-envelope/rR;
#X msg 2700 3045 /fm3-LFO/op3/amp-envelope/rR \$1;
#X obj 3060 3025 route /fm3-LFO/op3/amp-envelope/rR;
#X obj 3060 3045 s \$0-fm3-LFO/op3/amp-envelope/rR;
#X msg 2340 3065 0.5;
#X obj 2340 3085 s \$0-fm3-LFO/op3/amp-envelope/sL;
#X obj 2700 3065 r \$0-fm3-LFO/op3/amp-envelope/sL;
#X msg 2700 3085 /fm3-LFO/op3/amp-envelope/sL \$1;
#X obj 3060 3065 route /fm3-LFO/op3/amp-envelope/sL;
#X obj 3060 3085 s \$0-fm3-LFO/op3/amp-envelope/sL;
#X msg 2340 3105 1;
#X obj 2340 3125 s \$0-fm3-LFO/op3/amp-envelope/sR;
#X obj 2700 3105 r \$0-fm3-LFO/op3/amp-envelope/sR;
#X msg 2700 3125 /fm3-LFO/op3/amp-envelope/sR \$1;
#X obj 3060 3105 route /fm3-LFO/op3/amp-envelope/sR;
#X obj 3060 3125 s \$0-fm3-LFO/op3/amp-envelope/sR;
#X msg 2340 3145 0;
#X obj 2340 3165 s \$0-fm3-LFO/op3/fb;
#X obj 2700 3145 r \$0-fm3-LFO/op3/fb;
#X msg 2700 3165 /fm3-LFO/op3/fb \$1;
#X obj 3060 3145 route /fm3-LFO/op3/fb;
#X obj 3060 3165 s \$0-fm3-LFO/op3/fb;
#X msg 2340 3185 440;
#X obj 2340 3205 s \$0-fm3-LFO/op3/freq;
#X obj 2700 3185 r \$0-fm3-LFO/op3/freq;
#X msg 2700 3205 /fm3-LFO/op3/freq \$1;
#X obj 3060 3185 route /fm3-LFO/op3/freq;
#X obj 3060 3205 s \$0-fm3-LFO/op3/freq;
#X msg 2340 3225 0.9;
#X obj 2340 3245 s \$0-fm3-LFO/op3/freq-envelope/aL;
#X obj 2700 3225 r \$0-fm3-LFO/op3/freq-envelope/aL;
#X msg 2700 3245 /fm3-LFO/op3/freq-envelope/aL \$1;
#X obj 3060 3225 route /fm3-LFO/op3/freq-envelope/aL;
#X obj 3060 3245 s \$0-fm3-LFO/op3/freq-envelope/aL;
#X msg 2340 3265 0.006;
#X obj 2340 3285 s \$0-fm3-LFO/op3/freq-envelope/aR;
#X obj 2700 3265 r \$0-fm3-LFO/op3/freq-envelope/aR;
#X msg 2700 3285 /fm3-LFO/op3/freq-envelope/aR \$1;
#X obj 3060 3265 route /fm3-LFO/op3/freq-envelope/aR;
#X obj 3060 3285 s \$0-fm3-LFO/op3/freq-envelope/aR;
#X msg 2340 3305 0.1;
#X obj 2340 3325 s \$0-fm3-LFO/op3/freq-envelope/dL;
#X obj 2700 3305 r \$0-fm3-LFO/op3/freq-envelope/dL;
#X msg 2700 3325 /fm3-LFO/op3/freq-envelope/dL \$1;
#X obj 3060 3305 route /fm3-LFO/op3/freq-envelope/dL;
#X obj 3060 3325 s \$0-fm3-LFO/op3/freq-envelope/dL;
#X msg 2340 3345 1;
#X obj 2340 3365 s \$0-fm3-LFO/op3/freq-envelope/dR;
#X obj 2700 3345 r \$0-fm3-LFO/op3/freq-envelope/dR;
#X msg 2700 3365 /fm3-LFO/op3/freq-envelope/dR \$1;
#X obj 3060 3345 route /fm3-LFO/op3/freq-envelope/dR;
#X obj 3060 3365 s \$0-fm3-LFO/op3/freq-envelope/dR;
#X msg 2340 3385 0;
#X obj 2340 3405 s \$0-fm3-LFO/op3/freq-envelope/freq-center;
#X obj 2700 3385 r \$0-fm3-LFO/op3/freq-envelope/freq-center;
#X msg 2700 3405 /fm3-LFO/op3/freq-envelope/freq-center \$1;
#X obj 3060 3385 route /fm3-LFO/op3/freq-envelope/freq-center;
#X obj 3060 3405 s \$0-fm3-LFO/op3/freq-envelope/freq-center;
#X msg 2340 3425 0;
#X obj 2340 3445 s \$0-fm3-LFO/op3/freq-envelope/freq-depth;
#X obj 2700 3425 r \$0-fm3-LFO/op3/freq-envelope/freq-depth;
#X msg 2700 3445 /fm3-LFO/op3/freq-envelope/freq-depth \$1;
#X obj 3060 3425 route /fm3-LFO/op3/freq-envelope/freq-depth;
#X obj 3060 3445 s \$0-fm3-LFO/op3/freq-envelope/freq-depth;
#X msg 2340 3465 0;
#X obj 2340 3485 faust-s \$0-fm3-LFO/op3/freq-envelope/gate;
#X obj 2700 3465 r \$0-fm3-LFO/op3/freq-envelope/gate;
#X obj 2700 3485 faust-r /fm3-LFO/op3/freq-envelope/gate;
#X obj 3060 3465 route /fm3-LFO/op3/freq-envelope/gate;
#X obj 3060 3485 faust-s \$0-fm3-LFO/op3/freq-envelope/gate;
#X msg 2340 3505 0;
#X obj 2340 3525 s \$0-fm3-LFO/op3/freq-envelope/rL;
#X obj 2700 3505 r \$0-fm3-LFO/op3/freq-envelope/rL;
#X msg 2700 3525 /fm3-LFO/op3/freq-envelope/rL \$1;
#X obj 3060 3505 route /fm3-LFO/op3/freq-envelope/rL;
#X obj 3060 3525 s \$0-fm3-LFO/op3/freq-envelope/rL;
#X msg 2340 3545 0.1;
#X obj 2340 3565 s \$0-fm3-LFO/op3/freq-envelope/rR;
#X obj 2700 3545 r \$0-fm3-LFO/op3/freq-envelope/rR;
#X msg 2700 3565 /fm3-LFO/op3/freq-envelope/rR \$1;
#X obj 3060 3545 route /fm3-LFO/op3/freq-envelope/rR;
#X obj 3060 3565 s \$0-fm3-LFO/op3/freq-envelope/rR;
#X msg 2340 3585 0.5;
#X obj 2340 3605 s \$0-fm3-LFO/op3/freq-envelope/sL;
#X obj 2700 3585 r \$0-fm3-LFO/op3/freq-envelope/sL;
#X msg 2700 3605 /fm3-LFO/op3/freq-envelope/sL \$1;
#X obj 3060 3585 route /fm3-LFO/op3/freq-envelope/sL;
#X obj 3060 3605 s \$0-fm3-LFO/op3/freq-envelope/sL;
#X msg 2340 3625 1;
#X obj 2340 3645 s \$0-fm3-LFO/op3/freq-envelope/sR;
#X obj 2700 3625 r \$0-fm3-LFO/op3/freq-envelope/sR;
#X msg 2700 3645 /fm3-LFO/op3/freq-envelope/sR \$1;
#X obj 3060 3625 route /fm3-LFO/op3/freq-envelope/sR;
#X obj 3060 3645 s \$0-fm3-LFO/op3/freq-envelope/sR;
#X msg 2340 3665 1;
#X obj 2340 3685 s \$0-fm3-LFO/op3/index;
#X obj 2700 3665 r \$0-fm3-LFO/op3/index;
#X msg 2700 3685 /fm3-LFO/op3/index \$1;
#X obj 3060 3665 route /fm3-LFO/op3/index;
#X obj 3060 3685 s \$0-fm3-LFO/op3/index;
#X msg 2340 3705 0;
#X obj 2340 3725 s \$0-fm3-LFO/op3/lfo-amt;
#X obj 2700 3705 r \$0-fm3-LFO/op3/lfo-amt;
#X msg 2700 3725 /fm3-LFO/op3/lfo-amt \$1;
#X obj 3060 3705 route /fm3-LFO/op3/lfo-amt;
#X obj 3060 3725 s \$0-fm3-LFO/op3/lfo-amt;
#X msg 2340 3745 0;
#X obj 2340 3765 s \$0-fm3-LFO/op3/lfo-phase;
#X obj 2700 3745 r \$0-fm3-LFO/op3/lfo-phase;
#X msg 2700 3765 /fm3-LFO/op3/lfo-phase \$1;
#X obj 3060 3745 route /fm3-LFO/op3/lfo-phase;
#X obj 3060 3765 s \$0-fm3-LFO/op3/lfo-phase;
#X msg 2340 3785 0;
#X obj 2340 3805 s \$0-fm3-LFO/op3/offset;
#X obj 2700 3785 r \$0-fm3-LFO/op3/offset;
#X msg 2700 3805 /fm3-LFO/op3/offset \$1;
#X obj 3060 3785 route /fm3-LFO/op3/offset;
#X obj 3060 3805 s \$0-fm3-LFO/op3/offset;
#X msg 2340 3825 0.5;
#X obj 2340 3845 s \$0-fm3-LFO/op3/pan;
#X obj 2700 3825 r \$0-fm3-LFO/op3/pan;
#X msg 2700 3845 /fm3-LFO/op3/pan \$1;
#X obj 3060 3825 route /fm3-LFO/op3/pan;
#X obj 3060 3845 s \$0-fm3-LFO/op3/pan;
#X text 0 1055 Generated Wed Jan 7 03:35:40 2026 by faust2pd v2.16. See http://faust.grame.fr and http://purelang.bitbucket.org.;
#X obj 271 1329 clone -s 1 8 duck-voice-stereo~ synths/fm3_LFO_voice~;
#X obj 300 1119 inlet;
#X text 345 1125 notes;
#X obj 298 1190 poly 8 1, f 10;
#X obj 297 1247 pack 0 0 0;
#X obj 584 1244 list prepend all;
#X obj 584 1265 list trim;
#X obj 329 1222 +;
#X obj 399 1140 hsl 136 16 0 127 0 0 empty empty empty -2 -8 0 10 #fcfcfc #000000 #000000 0 1;
#X obj 396 1161 / 127;
#X obj 396 1182 * 12;
#X obj 1049 1257 text define \$0-presets;
#X obj 1046 1129 bng 16 250 50 0 empty empty empty 0 -8 0 10 #fcfcfc #000000 #000000;
#X obj 1047 1163 savepanel;
#X obj 1047 1184 list prepend write;
#X obj 1047 1205 list trim;
#X obj 1193 1131 bng 16 250 50 0 empty empty empty 0 -8 0 10 #fcfcfc #000000 #000000;
#X obj 1194 1207 list trim;
#X obj 1194 1165 openpanel;
#X obj 1194 1186 list prepend read;
#X obj 705 1046 r \$0-in;
#X obj 877 1051 text define \$0-temp;
#X obj 706 1246 text set \$0-temp;
#X obj 705 1067 unpack s f, f 23;
#X obj 705 1113 text search \$0-temp;
#X obj 705 1198 list store;
#X obj 705 1088 t a a, f 16;
#X obj 705 1219 list append, f 16;
#X obj 705 1134 sel -1;
#X obj 705 1155 i 999999;
#X obj 705 1176 t b a;
#X obj 864 1219 text set \$0-presets;
#X obj 881 1088 bng 16 250 50 0 empty empty empty 0 -8 0 10 #fcfcfc #000000 #000000;
#X floatatom 946 1113 5 0 0 0 - - - 0;
#X obj 901 1191 i 0;
#X obj 881 1109 t b b;
#X obj 870 1154 text tolist \$0-temp;
#X text 898 1091 save a preset;
#X floatatom 964 1340 5 0 0 0 - - - 0;
#X obj 938 1368 i;
#X obj 933 1309 bng 16 250 50 0 empty empty empty 0 -8 0 10 #fcfcfc #000000 #000000;
#X obj 938 1416 text fromlist \$0-temp;
#X obj 938 1393 text get \$0-presets;
#X obj 756 1467 text get \$0-temp;
#X obj 758 1394 max 1;
#X obj 756 1422 until;
#X obj 756 1443 i;
#X obj 799 1442 + 1;
#X obj 758 1371 t a b;
#X obj 804 1409 i 0;
#X obj 756 1516 s \$0-write;
#X obj 761 1310 bng 16 250 50 0 empty empty empty 0 -8 0 10 #fcfcfc #000000 #000000;
#X obj 758 1350 text size \$0-temp;
#X obj 756 1488 list trim;
#X text 957 1308 load preset into temp;
#X text 781 1304 read the temp preset;
#X msg 309 1151 stop;
#X connect 0 0 2 0;
#X connect 0 0 8 0;
#X connect 1 0 2 0;
#X connect 2 0 3 0;
#X connect 4 0 780 0;
#X connect 194 0 204 0;
#X connect 194 0 210 0;
#X connect 194 0 216 0;
#X connect 194 0 222 0;
#X connect 194 0 228 0;
#X connect 194 0 234 0;
#X connect 194 0 240 0;
#X connect 194 0 246 0;
#X connect 194 0 252 0;
#X connect 194 0 258 0;
#X connect 194 0 264 0;
#X connect 194 0 270 0;
#X connect 194 0 276 0;
#X connect 194 0 282 0;
#X connect 194 0 288 0;
#X connect 194 0 294 0;
#X connect 194 0 300 0;
#X connect 194 0 306 0;
#X connect 194 0 312 0;
#X connect 194 0 318 0;
#X connect 194 0 324 0;
#X connect 194 0 330 0;
#X connect 194 0 336 0;
#X connect 194 0 342 0;
#X connect 194 0 348 0;
#X connect 194 0 354 0;
#X connect 194 0 360 0;
#X connect 194 0 366 0;
#X connect 194 0 372 0;
#X connect 194 0 378 0;
#X connect 194 0 384 0;
#X connect 194 0 390 0;
#X connect 194 0 396 0;
#X connect 194 0 402 0;
#X connect 194 0 408 0;
#X connect 194 0 414 0;
#X connect 194 0 420 0;
#X connect 194 0 426 0;
#X connect 194 0 432 0;
#X connect 194 0 438 0;
#X connect 194 0 444 0;
#X connect 194 0 450 0;
#X connect 194 0 456 0;
#X connect 194 0 462 0;
#X connect 194 0 468 0;
#X connect 194 0 474 0;
#X connect 194 0 480 0;
#X connect 194 0 486 0;
#X connect 194 0 492 0;
#X connect 194 0 498 0;
#X connect 194 0 504 0;
#X connect 194 0 510 0;
#X connect 194 0 516 0;
#X connect 194 0 522 0;
#X connect 194 0 528 0;
#X connect 194 0 534 0;
#X connect 194 0 540 0;
#X connect 194 0 546 0;
#X connect 194 0 552 0;
#X connect 194 0 558 0;
#X connect 194 0 564 0;
#X connect 194 0 570 0;
#X connect 194 0 576 0;
#X connect 194 0 582 0;
#X connect 194 0 588 0;
#X connect 194 0 594 0;
#X connect 194 0 600 0;
#X connect 194 0 606 0;
#X connect 194 0 612 0;
#X connect 194 0 618 0;
#X connect 194 0 624 0;
#X connect 194 0 630 0;
#X connect 194 0 636 0;
#X connect 194 0 642 0;
#X connect 194 0 648 0;
#X connect 194 0 654 0;
#X connect 194 0 660 0;
#X connect 194 0 666 0;
#X connect 194 0 672 0;
#X connect 194 0 678 0;
#X connect 194 0 684 0;
#X connect 194 0 690 0;
#X connect 194 0 696 0;
#X connect 194 0 702 0;
#X connect 194 0 708 0;
#X connect 194 0 714 0;
#X connect 194 0 720 0;
#X connect 194 0 726 0;
#X connect 194 0 732 0;
#X connect 194 0 738 0;
#X connect 194 0 744 0;
#X connect 194 0 750 0;
#X connect 194 0 756 0;
#X connect 194 0 762 0;
#X connect 194 0 768 0;
#X connect 197 0 202 0;
#X connect 198 0 199 0;
#X connect 200 0 201 0;
#X connect 201 0 195 0;
#X connect 202 0 203 0;
#X connect 202 1 208 0;
#X connect 204 0 205 0;
#X connect 206 0 207 0;
#X connect 207 0 195 0;
#X connect 208 0 209 0;
#X connect 208 1 214 0;
#X connect 210 0 211 0;
#X connect 212 0 213 0;
#X connect 213 0 195 0;
#X connect 214 0 215 0;
#X connect 214 1 220 0;
#X connect 216 0 217 0;
#X connect 218 0 219 0;
#X connect 219 0 195 0;
#X connect 220 0 221 0;
#X connect 220 1 226 0;
#X connect 222 0 223 0;
#X connect 224 0 225 0;
#X connect 225 0 195 0;
#X connect 226 0 227 0;
#X connect 226 1 232 0;
#X connect 228 0 229 0;
#X connect 230 0 231 0;
#X connect 231 0 195 0;
#X connect 232 0 233 0;
#X connect 232 1 238 0;
#X connect 234 0 235 0;
#X connect 236 0 237 0;
#X connect 237 0 195 0;
#X connect 238 0 239 0;
#X connect 238 1 244 0;
#X connect 240 0 241 0;
#X connect 242 0 243 0;
#X connect 243 0 195 0;
#X connect 244 0 245 0;
#X connect 244 1 250 0;
#X connect 246 0 247 0;
#X connect 248 0 249 0;
#X connect 249 0 195 0;
#X connect 250 0 251 0;
#X connect 250 1 256 0;
#X connect 252 0 253 0;
#X connect 254 0 255 0;
#X connect 255 0 195 0;
#X connect 256 0 257 0;
#X connect 256 1 262 0;
#X connect 258 0 259 0;
#X connect 260 0 261 0;
#X connect 261 0 195 0;
#X connect 262 0 263 0;
#X connect 262 1 268 0;
#X connect 264 0 265 0;
#X connect 266 0 267 0;
#X connect 267 0 195 0;
#X connect 268 0 269 0;
#X connect 268 1 274 0;
#X connect 270 0 271 0;
#X connect 272 0 273 0;
#X connect 273 0 195 0;
#X connect 274 0 275 0;
#X connect 274 1 280 0;
#X connect 276 0 277 0;
#X connect 278 0 279 0;
#X connect 279 0 195 0;
#X connect 280 0 281 0;
#X connect 280 1 286 0;
#X connect 282 0 283 0;
#X connect 284 0 285 0;
#X connect 285 0 195 0;
#X connect 286 0 287 0;
#X connect 286 1 292 0;
#X connect 288 0 289 0;
#X connect 290 0 291 0;
#X connect 291 0 195 0;
#X connect 292 0 293 0;
#X connect 292 1 298 0;
#X connect 294 0 295 0;
#X connect 296 0 297 0;
#X connect 297 0 195 0;
#X connect 298 0 299 0;
#X connect 298 1 304 0;
#X connect 300 0 301 0;
#X connect 302 0 303 0;
#X connect 303 0 195 0;
#X connect 304 0 305 0;
#X connect 304 1 310 0;
#X connect 306 0 307 0;
#X connect 308 0 309 0;
#X connect 309 0 195 0;
#X connect 310 0 311 0;
#X connect 310 1 316 0;
#X connect 312 0 313 0;
#X connect 314 0 315 0;
#X connect 315 0 195 0;
#X connect 316 0 317 0;
#X connect 316 1 322 0;
#X connect 318 0 319 0;
#X connect 320 0 321 0;
#X connect 321 0 195 0;
#X connect 322 0 323 0;
#X connect 322 1 328 0;
#X connect 324 0 325 0;
#X connect 326 0 327 0;
#X connect 327 0 195 0;
#X connect 328 0 329 0;
#X connect 328 1 334 0;
#X connect 330 0 331 0;
#X connect 332 0 333 0;
#X connect 333 0 195 0;
#X connect 334 0 335 0;
#X connect 334 1 340 0;
#X connect 336 0 337 0;
#X connect 338 0 339 0;
#X connect 339 0 195 0;
#X connect 340 0 341 0;
#X connect 340 1 346 0;
#X connect 342 0 343 0;
#X connect 344 0 345 0;
#X connect 345 0 195 0;
#X connect 346 0 347 0;
#X connect 346 1 352 0;
#X connect 348 0 349 0;
#X connect 350 0 351 0;
#X connect 351 0 195 0;
#X connect 352 0 353 0;
#X connect 352 1 358 0;
#X connect 354 0 355 0;
#X connect 356 0 357 0;
#X connect 357 0 195 0;
#X connect 358 0 359 0;
#X connect 358 1 364 0;
#X connect 360 0 361 0;
#X connect 362 0 363 0;
#X connect 363 0 195 0;
#X connect 364 0 365 0;
#X connect 364 1 370 0;
#X connect 366 0 367 0;
#X connect 368 0 369 0;
#X connect 369 0 195 0;
#X connect 370 0 371 0;
#X connect 370 1 376 0;
#X connect 372 0 373 0;
#X connect 374 0 375 0;
#X connect 375 0 195 0;
#X connect 376 0 377 0;
#X connect 376 1 382 0;
#X connect 378 0 379 0;
#X connect 380 0 381 0;
#X connect 381 0 195 0;
#X connect 382 0 383 0;
#X connect 382 1 388 0;
#X connect 384 0 385 0;
#X connect 386 0 387 0;
#X connect 387 0 195 0;
#X connect 388 0 389 0;
#X connect 388 1 394 0;
#X connect 390 0 391 0;
#X connect 392 0 393 0;
#X connect 393 0 195 0;
#X connect 394 0 395 0;
#X connect 394 1 400 0;
#X connect 396 0 397 0;
#X connect 398 0 399 0;
#X connect 399 0 195 0;
#X connect 400 0 401 0;
#X connect 400 1 406 0;
#X connect 402 0 403 0;
#X connect 404 0 405 0;
#X connect 405 0 195 0;
#X connect 406 0 407 0;
#X connect 406 1 412 0;
#X connect 408 0 409 0;
#X connect 410 0 411 0;
#X connect 411 0 195 0;
#X connect 412 0 413 0;
#X connect 412 1 418 0;
#X connect 414 0 415 0;
#X connect 416 0 417 0;
#X connect 417 0 195 0;
#X connect 418 0 419 0;
#X connect 418 1 424 0;
#X connect 420 0 421 0;
#X connect 422 0 423 0;
#X connect 423 0 195 0;
#X connect 424 0 425 0;
#X connect 424 1 430 0;
#X connect 426 0 427 0;
#X connect 428 0 429 0;
#X connect 429 0 195 0;
#X connect 430 0 431 0;
#X connect 430 1 436 0;
#X connect 432 0 433 0;
#X connect 434 0 435 0;
#X connect 435 0 195 0;
#X connect 436 0 437 0;
#X connect 436 1 442 0;
#X connect 438 0 439 0;
#X connect 440 0 441 0;
#X connect 441 0 195 0;
#X connect 442 0 443 0;
#X connect 442 1 448 0;
#X connect 444 0 445 0;
#X connect 446 0 447 0;
#X connect 447 0 195 0;
#X connect 448 0 449 0;
#X connect 448 1 454 0;
#X connect 450 0 451 0;
#X connect 452 0 453 0;
#X connect 453 0 195 0;
#X connect 454 0 455 0;
#X connect 454 1 460 0;
#X connect 456 0 457 0;
#X connect 458 0 459 0;
#X connect 459 0 195 0;
#X connect 460 0 461 0;
#X connect 460 1 466 0;
#X connect 462 0 463 0;
#X connect 464 0 465 0;
#X connect 465 0 195 0;
#X connect 466 0 467 0;
#X connect 466 1 472 0;
#X connect 468 0 469 0;
#X connect 470 0 471 0;
#X connect 471 0 195 0;
#X connect 472 0 473 0;
#X connect 472 1 478 0;
#X connect 474 0 475 0;
#X connect 476 0 477 0;
#X connect 477 0 195 0;
#X connect 478 0 479 0;
#X connect 478 1 484 0;
#X connect 480 0 481 0;
#X connect 482 0 483 0;
#X connect 483 0 195 0;
#X connect 484 0 485 0;
#X connect 484 1 490 0;
#X connect 486 0 487 0;
#X connect 488 0 489 0;
#X connect 489 0 195 0;
#X connect 490 0 491 0;
#X connect 490 1 496 0;
#X connect 492 0 493 0;
#X connect 494 0 495 0;
#X connect 495 0 195 0;
#X connect 496 0 497 0;
#X connect 496 1 502 0;
#X connect 498 0 499 0;
#X connect 500 0 501 0;
#X connect 501 0 195 0;
#X connect 502 0 503 0;
#X connect 502 1 508 0;
#X connect 504 0 505 0;
#X connect 506 0 507 0;
#X connect 507 0 195 0;
#X connect 508 0 509 0;
#X connect 508 1 514 0;
#X connect 510 0 511 0;
#X connect 512 0 513 0;
#X connect 513 0 195 0;
#X connect 514 0 515 0;
#X connect 514 1 520 0;
#X connect 516 0 517 0;
#X connect 518 0 519 0;
#X connect 519 0 195 0;
#X connect 520 0 521 0;
#X connect 520 1 526 0;
#X connect 522 0 523 0;
#X connect 524 0 525 0;
#X connect 525 0 195 0;
#X connect 526 0 527 0;
#X connect 526 1 532 0;
#X connect 528 0 529 0;
#X connect 530 0 531 0;
#X connect 531 0 195 0;
#X connect 532 0 533 0;
#X connect 532 1 538 0;
#X connect 534 0 535 0;
#X connect 536 0 537 0;
#X connect 537 0 195 0;
#X connect 538 0 539 0;
#X connect 538 1 544 0;
#X connect 540 0 541 0;
#X connect 542 0 543 0;
#X connect 543 0 195 0;
#X connect 544 0 545 0;
#X connect 544 1 550 0;
#X connect 546 0 547 0;
#X connect 548 0 549 0;
#X connect 549 0 195 0;
#X connect 550 0 551 0;
#X connect 550 1 556 0;
#X connect 552 0 553 0;
#X connect 554 0 555 0;
#X connect 555 0 195 0;
#X connect 556 0 557 0;
#X connect 556 1 562 0;
#X connect 558 0 559 0;
#X connect 560 0 561 0;
#X connect 561 0 195 0;
#X connect 562 0 563 0;
#X connect 562 1 568 0;
#X connect 564 0 565 0;
#X connect 566 0 567 0;
#X connect 567 0 195 0;
#X connect 568 0 569 0;
#X connect 568 1 574 0;
#X connect 570 0 571 0;
#X connect 572 0 573 0;
#X connect 573 0 195 0;
#X connect 574 0 575 0;
#X connect 574 1 580 0;
#X connect 576 0 577 0;
#X connect 578 0 579 0;
#X connect 579 0 195 0;
#X connect 580 0 581 0;
#X connect 580 1 586 0;
#X connect 582 0 583 0;
#X connect 584 0 585 0;
#X connect 585 0 195 0;
#X connect 586 0 587 0;
#X connect 586 1 592 0;
#X connect 588 0 589 0;
#X connect 590 0 591 0;
#X connect 591 0 195 0;
#X connect 592 0 593 0;
#X connect 592 1 598 0;
#X connect 594 0 595 0;
#X connect 596 0 597 0;
#X connect 597 0 195 0;
#X connect 598 0 599 0;
#X connect 598 1 604 0;
#X connect 600 0 601 0;
#X connect 602 0 603 0;
#X connect 603 0 195 0;
#X connect 604 0 605 0;
#X connect 604 1 610 0;
#X connect 606 0 607 0;
#X connect 608 0 609 0;
#X connect 609 0 195 0;
#X connect 610 0 611 0;
#X connect 610 1 616 0;
#X connect 612 0 613 0;
#X connect 614 0 615 0;
#X connect 615 0 195 0;
#X connect 616 0 617 0;
#X connect 616 1 622 0;
#X connect 618 0 619 0;
#X connect 620 0 621 0;
#X connect 621 0 195 0;
#X connect 622 0 623 0;
#X connect 622 1 628 0;
#X connect 624 0 625 0;
#X connect 626 0 627 0;
#X connect 627 0 195 0;
#X connect 628 0 629 0;
#X connect 628 1 634 0;
#X connect 630 0 631 0;
#X connect 632 0 633 0;
#X connect 633 0 195 0;
#X connect 634 0 635 0;
#X connect 634 1 640 0;
#X connect 636 0 637 0;
#X connect 638 0 639 0;
#X connect 639 0 195 0;
#X connect 640 0 641 0;
#X connect 640 1 646 0;
#X connect 642 0 643 0;
#X connect 644 0 645 0;
#X connect 645 0 195 0;
#X connect 646 0 647 0;
#X connect 646 1 652 0;
#X connect 648 0 649 0;
#X connect 650 0 651 0;
#X connect 651 0 195 0;
#X connect 652 0 653 0;
#X connect 652 1 658 0;
#X connect 654 0 655 0;
#X connect 656 0 657 0;
#X connect 657 0 195 0;
#X connect 658 0 659 0;
#X connect 658 1 664 0;
#X connect 660 0 661 0;
#X connect 662 0 663 0;
#X connect 663 0 195 0;
#X connect 664 0 665 0;
#X connect 664 1 670 0;
#X connect 666 0 667 0;
#X connect 668 0 669 0;
#X connect 669 0 195 0;
#X connect 670 0 671 0;
#X connect 670 1 676 0;
#X connect 672 0 673 0;
#X connect 674 0 675 0;
#X connect 675 0 195 0;
#X connect 676 0 677 0;
#X connect 676 1 682 0;
#X connect 678 0 679 0;
#X connect 680 0 681 0;
#X connect 681 0 195 0;
#X connect 682 0 683 0;
#X connect 682 1 688 0;
#X connect 684 0 685 0;
#X connect 686 0 687 0;
#X connect 687 0 195 0;
#X connect 688 0 689 0;
#X connect 688 1 694 0;
#X connect 690 0 691 0;
#X connect 692 0 693 0;
#X connect 693 0 195 0;
#X connect 694 0 695 0;
#X connect 694 1 700 0;
#X connect 696 0 697 0;
#X connect 698 0 699 0;
#X connect 699 0 195 0;
#X connect 700 0 701 0;
#X connect 700 1 706 0;
#X connect 702 0 703 0;
#X connect 704 0 705 0;
#X connect 705 0 195 0;
#X connect 706 0 707 0;
#X connect 706 1 712 0;
#X connect 708 0 709 0;
#X connect 710 0 711 0;
#X connect 711 0 195 0;
#X connect 712 0 713 0;
#X connect 712 1 718 0;
#X connect 714 0 715 0;
#X connect 716 0 717 0;
#X connect 717 0 195 0;
#X connect 718 0 719 0;
#X connect 718 1 724 0;
#X connect 720 0 721 0;
#X connect 722 0 723 0;
#X connect 723 0 195 0;
#X connect 724 0 725 0;
#X connect 724 1 730 0;
#X connect 726 0 727 0;
#X connect 728 0 729 0;
#X connect 729 0 195 0;
#X connect 730 0 731 0;
#X connect 730 1 736 0;
#X connect 732 0 733 0;
#X connect 734 0 735 0;
#X connect 735 0 195 0;
#X connect 736 0 737 0;
#X connect 736 1 742 0;
#X connect 738 0 739 0;
#X connect 740 0 741 0;
#X connect 741 0 195 0;
#X connect 742 0 743 0;
#X connect 742 1 748 0;
#X connect 744 0 745 0;
#X connect 746 0 747 0;
#X connect 747 0 195 0;
#X connect 748 0 749 0;
#X connect 748 1 754 0;
#X connect 750 0 751 0;
#X connect 752 0 753 0;
#X connect 753 0 195 0;
#X connect 754 0 755 0;
#X connect 754 1 760 0;
#X connect 756 0 757 0;
#X connect 758 0 759 0;
#X connect 759 0 195 0;
#X connect 760 0 761 0;
#X connect 760 1 766 0;
#X connect 762 0 763 0;
#X connect 764 0 765 0;
#X connect 765 0 195 0;
#X connect 766 0 767 0;
#X connect 766 1 772 0;
#X connect 768 0 769 0;
#X connect 770 0 771 0;
#X connect 771 0 195 0;
#X connect 772 0 773 0;
#X connect 775 0 5 0;
#X connect 775 1 6 0;
#X connect 775 2 7 0;
#X connect 776 0 778 0;
#X connect 778 0 779 0;
#X connect 778 1 782 0;
#X connect 778 2 779 2;
#X connect 779 0 775 0;
#X connect 780 0 781 0;
#X connect 781 0 775 1;
#X connect 782 0 779 1;
#X connect 783 0 784 0;
#X connect 784 0 785 0;
#X connect 785 0 782 1;
#X connect 787 0 788 0;
#X connect 788 0 789 0;
#X connect 789 0 790 0;
#X connect 790 0 786 0;
#X connect 791 0 793 0;
#X connect 792 0 786 0;
#X connect 793 0 794 0;
#X connect 794 0 792 0;
#X connect 795 0 798 0;
#X connect 798 0 801 0;
#X connect 798 1 802 1;
#X connect 799 0 803 0;
#X connect 800 0 802 0;
#X connect 801 0 799 0;
#X connect 801 1 800 1;
#X connect 802 0 797 0;
#X connect 803 0 804 0;
#X connect 803 1 805 0;
#X connect 804 0 805 0;
#X connect 805 0 800 0;
#X connect 805 1 797 1;
#X connect 807 0 810 0;
#X connect 808 0 809 1;
#X connect 809 0 806 1;
#X connect 810 0 811 0;
#X connect 810 1 809 0;
#X connect 811 0 806 0;
#X connect 813 0 814 1;
#X connect 814 0 817 0;
#X connect 815 0 814 0;
#X connect 817 0 816 0;
#X connect 818 0 828 0;
#X connect 819 0 820 0;
#X connect 820 0 821 0;
#X connect 821 0 822 0;
#X connect 821 0 818 0;
#X connect 822 0 821 1;
#X connect 823 0 819 0;
#X connect 823 1 824 0;
#X connect 824 0 821 1;
#X connect 826 0 827 0;
#X connect 827 0 823 0;
#X connect 828 0 825 0;
#X connect 831 0 778 0;
#X coords 0 842 1 841 2310 1040 0;
