#N canvas 367 193 450 300 10;
#X obj 24 28 inlet~;
#X obj 24 185 cos~;
#X obj 24 119 +~, f 15;
#X obj 24 89 phasor~;
#X obj 24 140 wrap~;
#X obj 24 206 hip~ 5;
#X obj 24 271 outlet~;
#X obj 111 26 inlet~;
#X obj 60 235 tabsend~ \$0-tab;
#X obj 289 137 table \$0-tab 1;
#X obj 171 67 tabreceive~ \$0-tab;
#X obj 171 118 lop~ 50;
#X obj 171 88 *~;
#X obj 267 14 inlet~;
#X text 312 15 feedback;
#X obj 24 161 +~, f 15;
#X obj 289 169 block~ 1 1 1;
#X connect 0 0 3 0;
#X connect 1 0 5 0;
#X connect 2 0 4 0;
#X connect 3 0 2 0;
#X connect 4 0 15 0;
#X connect 5 0 6 0;
#X connect 5 0 8 0;
#X connect 7 0 2 1;
#X connect 10 0 12 0;
#X connect 11 0 15 1;
#X connect 12 0 11 0;
#X connect 13 0 12 1;
#X connect 15 0 1 0;
