#N canvas 606 411 450 378 10;
#X obj 24 28 inlet~;
#X obj 24 147 cos~;
#X obj 24 119 +~, f 15;
#X obj 24 311 outlet~;
#X obj 111 26 inlet~;
#X obj 24 89 phasor~;
#X obj 24 168 *~ 0.5;
#X obj 24 279 *~;
#X obj 200 65 ftom~;
#X obj 200 121 /~ 127;
#X obj 143 131 sig~ 1;
#X obj 143 152 -~, f 10;
#X obj 143 173 *~;
#X obj 200 86 clip~ 0 127;
#X obj 143 194 *~ 0.75;
#X obj 143 215 +~ 0.25;
#X obj 143 236 lop~ 100;
#X connect 0 0 5 0;
#X connect 0 0 8 0;
#X connect 1 0 6 0;
#X connect 2 0 1 0;
#X connect 4 0 2 1;
#X connect 5 0 2 0;
#X connect 6 0 7 0;
#X connect 7 0 3 0;
#X connect 8 0 13 0;
#X connect 9 0 11 1;
#X connect 10 0 11 0;
#X connect 11 0 12 0;
#X connect 11 0 12 1;
#X connect 12 0 14 0;
#X connect 13 0 9 0;
#X connect 14 0 15 0;
#X connect 15 0 16 0;
#X connect 16 0 7 1;
